<svg width="24" height="24" viewBox="0 0 24 24" fill="none" xmlns="http://www.w3.org/2000/svg">
<path d="M17.45 12.46C18.6175 11.0225 19.1678 9.18087 18.9804 7.33845C18.793 5.49604 17.8831 3.80297 16.45 2.63001C15.6289 1.97199 14.6717 1.50497 13.6478 1.26282C12.6238 1.02067 11.5588 1.00946 10.53 1.23001C9.37484 1.4855 8.3033 2.0296 7.41543 2.81149C6.52757 3.59337 5.85236 4.58753 5.45287 5.70111C5.05339 6.81468 4.94265 8.01134 5.13101 9.17932C5.31937 10.3473 5.80068 11.4485 6.52999 12.38C7.19466 13.1887 7.57425 14.1939 7.60999 15.24V15.53C7.22948 15.8976 7.01014 16.401 6.99999 16.93V18.93C6.99999 19.4604 7.2107 19.9691 7.58578 20.3442C7.96085 20.7193 8.46956 20.93 8.99999 20.93V21.93C8.99999 22.1952 9.10535 22.4496 9.29288 22.6371C9.48042 22.8246 9.73477 22.93 9.99999 22.93C10.2652 22.93 10.5196 22.8246 10.7071 22.6371C10.8946 22.4496 11 22.1952 11 21.93V20.93H13V21.93C13 22.1952 13.1053 22.4496 13.2929 22.6371C13.4804 22.8246 13.7348 22.93 14 22.93C14.2652 22.93 14.5196 22.8246 14.7071 22.6371C14.8946 22.4496 15 22.1952 15 21.93V20.93C15.5304 20.93 16.0391 20.7193 16.4142 20.3442C16.7893 19.9691 17 19.4604 17 18.93V16.93C17.0004 16.4067 16.7958 15.9041 16.43 15.53V15.1C16.4592 14.1295 16.8191 13.198 17.45 12.46ZM8.99999 18.93V16.93H15V18.93H8.99999ZM15.89 11.21C15.0048 12.2541 14.4912 13.5625 14.43 14.93H9.55999C9.46566 13.5446 8.94128 12.2231 8.05999 11.15C7.5306 10.4856 7.17921 9.69734 7.03897 8.8595C6.89873 8.02167 6.97428 7.16191 7.25847 6.36137C7.54266 5.56082 8.02614 4.84588 8.66327 4.28401C9.30041 3.72214 10.0702 3.33186 10.9 3.15001C11.6352 2.98417 12.3984 2.98668 13.1325 3.15736C13.8665 3.32803 14.5525 3.66245 15.1392 4.1356C15.7258 4.60875 16.1979 5.2084 16.5201 5.88971C16.8424 6.57102 17.0064 7.31636 17 8.07C17.0063 9.21388 16.6138 10.3242 15.89 11.21Z" fill="black"/>
</svg>
