<svg width="24" height="24" viewBox="0 0 24 24" fill="none" xmlns="http://www.w3.org/2000/svg">
<path d="M21 14H18.0704C17.5464 14 17.2844 14 17.0633 14.1183C16.8422 14.2367 16.6969 14.4546 16.4063 14.8906L15.5937 16.1094C15.3031 16.5454 15.1578 16.7633 14.9367 16.8817C14.7156 17 14.4536 17 13.9296 17H10.0704C9.5464 17 9.28442 17 9.06333 16.8817C8.84223 16.7633 8.69691 16.5454 8.40627 16.1094L7.59373 14.8906C7.30309 14.4546 7.15777 14.2367 6.93667 14.1183C6.71558 14 6.4536 14 5.92963 14H3" stroke="#33363F" stroke-width="2"/>
<path d="M8 10H6.41421C6.149 10 5.89464 10.1054 5.70711 10.2929L3.29289 12.7071C3.10536 12.8946 3 13.149 3 13.4142V19C3 20.1046 3.89543 21 5 21H19C20.1046 21 21 20.1046 21 19V13.4142C21 13.149 20.8946 12.8946 20.7071 12.7071L18.2929 10.2929C18.1054 10.1054 17.851 10 17.5858 10H16" stroke="#33363F" stroke-width="2" stroke-linecap="round"/>
<path d="M12.3511 12.3683L12 11.432L12.3511 12.3683ZM11.6489 12.3683L12 11.432L11.6489 12.3683ZM15.6971 3.82151C14.8747 3.53242 13.223 3 12 3V5C12.8322 5 14.1743 5.40621 15.0338 5.70833L15.6971 3.82151ZM12 3C10.777 3 9.12533 3.53242 8.30293 3.82151L8.96618 5.70833C9.82566 5.40621 11.1678 5 12 5V3ZM15 5.67703V8.228H17V5.67703H15ZM9 8.228V5.67703H7V8.228H9ZM13.0534 11.037L12 11.432L12.7022 13.3047L13.7556 12.9096L13.0534 11.037ZM12 11.432L10.9466 11.037L10.2444 12.9096L11.2978 13.3047L12 11.432ZM7 8.228C7 10.3122 8.29286 12.1778 10.2444 12.9096L10.9466 11.037C9.77572 10.5979 9 9.47853 9 8.228H7ZM15 8.228C15 9.47853 14.2243 10.5979 13.0534 11.037L13.7556 12.9096C15.7071 12.1778 17 10.3122 17 8.228H15ZM8.30293 3.82151C7.49806 4.10444 7 4.86382 7 5.67703H9C9 5.67596 9.0002 5.67989 8.99559 5.68656C8.99323 5.68999 8.98949 5.69427 8.98398 5.69853C8.97823 5.70297 8.97191 5.70632 8.96618 5.70833L8.30293 3.82151ZM12 11.432L11.2978 13.3047C11.7505 13.4744 12.2495 13.4744 12.7022 13.3047L12 11.432ZM15.0338 5.70833C15.0281 5.70632 15.0218 5.70297 15.016 5.69853C15.0105 5.69427 15.0068 5.68999 15.0044 5.68656C14.9998 5.67989 15 5.67596 15 5.67703H17C17 4.86382 16.5019 4.10444 15.6971 3.82151L15.0338 5.70833Z" fill="#33363F"/>
</svg>
