<svg width="24" height="24" viewBox="0 0 24 24" fill="none" xmlns="http://www.w3.org/2000/svg">
<g clip-path="url(#clip0_37_9640)">
<path d="M18.17 4.91L17.1 3.84L11.55 9.39V10.47H12.63L18.17 4.91ZM16 2.74L17.29 1.45C17.4286 1.30971 17.5936 1.19833 17.7756 1.12231C17.9576 1.04629 18.1528 1.00714 18.35 1.00714C18.5472 1.00714 18.7424 1.04629 18.9244 1.12231C19.1064 1.19833 19.2714 1.30971 19.41 1.45L20.56 2.6C21.15 3.19 21.15 4.14 20.56 4.72L19.88 5.4L19.86 5.42L19.28 6L13.28 12H10V8.74L16 2.74ZM13.72 2.19L13.17 2.74L11.9 4.01C8.6 4.06 6 6.61 6 10.21C6 12.55 7.95 15.65 12 19.35C16.05 15.65 18 12.56 18 10.21V10.11L19.8 8.31C19.93 8.91 20 9.55 20 10.21C20 13.53 17.33 17.46 12 22.01C6.67 17.46 4 13.53 4 10.21C4 5.23 7.8 2.01 12 2.01C12.58 2.01 13.16 2.07 13.72 2.19Z" fill="#323232"/>
</g>
<defs>
<clipPath id="clip0_37_9640">
<rect width="24" height="24" fill="white"/>
</clipPath>
</defs>
</svg>
