<svg width="24" height="24" viewBox="0 0 24 24" fill="none" xmlns="http://www.w3.org/2000/svg">
<path d="M20.46 9.63002C20.3304 8.27185 19.8757 6.96484 19.1344 5.81944C18.3931 4.67404 17.387 3.72391 16.2011 3.04934C15.0152 2.37477 13.6843 1.99557 12.321 1.9438C10.9576 1.89204 9.60183 2.16921 8.36818 2.75191C7.13453 3.33461 6.05927 4.20571 5.23327 5.2916C4.40727 6.37748 3.85479 7.64625 3.62253 8.99068C3.39027 10.3351 3.48505 11.7157 3.89886 13.0158C4.31267 14.3158 5.03335 15.4972 6 16.46L11.3 21.77C11.393 21.8637 11.5036 21.9381 11.6254 21.9889C11.7473 22.0397 11.878 22.0658 12.01 22.0658C12.142 22.0658 12.2727 22.0397 12.3946 21.9889C12.5164 21.9381 12.627 21.8637 12.72 21.77L18 16.46C18.8912 15.5755 19.5743 14.5036 19.9998 13.3223C20.4253 12.1409 20.5825 10.8797 20.46 9.63002ZM16.6 15.05L12 19.65L7.4 15.05C6.72209 14.3721 6.2028 13.5523 5.87947 12.6498C5.55613 11.7472 5.43679 10.7842 5.53 9.83002C5.62382 8.86112 5.93176 7.92518 6.43157 7.08986C6.93138 6.25454 7.61056 5.54072 8.42 5.00002C9.48095 4.29525 10.7263 3.91931 12 3.91931C13.2737 3.91931 14.5191 4.29525 15.58 5.00002C16.387 5.53863 17.0647 6.2493 17.5644 7.08095C18.064 7.91261 18.3733 8.84462 18.47 9.81002C18.5663 10.7674 18.4484 11.7343 18.125 12.6406C17.8016 13.5468 17.2807 14.3698 16.6 15.05ZM13.79 6.25002C13.697 6.15629 13.5864 6.08189 13.4646 6.03112C13.3427 5.98036 13.212 5.95422 13.08 5.95422C12.948 5.95422 12.8173 5.98036 12.6954 6.03112C12.5736 6.08189 12.463 6.15629 12.37 6.25002L8.79 9.83002C8.60526 10.0163 8.50111 10.2677 8.5 10.53V13C8.5 13.2652 8.60536 13.5196 8.79289 13.7071C8.98043 13.8947 9.23478 14 9.5 14H11.92C12.0516 14.0008 12.1821 13.9756 12.3039 13.9258C12.4257 13.876 12.5366 13.8027 12.63 13.71L16.21 10.13C16.3963 9.94265 16.5008 9.6892 16.5008 9.42502C16.5008 9.16083 16.3963 8.90738 16.21 8.72002L13.79 6.25002ZM11.51 12H10.51V11L13.09 8.42002L14.09 9.42002L11.51 12Z" fill="black"/>
</svg>
