<svg width="24" height="24" viewBox="0 0 24 24" fill="none" xmlns="http://www.w3.org/2000/svg">
<g clip-path="url(#clip0_37_9752)">
<path d="M17 4.99999C17.83 4.99999 18.5 4.32999 18.5 3.49999C18.5 2.49999 17 0.799988 17 0.799988C17 0.799988 15.5 2.49999 15.5 3.49999C15.5 4.32999 16.17 4.99999 17 4.99999ZM12 4.99999C12.83 4.99999 13.5 4.32999 13.5 3.49999C13.5 2.49999 12 0.799988 12 0.799988C12 0.799988 10.5 2.49999 10.5 3.49999C10.5 4.32999 11.17 4.99999 12 4.99999ZM7 4.99999C7.83 4.99999 8.5 4.32999 8.5 3.49999C8.5 2.49999 7 0.799988 7 0.799988C7 0.799988 5.5 2.49999 5.5 3.49999C5.5 4.32999 6.17 4.99999 7 4.99999ZM18.92 8.00999C18.72 7.41999 18.16 6.99999 17.5 6.99999H6.5C5.84 6.99999 5.29 7.41999 5.08 8.00999L3 14V22C3 22.55 3.45 23 4 23H5C5.55 23 6 22.55 6 22V21H18V22C18 22.55 18.45 23 19 23H20C20.55 23 21 22.55 21 22V14L18.92 8.00999ZM6.85 8.99999H17.14L18.18 12H5.81L6.85 8.99999ZM19 19H5V14.34L5.12 14H18.89L19 14.34V19Z" fill="#323232"/>
<path d="M7.5 18C8.32843 18 9 17.3284 9 16.5C9 15.6716 8.32843 15 7.5 15C6.67157 15 6 15.6716 6 16.5C6 17.3284 6.67157 18 7.5 18Z" fill="#323232"/>
<path d="M16.5 18C17.3284 18 18 17.3284 18 16.5C18 15.6716 17.3284 15 16.5 15C15.6716 15 15 15.6716 15 16.5C15 17.3284 15.6716 18 16.5 18Z" fill="#323232"/>
</g>
<defs>
<clipPath id="clip0_37_9752">
<rect width="24" height="24" fill="white"/>
</clipPath>
</defs>
</svg>
