<svg width="24" height="24" viewBox="0 0 24 24" fill="none" xmlns="http://www.w3.org/2000/svg">
<path d="M12 10C11.7348 10 11.4804 10.1054 11.2929 10.2929C11.1054 10.4805 11 10.7348 11 11V13C11 13.2652 11.1054 13.5196 11.2929 13.7071C11.4804 13.8947 11.7348 14 12 14C12.2652 14 12.5196 13.8947 12.7071 13.7071C12.8946 13.5196 13 13.2652 13 13V11C13 10.7348 12.8946 10.4805 12.7071 10.2929C12.5196 10.1054 12.2652 10 12 10ZM20.46 9.68002C20.3274 8.21463 19.8167 6.80875 18.9778 5.59993C18.139 4.39111 17.0007 3.42074 15.6743 2.78377C14.348 2.14679 12.879 1.86503 11.4111 1.96604C9.94315 2.06705 8.5266 2.54737 7.3 3.36002C6.2492 4.06267 5.36705 4.98932 4.71694 6.07341C4.06683 7.1575 3.66489 8.37213 3.54 9.63002C3.41748 10.8797 3.57467 12.1409 4.00017 13.3223C4.42567 14.5037 5.1088 15.5755 6 16.46L11.3 21.77C11.393 21.8638 11.5036 21.9381 11.6254 21.9889C11.7473 22.0397 11.878 22.0658 12.01 22.0658C12.142 22.0658 12.2727 22.0397 12.3946 21.9889C12.5164 21.9381 12.627 21.8638 12.72 21.77L18 16.46C18.8912 15.5755 19.5743 14.5037 19.9998 13.3223C20.4253 12.1409 20.5825 10.8797 20.46 9.63002V9.68002ZM16.6 15.05L12 19.65L7.4 15.05C6.72209 14.3721 6.2028 13.5524 5.87947 12.6498C5.55613 11.7472 5.43678 10.7842 5.53 9.83002C5.62382 8.86112 5.93176 7.92518 6.43157 7.08986C6.93138 6.25455 7.61056 5.54073 8.42 5.00002C9.48095 4.29526 10.7263 3.91932 12 3.91932C13.2737 3.91932 14.5191 4.29526 15.58 5.00002C16.387 5.53864 17.0647 6.2493 17.5644 7.08096C18.064 7.91262 18.3733 8.84462 18.47 9.81002C18.5663 10.7674 18.4484 11.7343 18.125 12.6406C17.8016 13.5468 17.2807 14.3699 16.6 15.05ZM12.92 7.57002C12.9 7.50859 12.8696 7.45107 12.83 7.40002L12.71 7.25002C12.5906 7.13666 12.4451 7.05453 12.2863 7.01092C12.1276 6.96731 11.9605 6.96357 11.8 7.00002H11.62L11.44 7.09002L11.29 7.22002L11.17 7.37002C11.1304 7.42107 11.1 7.47859 11.08 7.54002C11.0496 7.59957 11.0293 7.66379 11.02 7.73002C11.0034 7.81901 10.9967 7.90956 11 8.00002C10.9965 8.13443 11.0239 8.26784 11.08 8.39002C11.1309 8.50804 11.202 8.61632 11.29 8.71002C11.3852 8.80346 11.4971 8.8781 11.62 8.93002C11.8648 9.02302 12.1352 9.02302 12.38 8.93002C12.5015 8.87566 12.6131 8.8013 12.71 8.71002C12.798 8.61632 12.8691 8.50804 12.92 8.39002C12.9725 8.2667 12.9997 8.13407 13 8.00002C13.0049 7.93678 13.0049 7.87326 13 7.81002C12.9907 7.72524 12.9634 7.64343 12.92 7.57002Z" fill="black"/>
</svg>
