<svg width="24" height="24" viewBox="0 0 24 24" fill="none" xmlns="http://www.w3.org/2000/svg">
<path d="M14 9.45002H9.99999C9.73477 9.45002 9.48041 9.55537 9.29288 9.74291C9.10534 9.93045 8.99999 10.1848 8.99999 10.45C8.99999 10.7152 9.10534 10.9696 9.29288 11.1571C9.48041 11.3447 9.73477 11.45 9.99999 11.45H14C14.2652 11.45 14.5196 11.3447 14.7071 11.1571C14.8946 10.9696 15 10.7152 15 10.45C15 10.1848 14.8946 9.93045 14.7071 9.74291C14.5196 9.55537 14.2652 9.45002 14 9.45002ZM20.46 9.63002C20.3303 8.27185 19.8757 6.96484 19.1344 5.81944C18.3931 4.67404 17.387 3.72391 16.2011 3.04934C15.0152 2.37477 13.6843 1.99557 12.321 1.9438C10.9576 1.89204 9.60182 2.16921 8.36817 2.75191C7.13452 3.33461 6.05926 4.20571 5.23325 5.2916C4.40725 6.37748 3.85478 7.64625 3.62252 8.99068C3.39026 10.3351 3.48504 11.7157 3.89885 13.0158C4.31266 14.3158 5.03334 15.4972 5.99999 16.46L11.3 21.77C11.3929 21.8637 11.5035 21.9381 11.6254 21.9889C11.7473 22.0397 11.878 22.0658 12.01 22.0658C12.142 22.0658 12.2727 22.0397 12.3946 21.9889C12.5164 21.9381 12.627 21.8637 12.72 21.77L18 16.46C18.8912 15.5755 19.5743 14.5036 19.9998 13.3223C20.4253 12.1409 20.5825 10.8797 20.46 9.63002ZM16.6 15.05L12 19.65L7.39999 15.05C6.72207 14.3721 6.20279 13.5523 5.87945 12.6498C5.55612 11.7472 5.43677 10.7842 5.52999 9.83002C5.6238 8.86112 5.93175 7.92518 6.43156 7.08986C6.93136 6.25454 7.61054 5.54072 8.41999 5.00002C9.48093 4.29525 10.7263 3.91931 12 3.91931C13.2737 3.91931 14.519 4.29525 15.58 5.00002C16.387 5.53863 17.0647 6.2493 17.5643 7.08095C18.064 7.91261 18.3733 8.84462 18.47 9.81002C18.5662 10.7674 18.4484 11.7343 18.125 12.6406C17.8015 13.5468 17.2806 14.3698 16.6 15.05Z" fill="black"/>
</svg>
