<svg width="24" height="24" viewBox="0 0 24 24" fill="none" xmlns="http://www.w3.org/2000/svg">
<g clip-path="url(#clip0_37_8732)">
<path d="M24 15C24 12.36 21.95 10.22 19.35 10.04C18.67 6.58999 15.64 3.99999 12 3.99999C10.67 3.99999 9.43 4.35999 8.35 4.96999L9.84 6.45999C10.51 6.16999 11.23 5.99999 12 5.99999C15.04 5.99999 17.5 8.45999 17.5 11.5V12H19C20.66 12 22 13.34 22 15C22 15.99 21.52 16.85 20.79 17.4L22.2 18.81C23.29 17.89 24 16.54 24 15ZM4.41 3.85999L3 5.26999L5.77 8.03999H5.35C2.34 8.35999 0 10.91 0 14C0 17.31 2.69 20 6 20H17.73L19.73 22L21.14 20.59L4.41 3.85999ZM6 18C3.79 18 2 16.21 2 14C2 11.79 3.79 9.99999 6 9.99999H7.73L15.73 18H6Z" fill="#323232"/>
</g>
<defs>
<clipPath id="clip0_37_8732">
<rect width="24" height="24" fill="white"/>
</clipPath>
</defs>
</svg>
