<svg width="24" height="24" viewBox="0 0 24 24" fill="none" xmlns="http://www.w3.org/2000/svg">
<g clip-path="url(#clip0_37_10663)">
<path d="M6.36011 18.78L6.61011 21L8.23011 19.46L11.0001 11.86C10.3201 11.69 9.72011 11.35 9.23011 10.88L6.36011 18.78Z" fill="#323232"/>
<path d="M14.77 10.88C14.28 11.35 13.67 11.69 13 11.86L15.77 19.46L17.39 21L17.65 18.78L14.77 10.88Z" fill="#323232"/>
<path d="M15 8C15 6.7 14.16 5.6 13 5.18V3H11V5.18C9.84 5.6 9 6.7 9 8C9 9.66 10.34 11 12 11C13.66 11 15 9.66 15 8ZM12 9C11.45 9 11 8.55 11 8C11 7.45 11.45 7 12 7C12.55 7 13 7.45 13 8C13 8.55 12.55 9 12 9Z" fill="#323232"/>
</g>
<defs>
<clipPath id="clip0_37_10663">
<rect width="24" height="24" fill="white"/>
</clipPath>
</defs>
</svg>
