<svg width="24" height="24" viewBox="0 0 24 24" fill="none" xmlns="http://www.w3.org/2000/svg">
<path d="M5.5 18H8.35V17H5.5V18ZM9 17.35V10.65H8V17.35H9ZM8.35 10H5.5V11H8.35V10ZM4 11.5V16.5H5V11.5H4ZM5.5 10C4.67157 10 4 10.6716 4 11.5H5C5 11.2239 5.22386 11 5.5 11V10ZM9 10.65C9 10.291 8.70899 10 8.35 10V11C8.1567 11 8 10.8433 8 10.65H9ZM8.35 18C8.70898 18 9 17.709 9 17.35H8C8 17.1567 8.1567 17 8.35 17V18ZM5.5 17C5.22386 17 5 16.7761 5 16.5H4C4 17.3284 4.67157 18 5.5 18V17Z" fill="#33363F"/>
<path d="M8.05279 11.2764C7.92929 11.5234 8.0294 11.8237 8.27639 11.9472C8.52338 12.0707 8.82372 11.9706 8.94721 11.7236L8.05279 11.2764ZM13 10.5C13 10.7761 13.2239 11 13.5 11C13.7761 11 14 10.7761 14 10.5H13ZM8.94721 11.7236L10.8416 7.93475L9.94721 7.48754L8.05279 11.2764L8.94721 11.7236ZM11 7.26393V5.5H10V7.26393H11ZM13 6.5V10.5H14V6.5H13ZM11.5 5C12.3284 5 13 5.67157 13 6.5H14C14 5.11929 12.8807 4 11.5 4V5ZM11 5.5C11 5.22386 11.2239 5 11.5 5V4C10.6716 4 10 4.67157 10 5.5H11ZM10.8416 7.93475C10.9458 7.72647 11 7.4968 11 7.26393H10C10 7.34155 9.98193 7.41811 9.94721 7.48754L10.8416 7.93475Z" fill="#33363F"/>
<path d="M11.5 10.5H17.4972C18.1637 10.5 18.6437 11.1397 18.4573 11.7796L16.7098 17.7796C16.5855 18.2065 16.1943 18.5 15.7497 18.5H11.9142C11.649 18.5 11.3946 18.3946 11.2071 18.2071L10.7929 17.7929C10.6054 17.6054 10.351 17.5 10.0858 17.5H8.5" stroke="#33363F" stroke-linecap="round"/>
</svg>
