<svg width="24" height="24" viewBox="0 0 24 24" fill="none" xmlns="http://www.w3.org/2000/svg">
<path d="M18.5 6L15.65 6L15.65 7L18.5 7L18.5 6ZM15 6.65L15 13.35L16 13.35L16 6.65L15 6.65ZM15.65 14L18.5 14L18.5 13L15.65 13L15.65 14ZM20 12.5L20 7.5L19 7.5L19 12.5L20 12.5ZM18.5 14C19.3284 14 20 13.3284 20 12.5L19 12.5C19 12.7761 18.7761 13 18.5 13L18.5 14ZM15 13.35C15 13.709 15.291 14 15.65 14L15.65 13C15.8433 13 16 13.1567 16 13.35L15 13.35ZM15.65 6C15.291 6 15 6.29101 15 6.65L16 6.65C16 6.8433 15.8433 7 15.65 7L15.65 6ZM18.5 7C18.7761 7 19 7.22386 19 7.5L20 7.5C20 6.67157 19.3284 6 18.5 6L18.5 7Z" fill="#33363F"/>
<path d="M15.9472 12.7236C16.0707 12.4766 15.9706 12.1763 15.7236 12.0528C15.4766 11.9293 15.1763 12.0294 15.0528 12.2764L15.9472 12.7236ZM11 13.5C11 13.2239 10.7761 13 10.5 13C10.2239 13 10 13.2239 10 13.5L11 13.5ZM15.0528 12.2764L13.1584 16.0652L14.0528 16.5125L15.9472 12.7236L15.0528 12.2764ZM13 16.7361L13 18.5L14 18.5L14 16.7361L13 16.7361ZM11 17.5L11 13.5L10 13.5L10 17.5L11 17.5ZM12.5 19C11.6716 19 11 18.3284 11 17.5L10 17.5C10 18.8807 11.1193 20 12.5 20L12.5 19ZM13 18.5C13 18.7761 12.7761 19 12.5 19L12.5 20C13.3284 20 14 19.3284 14 18.5L13 18.5ZM13.1584 16.0652C13.0542 16.2735 13 16.5032 13 16.7361L14 16.7361C14 16.6584 14.0181 16.5819 14.0528 16.5125L13.1584 16.0652Z" fill="#33363F"/>
<path d="M12.5 13.5L6.5028 13.5C5.83629 13.5 5.35632 12.8603 5.54269 12.2204L7.29019 6.22037C7.41451 5.79352 7.80571 5.5 8.2503 5.5L12.0858 5.5C12.351 5.5 12.6054 5.60536 12.7929 5.79289L13.2071 6.20711C13.3946 6.39464 13.649 6.5 13.9142 6.5L15.5 6.5" stroke="#33363F" stroke-linecap="round"/>
</svg>
