<svg width="24" height="24" viewBox="0 0 24 24" fill="none" xmlns="http://www.w3.org/2000/svg">
<path d="M12 16V19.5" stroke="#33363F" stroke-width="1.6" stroke-linecap="round" stroke-linejoin="round"/>
<path d="M7.22113 13.5141L6.84328 13.1866L6.84328 13.1866L7.22113 13.5141ZM10.7 9.5V9C10.555 9 10.4171 9.06295 10.3222 9.17253L10.7 9.5ZM16.7789 13.5141L16.401 13.8415L16.401 13.8415L16.7789 13.5141ZM13.3 9.5L13.6778 9.17253C13.5829 9.06295 13.445 9 13.3 9V9.5ZM7.59897 13.8415L11.0778 9.82747L10.3222 9.17253L6.84328 13.1866L7.59897 13.8415ZM8.12796 15C7.52811 15 7.20611 14.2948 7.59897 13.8415L6.84328 13.1866C5.8892 14.2875 6.67118 16 8.12796 16V15ZM15.872 15H8.12796V16H15.872V15ZM16.401 13.8415C16.7939 14.2948 16.4719 15 15.872 15V16C17.3288 16 18.1108 14.2875 17.1567 13.1866L16.401 13.8415ZM12.9222 9.82747L16.401 13.8415L17.1567 13.1866L13.6778 9.17253L12.9222 9.82747ZM13.3 9H10.7V10H13.3V9Z" fill="#33363F"/>
<path d="M15.6567 7.48913L15.2881 7.82699L15.6567 7.48913ZM10.8943 3.96631L7.97472 7.15127L8.71188 7.82699L11.6314 4.64203L10.8943 3.96631ZM9.22788 10H14.7721V9H9.22788V10ZM16.0253 7.15127L13.1057 3.96631L12.3686 4.64203L15.2881 7.82699L16.0253 7.15127ZM14.7721 10C16.2513 10 17.0248 8.24165 16.0253 7.15127L15.2881 7.82699C15.6997 8.27597 15.3812 9 14.7721 9V10ZM7.97472 7.15127C6.97521 8.24165 7.7487 10 9.22788 10V9C8.61881 9 8.30031 8.27597 8.71188 7.82699L7.97472 7.15127ZM11.6314 4.64203C11.8296 4.42585 12.1704 4.42585 12.3686 4.64203L13.1057 3.96631C12.5112 3.31776 11.4888 3.31775 10.8943 3.96631L11.6314 4.64203Z" fill="#33363F"/>
</svg>
