<svg width="24" height="24" viewBox="0 0 24 24" fill="none" xmlns="http://www.w3.org/2000/svg">
<g clip-path="url(#clip0_37_8884)">
<path d="M20 9.00001C19.96 4.61001 16.4 1.07001 12 1.07001C7.6 1.07001 4.04 4.61001 4 9.00001V15C4 19.42 7.58 23 12 23C16.42 23 20 19.42 20 15V9.00001ZM18 9.00001H13V3.16001C15.81 3.63001 17.96 6.06001 18 9.00001ZM11 3.16001V9.00001H6C6.04 6.06001 8.19 3.63001 11 3.16001ZM18 15C18 18.31 15.31 21 12 21C8.69 21 6 18.31 6 15V11H18V15Z" fill="#323232"/>
</g>
<defs>
<clipPath id="clip0_37_8884">
<rect width="24" height="24" fill="white"/>
</clipPath>
</defs>
</svg>
