<svg width="24" height="24" viewBox="0 0 24 24" fill="none" xmlns="http://www.w3.org/2000/svg">
<path d="M15.29 8.85L10.56 13.59L8.71 11.73C8.5217 11.5417 8.2663 11.4359 8 11.4359C7.7337 11.4359 7.47831 11.5417 7.29 11.73C7.1017 11.9183 6.99591 12.1737 6.99591 12.44C6.99591 12.5719 7.02188 12.7024 7.07234 12.8242C7.1228 12.9461 7.19676 13.0568 7.29 13.15L9.85 15.71C9.94297 15.8037 10.0536 15.8781 10.1754 15.9289C10.2973 15.9797 10.428 16.0058 10.56 16.0058C10.692 16.0058 10.8227 15.9797 10.9446 15.9289C11.0664 15.8781 11.177 15.8037 11.27 15.71L16.71 10.27C16.8032 10.1768 16.8772 10.0661 16.9277 9.94425C16.9781 9.82243 17.0041 9.69186 17.0041 9.56C17.0041 9.42814 16.9781 9.29757 16.9277 9.17575C16.8772 9.05393 16.8032 8.94324 16.71 8.85C16.6168 8.75676 16.5061 8.6828 16.3843 8.63234C16.2624 8.58188 16.1319 8.55591 16 8.55591C15.8681 8.55591 15.7376 8.58188 15.6158 8.63234C15.4939 8.6828 15.3832 8.75676 15.29 8.85ZM12 2C10.6868 2 9.38642 2.25866 8.17317 2.7612C6.95991 3.26375 5.85752 4.00035 4.92894 4.92893C3.05357 6.8043 2 9.34784 2 12C1.99126 14.3091 2.7908 16.5485 4.26 18.33L2.26 20.33C2.12125 20.4706 2.02725 20.6492 1.98988 20.8432C1.9525 21.0372 1.97342 21.2379 2.05 21.42C2.13306 21.5999 2.26771 21.7511 2.43685 21.8544C2.60599 21.9577 2.802 22.0083 3 22H12C14.6522 22 17.1957 20.9464 19.0711 19.0711C20.9464 17.1957 22 14.6522 22 12C22 9.34784 20.9464 6.8043 19.0711 4.92893C17.1957 3.05357 14.6522 2 12 2ZM12 20H5.41L6.34 19.07C6.52625 18.8826 6.6308 18.6292 6.6308 18.365C6.6308 18.1008 6.52625 17.8474 6.34 17.66C5.03059 16.352 4.21518 14.6305 4.03269 12.7888C3.85021 10.947 4.31195 9.09901 5.33923 7.55952C6.36652 6.02004 7.89579 4.88436 9.66652 4.34597C11.4372 3.80759 13.3399 3.8998 15.0502 4.60691C16.7606 5.31402 18.1729 6.59227 19.0464 8.22389C19.92 9.85551 20.2009 11.7395 19.8411 13.555C19.4814 15.3705 18.5033 17.005 17.0735 18.1802C15.6438 19.3554 13.8508 19.9985 12 20Z" fill="black"/>
</svg>
