<svg width="24" height="24" viewBox="0 0 24 24" fill="none" xmlns="http://www.w3.org/2000/svg">
<path d="M5 11C5.26522 11 5.51957 10.8947 5.70711 10.7071C5.89464 10.5196 6 10.2652 6 10V6.00002C6 5.7348 5.89464 5.48045 5.70711 5.29291C5.51957 5.10537 5.26522 5.00002 5 5.00002C4.73478 5.00002 4.48043 5.10537 4.29289 5.29291C4.10536 5.48045 4 5.7348 4 6.00002V10C4 10.2652 4.10536 10.5196 4.29289 10.7071C4.48043 10.8947 4.73478 11 5 11ZM4.29 3.71002C4.43063 3.84878 4.6092 3.94277 4.80319 3.98015C4.99718 4.01752 5.19789 3.9966 5.38 3.92002C5.50119 3.86938 5.6128 3.79835 5.71 3.71002C5.79833 3.61282 5.86936 3.5012 5.92 3.38002C5.97598 3.26134 6.00338 3.13119 6 3.00002C6.00076 2.86841 5.97554 2.73795 5.92577 2.61611C5.87601 2.49427 5.80268 2.38346 5.71 2.29002C5.56938 2.15126 5.3908 2.05726 5.19682 2.01989C5.00283 1.98252 4.80211 2.00344 4.62 2.08002C4.49725 2.12761 4.38511 2.19898 4.29 2.29002C4.19732 2.38346 4.12399 2.49427 4.07423 2.61611C4.02447 2.73795 3.99924 2.86841 4 3.00002C4.00158 3.13069 4.02876 3.2598 4.08 3.38002C4.13064 3.5012 4.20167 3.61282 4.29 3.71002ZM17 6.00002H9C8.73479 6.00002 8.48043 6.10537 8.29289 6.29291C8.10536 6.48045 8 6.7348 8 7.00002C8 7.26523 8.10536 7.51959 8.29289 7.70712C8.48043 7.89466 8.73479 8.00002 9 8.00002H17C17.2652 8.00002 17.5196 8.10537 17.7071 8.29291C17.8946 8.48045 18 8.7348 18 9.00002V18.72L16.43 17.27C16.2456 17.0974 16.0026 17.0009 15.75 17H7C6.73478 17 6.48043 16.8947 6.29289 16.7071C6.10536 16.5196 6 16.2652 6 16V14C6 13.7348 5.89464 13.4804 5.70711 13.2929C5.51957 13.1054 5.26522 13 5 13C4.73478 13 4.48043 13.1054 4.29289 13.2929C4.10536 13.4804 4 13.7348 4 14V16C4 16.7957 4.31607 17.5587 4.87868 18.1213C5.44129 18.6839 6.20435 19 7 19H15.36L18.36 21.73C18.5342 21.8936 18.7613 21.9894 19 22C19.1372 21.9985 19.2728 21.9714 19.4 21.92C19.5789 21.8419 19.731 21.7132 19.8376 21.5498C19.9442 21.3863 20.0007 21.1952 20 21V9.00002C20 8.20437 19.6839 7.44131 19.1213 6.8787C18.5587 6.31609 17.7957 6.00002 17 6.00002Z" fill="black"/>
</svg>
