<svg width="24" height="24" viewBox="0 0 24 24" fill="none" xmlns="http://www.w3.org/2000/svg">
<path d="M11 11H17C17.2652 11 17.5196 10.8946 17.7071 10.7071C17.8946 10.5196 18 10.2652 18 10C18 9.73478 17.8946 9.48043 17.7071 9.29289C17.5196 9.10536 17.2652 9 17 9H11C10.7348 9 10.4804 9.10536 10.2929 9.29289C10.1054 9.48043 10 9.73478 10 10C10 10.2652 10.1054 10.5196 10.2929 10.7071C10.4804 10.8946 10.7348 11 11 11ZM7 9C6.80222 9 6.60888 9.05865 6.44443 9.16853C6.27998 9.27841 6.15181 9.43459 6.07612 9.61732C6.00044 9.80004 5.98063 10.0011 6.01922 10.1951C6.0578 10.3891 6.15304 10.5673 6.2929 10.7071C6.43275 10.847 6.61093 10.9422 6.80491 10.9808C6.99889 11.0194 7.19996 10.9996 7.38269 10.9239C7.56541 10.8482 7.72159 10.72 7.83147 10.5556C7.94135 10.3911 8 10.1978 8 10C8 9.73478 7.89465 9.48043 7.70711 9.29289C7.51957 9.10536 7.26522 9 7 9ZM7 13C6.80222 13 6.60888 13.0586 6.44443 13.1685C6.27998 13.2784 6.15181 13.4346 6.07612 13.6173C6.00044 13.8 5.98063 14.0011 6.01922 14.1951C6.0578 14.3891 6.15304 14.5673 6.2929 14.7071C6.43275 14.847 6.61093 14.9422 6.80491 14.9808C6.99889 15.0194 7.19996 14.9996 7.38269 14.9239C7.56541 14.8482 7.72159 14.72 7.83147 14.5556C7.94135 14.3911 8 14.1978 8 14C8 13.7348 7.89465 13.4804 7.70711 13.2929C7.51957 13.1054 7.26522 13 7 13ZM12 2C10.6868 2 9.38642 2.25866 8.17317 2.7612C6.95991 3.26375 5.85752 4.00035 4.92894 4.92893C3.05357 6.8043 2 9.34784 2 12C1.99126 14.3091 2.7908 16.5485 4.26 18.33L2.26 20.33C2.12125 20.4706 2.02725 20.6492 1.98988 20.8432C1.9525 21.0372 1.97342 21.2379 2.05 21.42C2.13306 21.5999 2.26771 21.7511 2.43685 21.8544C2.60599 21.9577 2.802 22.0083 3 22H12C14.6522 22 17.1957 20.9464 19.0711 19.0711C20.9464 17.1957 22 14.6522 22 12C22 9.34784 20.9464 6.8043 19.0711 4.92893C17.1957 3.05357 14.6522 2 12 2ZM12 20H5.41L6.34 19.07C6.43449 18.9774 6.50966 18.8669 6.56116 18.7451C6.61265 18.6232 6.63945 18.4923 6.64 18.36C6.63625 18.0962 6.52842 17.8446 6.34 17.66C5.03059 16.352 4.21518 14.6305 4.03269 12.7888C3.85021 10.947 4.31195 9.09901 5.33923 7.55952C6.36652 6.02004 7.89579 4.88436 9.66652 4.34597C11.4372 3.80759 13.3399 3.8998 15.0502 4.60691C16.7606 5.31402 18.1729 6.59227 19.0464 8.22389C19.92 9.85551 20.2009 11.7395 19.8411 13.555C19.4814 15.3705 18.5033 17.005 17.0735 18.1802C15.6438 19.3554 13.8508 19.9985 12 20ZM17 13H11C10.7348 13 10.4804 13.1054 10.2929 13.2929C10.1054 13.4804 10 13.7348 10 14C10 14.2652 10.1054 14.5196 10.2929 14.7071C10.4804 14.8946 10.7348 15 11 15H17C17.2652 15 17.5196 14.8946 17.7071 14.7071C17.8946 14.5196 18 14.2652 18 14C18 13.7348 17.8946 13.4804 17.7071 13.2929C17.5196 13.1054 17.2652 13 17 13Z" fill="black"/>
</svg>
