<svg width="24" height="24" viewBox="0 0 24 24" fill="none" xmlns="http://www.w3.org/2000/svg">
<path d="M6.29 10.3C6.12698 10.4637 6.02568 10.6789 6.00333 10.9088C5.98097 11.1388 6.03894 11.3694 6.16737 11.5615C6.2958 11.7535 6.48678 11.8952 6.70784 11.9624C6.92891 12.0295 7.16641 12.0181 7.38 11.93C7.50153 11.8756 7.61308 11.8013 7.71 11.71C7.79995 11.6178 7.87126 11.5092 7.92 11.39C7.97716 11.2682 8.00458 11.1345 8 11C7.9989 10.7377 7.89474 10.4863 7.71 10.3C7.61704 10.2063 7.50644 10.1319 7.38458 10.0811C7.26272 10.0303 7.13201 10.0042 7 10.0042C6.86799 10.0042 6.73728 10.0303 6.61542 10.0811C6.49356 10.1319 6.38296 10.2063 6.29 10.3ZM7 5C7.26522 5 7.51957 5.10536 7.70711 5.29289C7.89464 5.48043 8 5.73478 8 6C8 6.26522 7.89464 6.51957 7.70711 6.70711C7.51957 6.89464 7.26522 7 7 7C6.73478 7 6.48043 7.10536 6.29289 7.29289C6.10536 7.48043 6 7.73478 6 8C6 8.26522 6.10536 8.51957 6.29289 8.70711C6.48043 8.89464 6.73478 9 7 9C7.52653 8.99966 8.04369 8.86075 8.49953 8.59723C8.95537 8.33371 9.33383 7.95486 9.59687 7.49875C9.85992 7.04264 9.99829 6.52533 9.99808 5.9988C9.99786 5.47227 9.85908 4.95507 9.59567 4.49917C9.33226 4.04326 8.9535 3.66472 8.49745 3.40156C8.0414 3.13841 7.52412 2.99992 6.9976 3C6.47107 3.00008 5.95383 3.13874 5.49787 3.40204C5.0419 3.66534 4.66326 4.04401 4.4 4.5C4.33388 4.61413 4.29099 4.74022 4.27381 4.871C4.25663 5.00178 4.26549 5.13466 4.29988 5.262C4.33427 5.38934 4.39351 5.50862 4.4742 5.61297C4.55488 5.71732 4.65541 5.80467 4.77 5.87C4.99962 6.00037 5.27148 6.03464 5.52626 5.96532C5.78105 5.896 5.99808 5.72873 6.13 5.5C6.2181 5.34739 6.34497 5.22078 6.49775 5.13298C6.65052 5.04517 6.82379 4.9993 7 5ZM19 6H13C12.7348 6 12.4804 6.10536 12.2929 6.29289C12.1054 6.48043 12 6.73478 12 7C12 7.26522 12.1054 7.51957 12.2929 7.70711C12.4804 7.89464 12.7348 8 13 8H19C19.2652 8 19.5196 8.10536 19.7071 8.29289C19.8946 8.48043 20 8.73478 20 9V18.72L18.43 17.27C18.2456 17.0973 18.0026 17.0009 17.75 17H9C8.73478 17 8.48043 16.8946 8.29289 16.7071C8.10536 16.5196 8 16.2652 8 16V15C8 14.7348 7.89464 14.4804 7.70711 14.2929C7.51957 14.1054 7.26522 14 7 14C6.73478 14 6.48043 14.1054 6.29289 14.2929C6.10536 14.4804 6 14.7348 6 15V16C6 16.7956 6.31607 17.5587 6.87868 18.1213C7.44129 18.6839 8.20435 19 9 19H17.36L20.36 21.73C20.5342 21.8936 20.7613 21.9894 21 22C21.1372 21.9985 21.2728 21.9714 21.4 21.92C21.5789 21.8419 21.731 21.7132 21.8376 21.5497C21.9442 21.3863 22.0007 21.1952 22 21V9C22 8.20435 21.6839 7.44129 21.1213 6.87868C20.5587 6.31607 19.7956 6 19 6Z" fill="black"/>
</svg>
