<svg width="24" height="24" viewBox="0 0 24 24" fill="none" xmlns="http://www.w3.org/2000/svg">
<g clip-path="url(#clip0_37_7799)">
<path d="M1.41 1.69L0 3.1L1 4.09V16C1 17.1 1.89 18 2.99 18H10V20H8V22H16V20H14V18H14.9L20.9 24L22.31 22.59L1.41 1.69ZM2.99 16V6.09L12.9 16H2.99ZM4.55 2L6.55 4H21V16H18.55L20.55 18H20.99C22.09 18 22.99 17.1 22.99 16V4C22.99 2.9 22.09 2 20.99 2H4.55Z" fill="#323232"/>
</g>
<defs>
<clipPath id="clip0_37_7799">
<rect width="24" height="24" fill="white"/>
</clipPath>
</defs>
</svg>
