<svg width="24" height="24" viewBox="0 0 24 24" fill="none" xmlns="http://www.w3.org/2000/svg">
<g clip-path="url(#clip0_37_7808)">
<path d="M1.41 1.69L0 3.1L2 5.1V21H17.9L20.9 24L22.31 22.59L1.41 1.69ZM6 19H4V17H6V19ZM6 15H4V13H6V15ZM4 11V9H6V11H4ZM10 19H8V17H10V19ZM8 15V13H10V15H8ZM12 19V17H13.9L15.9 19H12ZM8 5H10V7H9.55L12 9.45V9H20V17.45L22 19.45V7H12V3H5.55L8 5.45V5ZM16 11H18V13H16V11Z" fill="#323232"/>
</g>
<defs>
<clipPath id="clip0_37_7808">
<rect width="24" height="24" fill="white"/>
</clipPath>
</defs>
</svg>
