<svg width="24" height="24" viewBox="0 0 24 24" fill="none" xmlns="http://www.w3.org/2000/svg">
<path d="M21.71 4.72006L19.28 2.29006C19.0926 2.10381 18.8392 1.99927 18.575 1.99927C18.3108 1.99927 18.0574 2.10381 17.87 2.29006L12.29 7.87006C12.1973 7.9635 12.124 8.07432 12.0742 8.19615C12.0245 8.31799 11.9992 8.44845 12 8.58006V11.0001C12 11.2653 12.1054 11.5196 12.2929 11.7072C12.4804 11.8947 12.7348 12.0001 13 12.0001H15.42C15.5516 12.0008 15.6821 11.9756 15.8039 11.9258C15.9257 11.8761 16.0366 11.8027 16.13 11.7101L21.71 6.13006C21.8963 5.9427 22.0008 5.68925 22.0008 5.42506C22.0008 5.16087 21.8963 4.90742 21.71 4.72006ZM15 10.0001H14V9.00006L18.58 4.42006L19.58 5.42006L15 10.0001ZM19 12.0001C18.7348 12.0001 18.4804 12.1054 18.2929 12.293C18.1054 12.4805 18 12.7348 18 13.0001C18 14.8566 17.2625 16.6371 15.9497 17.9498C14.637 19.2626 12.8565 20.0001 11 20.0001H5.41L6.05 19.3701C6.14373 19.2771 6.21812 19.1665 6.26889 19.0446C6.31966 18.9228 6.3458 18.7921 6.3458 18.6601C6.3458 18.528 6.31966 18.3973 6.26889 18.2755C6.21812 18.1536 6.14373 18.043 6.05 17.9501C5.07093 16.9711 4.40417 15.7238 4.13403 14.3658C3.86389 13.0079 4.00251 11.6004 4.53237 10.3212C5.06222 9.04206 5.95951 7.94878 7.11075 7.17961C8.26198 6.41045 9.61546 5.99996 11 6.00006C11.2652 6.00006 11.5196 5.8947 11.7071 5.70717C11.8946 5.51963 12 5.26528 12 5.00006C12 4.73484 11.8946 4.48049 11.7071 4.29295C11.5196 4.10542 11.2652 4.00006 11 4.00006C9.30747 4.00562 7.6508 4.48834 6.22019 5.3928C4.78957 6.29726 3.64299 7.58679 2.91207 9.11338C2.18115 10.64 1.89551 12.3417 2.08795 14.0233C2.28038 15.7048 2.94309 17.2981 4 18.6201L2.29 20.2901C2.15124 20.4307 2.05725 20.6093 2.01987 20.8032C1.9825 20.9972 2.00342 21.1979 2.08 21.3801C2.15502 21.5627 2.28242 21.719 2.44614 21.8293C2.60986 21.9397 2.80258 21.9991 3 22.0001H11C12.1819 22.0001 13.3522 21.7673 14.4442 21.315C15.5361 20.8627 16.5282 20.1997 17.364 19.364C18.1997 18.5283 18.8626 17.5361 19.3149 16.4442C19.7672 15.3523 20 14.182 20 13.0001C20 12.7348 19.8946 12.4805 19.7071 12.293C19.5196 12.1054 19.2652 12.0001 19 12.0001Z" fill="black"/>
</svg>
