<svg width="24" height="24" viewBox="0 0 24 24" fill="none" xmlns="http://www.w3.org/2000/svg">
<g clip-path="url(#clip0_37_7847)">
<path d="M12 5.1V9.15L19.4 16.55C20.55 13.67 19.99 10.27 17.65 7.94L12 2.27L8.55999 5.71L9.96999 7.12L12 5.1ZM4.39999 4.37L2.98999 5.78L5.76999 8.56C3.22999 11.7 3.41999 16.31 6.33999 19.24C7.89999 20.8 9.94999 21.58 12 21.58C13.78 21.58 15.56 20.99 17.02 19.81L19.72 22.51L21.13 21.1L4.39999 4.37ZM12 19.59C10.4 19.59 8.88999 18.97 7.75999 17.83C6.61999 16.69 5.99999 15.19 5.99999 13.59C5.99999 12.27 6.42999 11.03 7.20999 10L12 14.79V19.59Z" fill="#323232"/>
</g>
<defs>
<clipPath id="clip0_37_7847">
<rect width="24" height="24" fill="white"/>
</clipPath>
</defs>
</svg>
