<svg width="24" height="24" viewBox="0 0 24 24" fill="none" xmlns="http://www.w3.org/2000/svg">
<g clip-path="url(#clip0_37_7909)">
<path d="M15 6.00001C16.1 6.00001 17 6.90001 17 8.00001C17 8.99001 16.27 9.82001 15.33 9.97001L13.02 7.66001C13.19 6.72001 14.01 6.00001 15 6.00001ZM15 4.00001C12.79 4.00001 11 5.79001 11 8.00001C11 8.18001 11.03 8.35001 11.05 8.52001L14.48 11.95C14.65 11.97 14.82 12 15 12C17.21 12 19 10.21 19 8.00001C19 5.79001 17.21 4.00001 15 4.00001ZM16.69 14.16L22.53 20H23V18C23 15.86 19.44 14.5 16.69 14.16ZM13.01 16.13L14.88 18H9C9.08 17.76 9.88 16.99 11.91 16.43L13.01 16.13ZM1.41 1.71001L0 3.12001L4 7.12001V10H1V12H4V15H6V12H8.88L11.39 14.51C9.19 15.11 7 16.3 7 18V20H16.88L20.88 24L22.29 22.59L1.41 1.71001ZM6 10V9.12001L6.88 10H6Z" fill="#323232"/>
</g>
<defs>
<clipPath id="clip0_37_7909">
<rect width="24" height="24" fill="white"/>
</clipPath>
</defs>
</svg>
