<svg width="24" height="24" viewBox="0 0 24 24" fill="none" xmlns="http://www.w3.org/2000/svg">
<g clip-path="url(#clip0_37_7935)">
<path d="M17.34 14.54L15.91 13.11C16.47 12.38 16.96 11.61 17.38 10.79L15.18 8.59C14.9 8.31 14.82 7.92 14.93 7.57C15.3 6.45 15.5 5.25 15.5 4C15.5 3.45 15.95 3 16.5 3H20C20.55 3 21 3.45 21 4C21 7.98 19.63 11.64 17.34 14.54ZM14.52 17.35C11.63 19.64 7.97001 21 4.00001 21C3.45001 21 3.00001 20.55 3.00001 20V16.51C3.00001 15.96 3.45001 15.51 4.00001 15.51C5.24001 15.51 6.45002 15.31 7.57001 14.94C7.67001 14.9 7.78001 14.89 7.88001 14.89C8.14001 14.89 8.39002 14.99 8.59001 15.18L10.79 17.38C11.6 16.96 12.37 16.48 13.09 15.92L1.39001 4.22L2.81001 2.81L21.19 21.2L19.78 22.61L14.52 17.35ZM7.60001 17.02C6.75001 17.26 5.88001 17.41 5.00001 17.47V18.96C6.32001 18.87 7.59001 18.61 8.80001 18.21L7.60001 17.02ZM17.46 5C17.4 5.89 17.25 6.76 17.01 7.59L18.21 8.79C18.62 7.59 18.88 6.32 18.97 5H17.46Z" fill="#323232"/>
</g>
<defs>
<clipPath id="clip0_37_7935">
<rect width="24" height="24" fill="white"/>
</clipPath>
</defs>
</svg>
