<svg width="24" height="24" viewBox="0 0 24 24" fill="none" xmlns="http://www.w3.org/2000/svg">
<g clip-path="url(#clip0_37_7951)">
<path d="M1.41 1.60001L0 3.01001L5 8.00001C3.34 8.00001 2 9.34001 2 11V17H6V21H18L20.95 23.96L22.36 22.55L1.41 1.60001ZM6 15H4V11C4 10.45 4.45 10 5 10H7L10 13H6V15ZM8 19V15H12L16 19H8ZM8 5.00001H16V8.00001H10.66L12.66 10H19C19.55 10 20 10.45 20 11V15L18 15.01V13H15.66L19.66 17H22V11C22 9.34001 20.66 8.00001 19 8.00001H18V3.00001H6V3.36001L8 5.36001V5.00001Z" fill="#323232"/>
<path d="M18 12.51C18.5523 12.51 19 12.0623 19 11.51C19 10.9577 18.5523 10.51 18 10.51C17.4477 10.51 17 10.9577 17 11.51C17 12.0623 17.4477 12.51 18 12.51Z" fill="#323232"/>
</g>
<defs>
<clipPath id="clip0_37_7951">
<rect width="24" height="24" fill="white"/>
</clipPath>
</defs>
</svg>
