<svg width="24" height="24" viewBox="0 0 24 24" fill="none" xmlns="http://www.w3.org/2000/svg">
<path fill-rule="evenodd" clip-rule="evenodd" d="M14.5868 6.58468C14.9487 6.22336 15.4482 5.99994 16 5.99994C17.1046 5.99994 18 6.89537 18 7.99994C18 8.55169 17.7766 9.05126 17.4153 9.41311C16.824 8.17759 15.8223 7.17594 14.5868 6.58468ZM10.2571 6.25701C10.5118 5.41662 10.9459 4.65423 11.5149 4.0144C7.32249 4.26517 4 7.74455 4 11.9999C4 16.4182 7.58172 19.9999 12 19.9999C16.2554 19.9999 19.7348 16.6774 19.9855 12.4851C19.3457 13.054 18.5833 13.4882 17.7429 13.7429C16.9962 16.2066 14.7075 17.9999 12 17.9999C8.68629 17.9999 6 15.3136 6 11.9999C6 9.2924 7.79338 7.00373 10.2571 6.25701Z" fill="#33363F"/>
<circle cx="16" cy="8" r="4" fill="#33363F"/>
</svg>
