<svg width="24" height="24" viewBox="0 0 24 24" fill="none" xmlns="http://www.w3.org/2000/svg">
<g clip-path="url(#clip0_37_8013)">
<path d="M21.79 18L23.79 20H24V18H21.79ZM1.11 2.98001L2.66 4.54001C2.25 4.91001 2 5.43001 2 6.02001V16C2 17.1 2.9 18 4.01 18H0V20H18.13L20.84 22.71L22.25 21.3L2.52 1.57001L1.11 2.98001ZM4 6.02001H4.13L9.08 10.95C7.94 12.07 7.31 13.52 7 15C7.96 13.71 9.13 12.92 10.67 12.54L14.13 16.02H4V6.02001ZM20 6.02001V16.21L21.3 17.51C21.72 17.14 22 16.62 22 16.02V6.02001C22 4.91001 21.1 4.02001 20 4.02001H7.8L9.8 6.02001H20ZM12.93 9.15001L15.72 11.93L17 10.73L13 7.00001V9.13001L12.93 9.15001Z" fill="#323232"/>
</g>
<defs>
<clipPath id="clip0_37_8013">
<rect width="24" height="24" fill="white"/>
</clipPath>
</defs>
</svg>
