<svg width="24" height="24" viewBox="0 0 24 24" fill="none" xmlns="http://www.w3.org/2000/svg">
<path d="M21.71 2.29C21.617 2.19627 21.5064 2.12188 21.3846 2.07111C21.2627 2.02034 21.132 1.9942 21 1.9942C20.868 1.9942 20.7373 2.02034 20.6154 2.07111C20.4936 2.12188 20.383 2.19627 20.29 2.29L18.17 4.41L17.46 3.71C17.2726 3.52375 17.0192 3.41921 16.755 3.41921C16.4908 3.41921 16.2374 3.52375 16.05 3.71L14.64 5.12L13.93 4.41C13.837 4.31627 13.7264 4.24188 13.6046 4.19111C13.4827 4.14034 13.352 4.1142 13.22 4.1142C13.088 4.1142 12.9573 4.14034 12.8354 4.19111C12.7136 4.24188 12.603 4.31627 12.51 4.41L4.74 12.19L4 11.49C3.80591 11.3544 3.56998 11.292 3.3342 11.314C3.09843 11.336 2.87812 11.441 2.71249 11.6102C2.54686 11.7794 2.44666 12.002 2.42972 12.2381C2.41279 12.4743 2.48021 12.7089 2.62 12.9L6.15 16.44L4.42 18.18L3.71 17.46C3.5217 17.2717 3.2663 17.1659 3 17.1659C2.7337 17.1659 2.47831 17.2717 2.29 17.46C2.1017 17.6483 1.99591 17.9037 1.99591 18.17C1.99591 18.4363 2.1017 18.6917 2.29 18.88L5.12 21.71C5.21344 21.8027 5.32426 21.876 5.4461 21.9258C5.56793 21.9755 5.6984 22.0008 5.83 22C5.96161 22.0008 6.09207 21.9755 6.21391 21.9258C6.33575 21.876 6.44656 21.8027 6.54 21.71C6.63373 21.617 6.70813 21.5064 6.75889 21.3846C6.80966 21.2627 6.8358 21.132 6.8358 21C6.8358 20.868 6.80966 20.7373 6.75889 20.6154C6.70813 20.4936 6.63373 20.383 6.54 20.29L5.83 19.59L7.57 17.85L11.1 21.38C11.1926 21.4745 11.3031 21.5497 11.4249 21.6012C11.5468 21.6527 11.6777 21.6795 11.81 21.68C12.0078 21.6792 12.2009 21.6197 12.3648 21.5092C12.5288 21.3986 12.6563 21.2419 12.7313 21.0589C12.8062 20.8758 12.8252 20.6747 12.7858 20.4809C12.7464 20.2871 12.6504 20.1093 12.51 19.97L11.81 19.26L19.59 11.49C19.6837 11.397 19.7581 11.2864 19.8089 11.1646C19.8597 11.0427 19.8858 10.912 19.8858 10.78C19.8858 10.648 19.8597 10.5173 19.8089 10.3954C19.7581 10.2736 19.6837 10.163 19.59 10.07L18.88 9.36L20.29 8C20.4763 7.81264 20.5808 7.55919 20.5808 7.295C20.5808 7.03081 20.4763 6.77736 20.29 6.59L19.59 5.88L21.71 3.76C21.8115 3.66636 21.8925 3.55271 21.9479 3.42621C22.0033 3.29971 22.0319 3.1631 22.0319 3.025C22.0319 2.8869 22.0033 2.75029 21.9479 2.62379C21.8925 2.49729 21.8115 2.38364 21.71 2.29ZM7.57 15L6.15 13.61L7.56 12.19L9 13.61L7.57 15ZM10.39 17.83L9 16.44L10.39 15L11.81 16.42L10.39 17.83ZM13.22 15L9 10.78L13.24 6.54L13.95 7.24L17.48 10.78L13.22 15ZM17.46 8L16.05 6.54L16.76 5.83L17.46 6.53L18.16 7.23L17.46 8Z" fill="black"/>
</svg>
