<svg width="24" height="24" viewBox="0 0 24 24" fill="none" xmlns="http://www.w3.org/2000/svg">
<path d="M16.29 6.29003L9.29 13.29C9.19627 13.383 9.12188 13.4936 9.07111 13.6154C9.02034 13.7373 8.9942 13.868 8.9942 14C8.9942 14.132 9.02034 14.2627 9.07111 14.3846C9.12188 14.5065 9.19627 14.6171 9.29 14.71C9.38296 14.8038 9.49356 14.8781 9.61542 14.9289C9.73728 14.9797 9.86799 15.0058 10 15.0058C10.132 15.0058 10.2627 14.9797 10.3846 14.9289C10.5064 14.8781 10.617 14.8038 10.71 14.71L17.71 7.71003C17.8983 7.52172 18.0041 7.26633 18.0041 7.00003C18.0041 6.73373 17.8983 6.47833 17.71 6.29003C17.5217 6.10172 17.2663 5.99593 17 5.99593C16.7337 5.99593 16.4783 6.10172 16.29 6.29003ZM20.54 3.46003C20.0755 2.99439 19.5238 2.62497 18.9163 2.3729C18.3089 2.12084 17.6577 1.99109 17 1.99109C16.3423 1.99109 15.6911 2.12084 15.0837 2.3729C14.4762 2.62497 13.9245 2.99439 13.46 3.46003L5.29 11.69C5.10526 11.8763 5.0011 12.1277 5 12.39V17.58L2.29 20.29C2.19627 20.383 2.12188 20.4936 2.07111 20.6154C2.02034 20.7373 1.9942 20.868 1.9942 21C1.9942 21.132 2.02034 21.2627 2.07111 21.3846C2.12188 21.5065 2.19627 21.6171 2.29 21.71C2.38296 21.8038 2.49356 21.8782 2.61542 21.9289C2.73728 21.9797 2.86799 22.0058 3 22.0058C3.13201 22.0058 3.26272 21.9797 3.38458 21.9289C3.50644 21.8782 3.61704 21.8038 3.71 21.71L6.42 19H11.61C11.8723 18.9989 12.1237 18.8948 12.31 18.71L20.54 10.54C21.0056 10.0756 21.3751 9.52381 21.6271 8.91636C21.8792 8.30891 22.0089 7.6577 22.0089 7.00003C22.0089 6.34235 21.8792 5.69114 21.6271 5.08369C21.3751 4.47624 21.0056 3.92448 20.54 3.46003ZM19.12 9.12003L11.2 17H7V12.8L14.88 4.88003C15.4487 4.35011 16.2009 4.06161 16.9781 4.07533C17.7553 4.08904 18.4968 4.40389 19.0465 4.95354C19.5961 5.50319 19.911 6.24473 19.9247 7.02194C19.9384 7.79914 19.6499 8.55133 19.12 9.12003Z" fill="black"/>
</svg>
