<svg version="1.2" xmlns="http://www.w3.org/2000/svg" viewBox="0 0 2760 1840" width="2760" height="1840">
	<title>13038-ai</title>
	<style>
		.s0 { fill: #bdd1ff } 
		.s1 { fill: #283689 } 
		.s2 { fill: #8fa6ef } 
		.s3 { fill: #505aba } 
		.s4 { fill: #2b478b } 
		.s5 { fill: #778de8 } 
		.s6 { fill: #e27227 } 
		.s7 { fill: #1c3870 } 
		.s8 { fill: #8c9df4 } 
		.s9 { fill: #1b376d } 
		.s10 { fill: #f99746 } 
		.s11 { fill: #d86713 } 
		.s12 { fill: #a8d29f } 
		.s13 { fill: #82b378 } 
		.s14 { fill: #dde7fe } 
		.s15 { fill: #ebf2f9 } 
		.s16 { fill: #d5e5fb } 
		.s17 { fill: #e2eefd } 
		.s18 { fill: #9db0f4 } 
		.s19 { fill: #afcdfb } 
		.s20 { fill: #aec3ff } 
		.s21 { fill: #819dea } 
		.s22 { fill: #c5d7ff } 
		.s23 { fill: #d36d1a } 
		.s24 { fill: #f49540 } 
		.s25 { fill: #ffa255 } 
		.s26 { fill: #f8fcff } 
		.s27 { fill: #ed7d2b } 
		.s28 { fill: #131375 } 
		.s29 { fill: #060633 } 
		.s30 { fill: #829ce8 } 
		.s31 { fill: #ed975d } 
		.s32 { fill: #ffb27d } 
		.s33 { fill: #a9453d } 
		.s34 { fill: #7a96e5 } 
		.s35 { fill: #233862 } 
		.s36 { fill: #ef873a } 
		.s37 { fill: #f77d48 } 
		.s38 { fill: #15156d } 
		.s39 { fill: #fa7267 } 
		.s40 { fill: #17152b } 
		.s41 { fill: #ea9963 } 
		.s42 { fill: #6980e2 } 
		.s43 { fill: #9fb1ff } 
		.s44 { fill: #182d4c } 
		.s45 { fill: #ffb583 } 
		.s46 { fill: #ea6c2d } 
		.s47 { fill: #95c38b } 
		.s48 { fill: #b5453c } 
		.s49 { fill: #efcbab } 
		.s50 { fill: #699dee } 
		.s51 { fill: #548ee2 } 
	</style>
	<g id="&lt;Layer&gt;">
		<g id="&lt;Group&gt;">
			<g id="&lt;Group&gt;">
				<path id="&lt;Path&gt;" class="s0" d="m2562.4 1480.9c-6.2 11.4-12.3 21.4-18.2 30.1q-0.2 0.4-0.5 0.8c-16.8 25.1-45.1 40.1-75.2 40.1-161.8 0-720.3-0.1-894.4-0.1 0 0-913.1-2.6-1198.8-3.5-55.9-0.2-106.3-33.3-129-84.4-25.7-58.1-53.6-141.7-56.8-236.4-5.2-150.4 51.8-328.8 277.8-477.6 194.2-127.9-12.2-212.3 142.3-354.7 177.5-163.5 371.2 17.4 568.6-56.7 34.8-13.1 69.8-34.2 104.9-66.6 19.7-18.2 41.3-34.1 64.4-47.8q5.4-3.2 10.8-6.2c13.9-7.7 28.2-14.6 43-20.9q14.9-6.2 30.4-11.6c16.3-5.6 33.2-10.5 50.3-14.6 24.4-5.9 49.5-10.2 75.1-13.2q16.8-1.9 33.8-3c220.5-14.9 468.7 68.5 596.8 190.3 25.8 24.5 143 151.4 50.6 325.9-58.3 110.1 186.1 215.3 273 341.1 54.4 78.7 82.2 151.1 93.2 215.6 18.8 110.2-11.4 197.3-42.1 253.4z"/>
			</g>
			<g id="&lt;Group&gt;">
				<path id="&lt;Path&gt;" class="s1" d="m1014.7 1227.8l-4.8-0.6c0.2-0.9 3-21 22.8-33.6 17.6-11.1 11.6-45.8 11.5-46.1l4.7-0.9c0.1 0.4 1.7 9.6 0.9 20.4-1 14.7-6 25.3-14.5 30.7-18 11.3-20.6 29.9-20.6 30.1z"/>
			</g>
			<g id="&lt;Group&gt;">
				<path id="&lt;Path&gt;" class="s1" d="m1045.3 1228.6c-0.2-0.2-11.7-21.8 9.1-35 17.2-10.9 1.9-44.6 1.8-44.9l4.3-2c0.2 0.4 4.3 9.4 6.1 20 2.4 14.8-0.9 25.4-9.6 31-17.1 10.7-7.9 27.9-7.5 28.6z"/>
			</g>
			<g id="&lt;Group&gt;">
				<path id="&lt;Path&gt;" class="s2" d="m2562.7 1532.1q-0.6 1.3-1.2 2.7-1.2 2.6-2.4 5.2c-5.4 11.6-10.8 22-15.8 31.2q-0.3 0.5-0.5 0.9c-16.9 30.4-45.1 48.6-75.3 48.6-64.2 0-190.8 0-331.1 0h-19.1c-76.4 0-156.2 0-231.7 0h-22.5c-121.4 0-229.1-0.1-289.9-0.1 0 0-305.8-1-618.8-2.1q-8-0.1-15.9-0.1c-91.2-0.3-182.5-0.6-266.6-0.9q-16.3-0.1-32.3-0.2c-108-0.3-202-0.7-265.2-0.9-44.3-0.2-85.2-25.4-111.5-66.7q-2.1-3.3-4-6.6c-5.2-9.1-9.8-18.7-13.5-29-25.8-70.4-53.6-171.8-56.9-286.6h2415c18.6 131.8-10.6 236.5-40.8 304.6z"/>
			</g>
			<g id="&lt;Group&gt;">
				<g id="&lt;Group&gt;">
					<path id="&lt;Path&gt;" class="s3" d="m2039.7 1468.9h-1358l136.9-139.4h1101.8z"/>
				</g>
				<g id="&lt;Group&gt;">
					<path id="&lt;Path&gt;" class="s4" d="m2039.7 1486.7h-1358v-17.8h1358z"/>
				</g>
				<g id="&lt;Group&gt;">
					<g id="&lt;Group&gt;">
						<g id="&lt;Group&gt;">
							<path id="&lt;Path&gt;" class="s4" d="m1908.8 1363.5h-1082.4v-4.8h1082.4z"/>
						</g>
					</g>
					<g id="&lt;Group&gt;">
						<g id="&lt;Group&gt;">
							<path id="&lt;Path&gt;" class="s4" d="m1937.8 1392.6h-1148.1v-4.8h1148.1z"/>
						</g>
					</g>
					<g id="&lt;Group&gt;">
						<g id="&lt;Group&gt;">
							<path id="&lt;Path&gt;" class="s4" d="m1968.4 1424.8h-1209.2v-4.8h1209.2z"/>
						</g>
					</g>
					<g id="&lt;Group&gt;">
						<path id="&lt;Path&gt;" class="s4" d="m880.8 1351.9h-48.9v-14.7h48.9z"/>
					</g>
					<g id="&lt;Group&gt;">
						<path id="&lt;Path&gt;" class="s4" d="m1255.7 1351.9h-49v-14.7h49z"/>
					</g>
					<g id="&lt;Group&gt;">
						<path id="&lt;Path&gt;" class="s4" d="m1334.4 1351.9h-49v-14.7h49z"/>
					</g>
					<g id="&lt;Group&gt;">
						<path id="&lt;Path&gt;" class="s4" d="m1543.6 1351.9h-48.9v-14.7h48.9z"/>
					</g>
					<g id="&lt;Group&gt;">
						<path id="&lt;Path&gt;" class="s4" d="m1616.4 1351.9h-49v-14.7h49z"/>
					</g>
					<g id="&lt;Group&gt;">
						<path id="&lt;Path&gt;" class="s4" d="m1695.1 1351.9h-49v-14.7h49z"/>
					</g>
				</g>
			</g>
			<g id="&lt;Group&gt;">
				<g id="&lt;Group&gt;">
					<path id="&lt;Path&gt;" class="s4" d="m2544.5 1227.5h-9.6c-21.7-31.7-40.5-33.2-76.9-36-11.3-0.9-24-1.9-38.8-3.9-33.2-4.4-44.2-22.3-56.8-42.9-5.7-9.3-11.6-19-20.2-28.7-26.5-30-86.1-21.3-86.7-21.2l-1.2-7.9c2.6-0.4 64.5-9.5 93.9 23.7 9.1 10.3 15.4 20.7 21.1 29.9 12.5 20.5 21.5 35.2 50.9 39.2 14.7 1.9 27.3 2.9 38.4 3.8 39.6 3.1 60.8 4.7 85.9 44z"/>
				</g>
			</g>
			<g id="&lt;Group&gt;">
				<g id="&lt;Group&gt;">
					<path id="&lt;Path&gt;" class="s5" d="m2224.8 1282.6h-179.7c-16.2 0-29.4-13.2-29.4-29.5v-179.7c0-16.3 13.2-29.5 29.4-29.5h179.7c16.3 0 29.5 13.2 29.5 29.5v179.7c0 16.3-13.2 29.5-29.5 29.5z"/>
				</g>
				<g id="&lt;Group&gt;">
					<g id="&lt;Group&gt;">
						<g id="&lt;Group&gt;">
							<path id="&lt;Path&gt;" class="s6" d="m2216.8 1157.9q0 6.4-1 12.6-0.2 1.5-0.5 2.9c-1.4 7.1-3.6 13.8-6.7 20.1q-0.4 0.9-0.9 1.8c-5.3 10.4-12.8 19.4-21.8 26.6q-0.7 0.6-1.5 1.2c-9.2 7-19.9 12.1-31.6 14.7l-2.1 0.4q-4.4 0.9-9 1.3-1.5 0.1-3 0.2-1.9 0.1-3.8 0.1c-8.7 0-17.1-1.4-25-3.9q-1.9-0.6-3.7-1.3-4.2-1.5-8.2-3.6-0.9-0.4-1.8-0.9c-11.4-6.1-21.1-14.8-28.5-25.3q-0.5-0.8-1.1-1.6c-5-7.6-8.8-16.1-11.1-25.2q-0.5-1.8-0.9-3.7-0.9-4.6-1.3-9.4-0.1-1.2-0.2-2.4-0.1-2.3-0.1-4.6c0-8.6 1.3-16.8 3.7-24.5q0.3-1 0.6-2c3.9-11.3 10.1-21.4 18.1-29.9q0.6-0.6 1.3-1.3c8.1-8.2 17.9-14.6 28.8-18.8q0.9-0.4 1.9-0.7c8.6-3.1 17.8-4.8 27.5-4.8q6.9 0 13.5 1.2 1.2 0.1 2.3 0.4 0.9 0.1 1.7 0.3 1.6 0.4 3.2 0.8c11.8 3.1 22.6 8.7 31.7 16.3q0.8 0.6 1.5 1.3c9.6 8.4 17.2 19 22.1 31.1q0.4 0.9 0.7 1.8c2 5.4 3.5 11 4.3 16.7q0.3 1.7 0.4 3.3 0.5 4.3 0.5 8.8z"/>
						</g>
					</g>
					<g id="&lt;Group&gt;">
						<g id="&lt;Group&gt;">
							<g id="&lt;Group&gt;">
								<path id="&lt;Path&gt;" class="s7" d="m2185.9 1221.9q-0.7 0.6-1.5 1.2l-10.9-12.2-1.2-1.4-22.5-25-1.2-1.4-25.3-28.2-1.3-1.4-25-27.8-1.2-1.4-20.4-22.8q0.6-0.6 1.3-1.3l20.5 22.8 1.2 1.4 25 27.9 1.3 1.4 25.3 28.2 1.2 1.4 22.5 25 1.2 1.4z"/>
							</g>
						</g>
						<g id="&lt;Group&gt;">
							<g id="&lt;Group&gt;">
								<path id="&lt;Path&gt;" class="s7" d="m2208.6 1193.5q-0.4 0.9-0.9 1.8l-7.5-8.3-1.2-1.4-22.4-25-1.3-1.4-25.3-28.2-1.3-1.4-25-27.9-1.2-1.4-17-18.9q0.9-0.4 1.9-0.7l16.5 18.4 1.2 1.3 25 27.9 1.3 1.4 25.3 28.2 1.2 1.4 22.5 25 1.2 1.4z"/>
							</g>
						</g>
						<g id="&lt;Group&gt;">
							<g id="&lt;Group&gt;">
								<path id="&lt;Path&gt;" class="s7" d="m2215.9 1145.8q0.3 1.7 0.4 3.3l-12-13.4-1.3-1.4-25.3-28.2-1.2-1.4-24.1-26.9q1.6 0.4 3.2 0.8l22.3 24.8 1.2 1.4 25.3 28.2 1.3 1.4z"/>
							</g>
						</g>
						<g id="&lt;Group&gt;">
							<g id="&lt;Group&gt;">
								<path id="&lt;Path&gt;" class="s7" d="m2152.8 1237.8l-2.1 0.4-3.4-3.8-1.3-1.3-22.4-25.1-1.2-1.3-25.3-28.3-1.3-1.4-25-27.8-1.2-1.4-12.9-14.4q0.3-1 0.6-2l13.6 15.1 1.3 1.4 25 27.9 1.2 1.4 25.4 28.2 1.2 1.4 22.4 25 1.3 1.4z"/>
							</g>
						</g>
						<g id="&lt;Group&gt;">
							<g id="&lt;Group&gt;">
								<path id="&lt;Path&gt;" class="s7" d="m2150.7 1077.5l-25.6 22.9-1.4 1.3-25.3 22.7-1.4 1.3-24.8 22.2-1.4 1.3-17.5 15.7q-0.1-1.2-0.2-2.4l16.5-14.7 1.3-1.3 24.9-22.2 1.4-1.3 25.3-22.7 1.4-1.2 24.5-22q1.2 0.1 2.3 0.4z"/>
							</g>
						</g>
						<g id="&lt;Group&gt;">
							<g id="&lt;Group&gt;">
								<path id="&lt;Path&gt;" class="s7" d="m2188.8 1096.2l-9.7 8.6-1.4 1.3-26.3 23.6-1.4 1.3-25.3 22.7-1.4 1.2-24.9 22.3-1.3 1.2-21.5 19.3-1.4 1.2-6.5 5.9q-0.5-0.8-1.1-1.6l6.4-5.7 1.4-1.2 21.4-19.3 1.4-1.2 24.8-22.3 1.4-1.2 25.3-22.7 1.4-1.3 26.4-23.6 1.4-1.3 9.4-8.5q0.8 0.6 1.5 1.3z"/>
							</g>
						</g>
						<g id="&lt;Group&gt;">
							<g id="&lt;Group&gt;">
								<path id="&lt;Path&gt;" class="s7" d="m2211.6 1129.1l-5.9 5.3-1.4 1.3-26.4 23.6-1.3 1.3-25.4 22.7-1.4 1.2-24.8 22.3-1.4 1.2-21.4 19.3-1.4 1.2-2.8 2.5q-0.9-0.4-1.8-0.9l3.3-2.9 1.4-1.3 21.5-19.2 1.4-1.3 24.8-22.3 1.4-1.2 25.3-22.7 1.4-1.3 26.3-23.6 1.4-1.3 6.5-5.7q0.4 0.9 0.7 1.8z"/>
							</g>
						</g>
						<g id="&lt;Group&gt;">
							<g id="&lt;Group&gt;">
								<path id="&lt;Path&gt;" class="s7" d="m2215.8 1170.5q-0.2 1.5-0.5 2.9l-13.7 12.3-1.4 1.3-25.3 22.7-1.4 1.2-24.8 22.3-1.4 1.2-5.6 5.1q-1.5 0.1-3 0.2l7.3-6.6 1.4-1.3 24.9-22.3 1.4-1.2 25.3-22.7 1.4-1.3z"/>
							</g>
						</g>
						<g id="&lt;Group&gt;">
							<g id="&lt;Group&gt;">
								<path id="&lt;Path&gt;" class="s7" d="m2109.9 1235.9q-1.9-0.6-3.7-1.3l-5.4-6.1-1.3-1.3-25.3-28.3-1.2-1.4-17.5-19.5q-0.5-1.8-0.9-3.7l19.8 22 1.2 1.4 25.3 28.2 1.3 1.4z"/>
							</g>
						</g>
					</g>
				</g>
			</g>
			<g id="&lt;Group&gt;">
				<g id="&lt;Group&gt;">
					<path id="&lt;Path&gt;" class="s8" d="m2224.8 1044.7h-179.7c-16.2 0-29.4-13.2-29.4-29.5v-179.7c0-16.3 13.2-29.5 29.4-29.5h179.7c16.3 0 29.5 13.2 29.5 29.5v179.7c0 16.3-13.2 29.5-29.5 29.5z"/>
				</g>
				<g id="&lt;Group&gt;">
					<g id="&lt;Group&gt;">
						<g id="&lt;Group&gt;">
							<path id="&lt;Path&gt;" class="s6" d="m2216.8 920q0 6.4-1 12.6-0.2 1.5-0.5 3c-1.4 7-3.6 13.8-6.7 20.1q-0.4 0.9-0.9 1.7c-5.3 10.4-12.8 19.5-21.8 26.7q-0.7 0.6-1.5 1.1c-9.2 7-19.9 12.1-31.6 14.7l-2.1 0.5q-4.4 0.8-9 1.2-1.5 0.2-3 0.2-1.9 0.1-3.8 0.1c-8.7 0-17.1-1.4-25-3.9q-1.9-0.6-3.7-1.3-4.2-1.5-8.2-3.6-0.9-0.4-1.8-0.9c-11.4-6.1-21.1-14.8-28.5-25.3q-0.5-0.8-1.1-1.6c-5-7.6-8.8-16-11.1-25.1q-0.5-1.9-0.9-3.8-0.9-4.6-1.3-9.4-0.1-1.1-0.2-2.3-0.1-2.4-0.1-4.7c0-8.5 1.3-16.7 3.7-24.5q0.3-1 0.6-2c3.9-11.3 10.1-21.4 18.1-29.8q0.6-0.7 1.3-1.4c8.1-8.1 17.9-14.6 28.8-18.8q0.9-0.4 1.9-0.7c8.6-3.1 17.8-4.7 27.5-4.7q6.9 0 13.5 1.1 1.2 0.2 2.3 0.4 0.9 0.2 1.7 0.3 1.6 0.4 3.2 0.8c11.8 3.1 22.6 8.8 31.7 16.4q0.8 0.6 1.5 1.2c9.6 8.4 17.2 19 22.1 31.1q0.4 0.9 0.7 1.9c2 5.3 3.5 10.9 4.3 16.7q0.3 1.6 0.4 3.2 0.5 4.4 0.5 8.8z"/>
						</g>
					</g>
					<g id="&lt;Group&gt;">
						<g id="&lt;Group&gt;">
							<g id="&lt;Group&gt;">
								<path id="&lt;Path&gt;" class="s7" d="m2185.9 984.1q-0.7 0.6-1.5 1.1l-10.9-12.1-1.2-1.4-22.5-25-1.2-1.4-25.3-28.3-1.3-1.3-25-27.9-1.2-1.4-20.4-22.7q0.6-0.7 1.3-1.4l20.5 22.8 1.2 1.4 25 27.9 1.3 1.4 25.3 28.2 1.2 1.4 22.5 25 1.2 1.4z"/>
							</g>
						</g>
						<g id="&lt;Group&gt;">
							<g id="&lt;Group&gt;">
								<path id="&lt;Path&gt;" class="s7" d="m2208.6 955.7q-0.4 0.9-0.9 1.7l-7.5-8.3-1.2-1.4-22.4-25-1.3-1.4-25.3-28.2-1.3-1.4-25-27.9-1.2-1.4-17-18.9q0.9-0.4 1.9-0.7l16.5 18.4 1.2 1.4 25 27.8 1.3 1.4 25.3 28.2 1.2 1.4 22.5 25.1 1.2 1.3z"/>
							</g>
						</g>
						<g id="&lt;Group&gt;">
							<g id="&lt;Group&gt;">
								<path id="&lt;Path&gt;" class="s7" d="m2215.9 908q0.3 1.6 0.4 3.2l-12-13.4-1.3-1.4-25.3-28.2-1.2-1.4-24.1-26.9q1.6 0.4 3.2 0.8l22.3 24.8 1.2 1.4 25.3 28.3 1.3 1.4z"/>
							</g>
						</g>
						<g id="&lt;Group&gt;">
							<g id="&lt;Group&gt;">
								<path id="&lt;Path&gt;" class="s7" d="m2152.8 999.9l-2.1 0.5-3.4-3.8-1.3-1.4-22.4-25-1.2-1.4-25.3-28.2-1.3-1.4-25-27.9-1.2-1.4-12.9-14.4q0.3-1 0.6-2l13.6 15.2 1.3 1.4 25 27.8 1.2 1.4 25.4 28.2 1.2 1.4 22.4 25 1.3 1.4z"/>
							</g>
						</g>
						<g id="&lt;Group&gt;">
							<g id="&lt;Group&gt;">
								<path id="&lt;Path&gt;" class="s7" d="m2150.7 839.6l-25.6 23-1.4 1.2-25.3 22.7-1.4 1.3-24.8 22.3-1.4 1.2-17.5 15.7q-0.1-1.1-0.2-2.3l16.5-14.8 1.3-1.2 24.9-22.3 1.4-1.3 25.3-22.7 1.4-1.2 24.5-22q1.2 0.2 2.3 0.4z"/>
							</g>
						</g>
						<g id="&lt;Group&gt;">
							<g id="&lt;Group&gt;">
								<path id="&lt;Path&gt;" class="s7" d="m2188.8 858.3l-9.7 8.6-1.4 1.3-26.3 23.6-1.4 1.3-25.3 22.7-1.4 1.2-24.9 22.3-1.3 1.3-21.5 19.2-1.4 1.3-6.5 5.8q-0.5-0.8-1.1-1.6l6.4-5.6 1.4-1.3 21.4-19.2 1.4-1.3 24.8-22.2 1.4-1.3 25.3-22.7 1.4-1.3 26.4-23.6 1.4-1.3 9.4-8.4q0.8 0.6 1.5 1.2z"/>
							</g>
						</g>
						<g id="&lt;Group&gt;">
							<g id="&lt;Group&gt;">
								<path id="&lt;Path&gt;" class="s7" d="m2211.6 891.3l-5.9 5.3-1.4 1.2-26.4 23.6-1.3 1.3-25.4 22.7-1.4 1.3-24.8 22.2-1.4 1.3-21.4 19.2-1.4 1.3-2.8 2.4q-0.9-0.4-1.8-0.9l3.3-2.9 1.4-1.3 21.5-19.2 1.4-1.3 24.8-22.2 1.4-1.3 25.3-22.7 1.4-1.3 26.3-23.6 1.4-1.2 6.5-5.8q0.4 0.9 0.7 1.9z"/>
							</g>
						</g>
						<g id="&lt;Group&gt;">
							<g id="&lt;Group&gt;">
								<path id="&lt;Path&gt;" class="s7" d="m2215.8 932.6q-0.2 1.5-0.5 3l-13.7 12.2-1.4 1.3-25.3 22.7-1.4 1.3-24.8 22.2-1.4 1.3-5.6 5q-1.5 0.2-3 0.2l7.3-6.6 1.4-1.3 24.9-22.2 1.4-1.3 25.3-22.7 1.4-1.2z"/>
							</g>
						</g>
						<g id="&lt;Group&gt;">
							<g id="&lt;Group&gt;">
								<path id="&lt;Path&gt;" class="s7" d="m2109.9 998q-1.9-0.6-3.7-1.3l-5.4-6-1.3-1.4-25.3-28.2-1.2-1.4-17.5-19.5q-0.5-1.9-0.9-3.8l19.8 22 1.2 1.4 25.3 28.2 1.3 1.4z"/>
							</g>
						</g>
					</g>
				</g>
			</g>
			<g id="&lt;Group&gt;">
				<g id="&lt;Group&gt;">
					<g id="&lt;Group&gt;">
						<g id="&lt;Group&gt;">
							<path id="&lt;Path&gt;" class="s9" d="m2167.1 1434.8l126.6-113.9c5.2-4.7 19.3-7.8 31.5-7.1l162.4 9.4c12.2 0.7 17.9 5 12.8 9.6l-126.6 113.9c-5.2 4.7-19.3 7.9-31.5 7.2l-162.4-9.4c-12.2-0.7-17.9-5.1-12.8-9.7z"/>
						</g>
						<g id="&lt;Group&gt;">
							<path id="&lt;Path&gt;" class="s9" d="m2312.7 1443.5l-147.5-4.8 0.3-14.6 2.9-3 333.9-107.4v13.8z"/>
						</g>
					</g>
					<g id="&lt;Group&gt;">
						<g id="&lt;Group&gt;">
							<path id="&lt;Path&gt;" class="s3" d="m2322.9 1299.5l159.6 9.2c12.8 0.8 18.8 5.3 13.4 10.2l-119 107c-7.8 7.1-29 11.9-47.5 10.8l-143-8.3c-13.6-0.8-20-5.6-14.2-10.7l124.8-112.4c4.2-3.8 15.8-6.4 25.9-5.8z"/>
						</g>
						<g id="&lt;Group&gt;">
							<path id="&lt;Compound Path&gt;" fill-rule="evenodd" class="s4" d="m2502.3 1314.2c0 1.1-0.7 2.2-2 3.4l-6.9 6.3-31.6 28.4-88 79.2c-5.2 4.6-19.3 7.8-31.5 7.1l-19.7-1.2-142.7-8.2q-3.2-0.2-5.8-0.7c-4.7-0.9-7.7-2.5-8.6-4.4v-0.1c-0.6-1.3-0.1-2.9 1.6-4.5l126.6-113.9c5.2-4.6 19.3-7.8 31.5-7.1l162.4 9.4c8.7 0.5 14.1 2.8 14.6 5.8q0 0.2 0.1 0.5zm-6.4 1.5c1.3-2.8-2.9-5.2-10.7-5.7l-162.4-9.4c-9.1-0.5-19.6 1.9-23.5 5.3l-124.9 112.4-1.4 1.3-0.3 0.2c-2.9 2.7-1.1 5.2 3.9 6.4 1.6 0.4 3.5 0.7 5.7 0.9l143.7 8.3 18 1 0.7 0.1c9.1 0.5 19.6-1.9 23.5-5.4l0.2-0.2h0.1l1.3-1.3 73.3-65.9 0.1-0.1 44.9-40.4 6.6-6q0.9-0.8 1.2-1.5z"/>
						</g>
						<g id="&lt;Group&gt;">
							<path id="&lt;Path&gt;" class="s4" d="m2168.4 1421.1l3.2-3 201 11.7-1.3 1.2c-4.7 4.2-17.5 7.1-28.6 6.5l-165.3-9.6c-8.6-0.5-12.7-3.6-9-6.8z"/>
						</g>
					</g>
				</g>
				<g id="&lt;Group&gt;">
					<path id="&lt;Path&gt;" class="s9" d="m2562.7 1532.1q-0.6 1.3-1.2 2.7-1.2 2.6-2.4 5.2c-30.6-0.3-69.4 2.4-109.8 5.2-104.5 7.1-212.4 14.5-246.9-19-11.4-11.1-15.5-22.9-12.2-35 5.2-18.8 27.6-34.3 44.4-43.6q0.1 0 0.1 0c4.7-2.6 9-4.7 12.4-6.2 4.1-2 6.9-3.1 7.4-3.3l2.3 3.6 2.3 3.5c-0.1 0.1-3.1 1.3-7.6 3.4-14.6 6.9-45.6 23.7-51.3 44.3-2.6 9.8 0.6 19 10.2 28.3 31 30.1 141 22.6 238 16 42.1-2.9 82.6-5.6 114.3-5.1z"/>
				</g>
			</g>
			<g id="&lt;Group&gt;">
				<g id="&lt;Group&gt;">
					<path id="&lt;Path&gt;" class="s10" d="m1959.8 1152.5h-1198.2v-703.4h1198.2z"/>
				</g>
				<g id="&lt;Group&gt;">
					<path id="&lt;Path&gt;" class="s1" d="m1959.8 1040.2h-1198.2v-591.1h1198.2z"/>
				</g>
				<g id="&lt;Group&gt;">
					<path id="&lt;Path&gt;" class="s10" d="m1517.5 1267.1v17.1h-351.8v-17.1c24.9 0 45.2-19.2 47.1-43.5q0.2-1.9 0.2-3.7v-67.4h257.3v67.4q0 1.8 0.1 3.7c0.9 11.5 6 21.9 13.7 29.7 8.6 8.5 20.4 13.8 33.4 13.8z"/>
				</g>
				<g id="&lt;Group&gt;" style="opacity: .7">
					<path id="&lt;Path&gt;" class="s11" d="m1470.3 1166.6h-257.3v-14.1h257.3z"/>
				</g>
				<g id="&lt;Group&gt;" style="opacity: .7">
					<path id="&lt;Path&gt;" class="s11" d="m1517.5 1267.1h-351.8c24.9 0 45.2-19.2 47.1-43.5h257.6c0.9 11.5 6 21.9 13.7 29.7 8.6 8.5 20.4 13.8 33.4 13.8z"/>
				</g>
			</g>
			<g id="&lt;Group&gt;">
				<g id="&lt;Group&gt;">
					<path id="&lt;Path&gt;" class="s12" d="m503.5 1051.4c0 0-12.5-110.6 35.4-203.9 5.1-9.9 17.7-7.4 19.7 3.9 7.5 40.6 14.9 121.6-19.4 207.8-48.9 122.5-35.7-7.8-35.7-7.8z"/>
				</g>
				<g id="&lt;Group&gt;">
					<path id="&lt;Path&gt;" class="s12" d="m560.7 1073.3c0 0 7.8-111.1 71.8-194.1 6.8-8.8 18.7-4.1 18.7 7.4 0 41.3-7.4 122.3-56.8 200.8-70.3 111.6-33.7-14.1-33.7-14.1z"/>
				</g>
				<g id="&lt;Group&gt;">
					<path id="&lt;Path&gt;" class="s13" d="m528.8 1051.2c0 0 0.2-111.4 58.4-198.6 6.2-9.2 18.4-5.3 19.2 6.2 2.8 41.1 0.9 122.5-43 204.1-62.5 116.2-34.6-11.7-34.6-11.7z"/>
				</g>
				<g id="&lt;Group&gt;">
					<path id="&lt;Path&gt;" class="s13" d="m566.4 1056.8c0 0 22-84.1 83.1-138.6 6.4-5.8 14.9-0.5 13.3 8.4-6 31.6-23.3 92.8-72.5 145.9-70 75.5-23.9-15.7-23.9-15.7z"/>
				</g>
				<g id="&lt;Group&gt;">
					<path id="&lt;Path&gt;" class="s12" d="m448.5 1072.1c-34.3-86.1-26.9-167.1-19.4-207.7 2.1-11.3 14.7-13.8 19.7-3.9 47.9 93.2 35.5 203.9 35.5 203.9 0 0 13.1 130.3-35.8 7.7z"/>
				</g>
				<g id="&lt;Group&gt;">
					<path id="&lt;Path&gt;" class="s12" d="m393.3 1100.4c-49.4-78.5-56.8-159.5-56.8-200.8 0-11.5 11.9-16.2 18.7-7.4 64 83 71.9 194.1 71.9 194.1 0 0 36.5 125.7-33.8 14.1z"/>
				</g>
				<g id="&lt;Group&gt;">
					<path id="&lt;Path&gt;" class="s13" d="m424.3 1075.9c-43.9-81.6-45.8-163-43-204.2 0.8-11.5 13-15.4 19.2-6.1 58.2 87.2 58.4 198.6 58.4 198.6 0 0 27.9 127.9-34.6 11.7z"/>
				</g>
				<g id="&lt;Group&gt;">
					<path id="&lt;Path&gt;" class="s13" d="m487.5 1075.1c-27.5-88.5-13.8-168.8-3.3-208.6 3-11.2 15.7-12.7 20-2.4 40.5 96.7 19.5 206.1 19.5 206.1 0 0 3 130.8-36.2 4.9z"/>
				</g>
				<g id="&lt;Group&gt;">
					<path id="&lt;Path&gt;" class="s13" d="m397.4 1085.4c-49.1-53.1-66.5-114.2-72.4-145.8-1.7-8.9 6.8-14.2 13.3-8.5 61 54.6 83 138.7 83 138.7 0 0 46.1 91.2-23.9 15.6z"/>
				</g>
				<g id="&lt;Group&gt;">
					<path id="&lt;Path&gt;" class="s4" d="m555.9 1253.1h-120.1c-49.8 0-90.6-40.8-90.6-90.7v-109.4c0-2.7 2.1-4.8 4.7-4.8h296.7v114.2c0 49.9-40.8 90.7-90.7 90.7z"/>
				</g>
			</g>
			<g id="&lt;Group&gt;">
				<path id="&lt;Path&gt;" class="s3" d="m1941.9 1017.9h-1164.7v-553.2h1164.7z"/>
			</g>
			<g id="&lt;Group&gt;">
				<g id="&lt;Group&gt;" style="opacity: .1">
					<path id="&lt;Path&gt;" class="s14" d="m1054.3 740h-249.7v-249.8h249.7z"/>
				</g>
				<g id="&lt;Group&gt;" style="opacity: .1">
					<path id="&lt;Path&gt;" class="s14" d="m1054.3 995h-249.7v-227.5h249.7z"/>
				</g>
				<g id="&lt;Group&gt;" style="opacity: .1">
					<path id="&lt;Path&gt;" class="s14" d="m1907 995h-804.3v-198.9h804.3z"/>
				</g>
				<g id="&lt;Group&gt;">
					<path id="&lt;Path&gt;" class="s15" d="m1616.8 490.2v281.4h-514.1v-281.4z"/>
				</g>
				<g id="&lt;Group&gt;">
					<g id="&lt;Group&gt;">
						<path id="&lt;Path&gt;" class="s16" d="m1592.4 567v204.6h-489.7v-152.8h18.3v9.5h15v-5.5h14v-21.8h6.9v-10.2h1.1v10.2h16.6v-19.1h1.6v19.1h11.1v-0.3h-0.1v-2.4h0.1v-2.3h-0.1v-3.9h0.1v-2.4h-0.1v-3.8h0.1v-2.4h-0.1v-3.9h0.1v-2.6h-0.1v-3.8h0.1v-3.4h-0.1v-3.8h0.1v-2.5h3.2v-2.9h0.6v2.9h24.3v-2.9h0.5v2.9h4.4v20h3.2-0.1v-3.9h0.1v-2.6h-0.1v-3.8h0.1v-2.6h-0.1v-3.8h0.1v-0.1h29.4v0.1h5.1q0.4 0.1 0.8 0.2v21.8h21.5v28.7h17.4v-53h3.8v-3.7h0.7v3.7h13.8v-3.7h0.6v3.7h19.5v-3.7h0.7v3.7h12.2v-3.7h0.7v3.7h5.1v49.4h19.2v-8l22.7 0.1v-12.9h4.6v-2.6h0.6v2.6h17.5 3.5v-2.6h0.6v2.6h4.2v25.7h27v9.5h15.1v-5.5h13.9v-21.8h6.9v-10.2h1.1v10.2h16.6v-19.1h1.7v19.1h11v-0.3-2.4-2.3-3.9-2.4-3.8-2.4-3.9-2.6-3.8-3.4-3.8-2.5h3.3v-2.9h0.5v2.9h24.3v-2.9h0.5v2.9h4.5v20h3 0.1v-3.9-2.6-3.8-2.6-3.8-0.1h29.5v0.1h5q0.4 0.1 0.7 0.2z"/>
					</g>
					<g id="&lt;Group&gt;">
						<g id="&lt;Group&gt;">
							<path id="&lt;Path&gt;" class="s17" d="m1354.8 572.9h-43.5v-8.4h43.5z"/>
						</g>
						<g id="&lt;Group&gt;">
							<g id="&lt;Group&gt;">
								<path id="&lt;Path&gt;" class="s17" d="m1541.3 568.6h-20.3v-5.1h20.3z"/>
							</g>
							<g id="&lt;Group&gt;">
								<path id="&lt;Path&gt;" class="s17" d="m1541.3 576.4h-20.3v-5.1h20.3z"/>
							</g>
							<g id="&lt;Group&gt;">
								<path id="&lt;Path&gt;" class="s17" d="m1541.3 584.4h-20.3v-5.1h20.3z"/>
							</g>
							<g id="&lt;Group&gt;">
								<path id="&lt;Path&gt;" class="s17" d="m1541.3 592.5h-20.3v-5.1h20.3z"/>
							</g>
							<g id="&lt;Group&gt;">
								<path id="&lt;Path&gt;" class="s17" d="m1541.3 600.3h-20.3v-5h20.3z"/>
							</g>
						</g>
						<g id="&lt;Group&gt;">
							<g id="&lt;Group&gt;">
								<path id="&lt;Path&gt;" class="s17" d="m1541.3 609h-20.3v-5.1h20.3z"/>
							</g>
							<g id="&lt;Group&gt;">
								<path id="&lt;Path&gt;" class="s17" d="m1541.3 616.8h-20.3v-5.1h20.3z"/>
							</g>
							<g id="&lt;Group&gt;">
								<path id="&lt;Path&gt;" class="s17" d="m1541.3 624.8h-20.3v-5.1h20.3z"/>
							</g>
							<g id="&lt;Group&gt;">
								<path id="&lt;Path&gt;" class="s17" d="m1541.3 632.9h-20.3v-5.1h20.3z"/>
							</g>
							<g id="&lt;Group&gt;">
								<path id="&lt;Path&gt;" class="s17" d="m1541.3 640.7h-20.3v-5.1h20.3z"/>
							</g>
						</g>
						<g id="&lt;Group&gt;">
							<g id="&lt;Group&gt;">
								<path id="&lt;Path&gt;" class="s17" d="m1208.8 568.6h-21.7v-5.1h21.7z"/>
							</g>
							<g id="&lt;Group&gt;">
								<path id="&lt;Path&gt;" class="s17" d="m1208.8 576.4h-21.7v-5.1h21.7z"/>
							</g>
							<g id="&lt;Group&gt;">
								<path id="&lt;Path&gt;" class="s17" d="m1208.8 584.4h-21.7v-5.1h21.7z"/>
							</g>
							<g id="&lt;Group&gt;">
								<path id="&lt;Path&gt;" class="s17" d="m1208.8 592.5h-21.7v-5.1h21.7z"/>
							</g>
							<g id="&lt;Group&gt;">
								<path id="&lt;Path&gt;" class="s17" d="m1208.8 600.3h-21.7v-5h21.7z"/>
							</g>
						</g>
						<g id="&lt;Group&gt;">
							<g id="&lt;Group&gt;">
								<path id="&lt;Path&gt;" class="s17" d="m1208.8 609h-21.7v-5.1h21.7z"/>
							</g>
							<g id="&lt;Group&gt;">
								<path id="&lt;Path&gt;" class="s17" d="m1208.8 616.8h-21.7v-5.1h21.7z"/>
							</g>
							<g id="&lt;Group&gt;">
								<path id="&lt;Path&gt;" class="s17" d="m1208.8 624.8h-21.7v-5.1h21.7z"/>
							</g>
							<g id="&lt;Group&gt;">
								<path id="&lt;Path&gt;" class="s17" d="m1208.8 632.9h-21.7v-5.1h21.7z"/>
							</g>
							<g id="&lt;Group&gt;">
								<path id="&lt;Path&gt;" class="s17" d="m1208.8 640.7h-21.7v-5.1h21.7z"/>
							</g>
						</g>
						<g id="&lt;Group&gt;">
							<g id="&lt;Group&gt;">
								<path id="&lt;Path&gt;" class="s17" d="m1248.6 571.9h-24.7v-5.1h24.7z"/>
							</g>
							<g id="&lt;Group&gt;">
								<path id="&lt;Path&gt;" class="s17" d="m1248.6 579.7h-24.7v-5h24.7z"/>
							</g>
							<g id="&lt;Group&gt;">
								<path id="&lt;Path&gt;" class="s17" d="m1248.6 587.7h-24.7v-5.1h24.7z"/>
							</g>
							<g id="&lt;Group&gt;">
								<path id="&lt;Path&gt;" class="s17" d="m1248.6 595.8h-24.7v-5h24.7z"/>
							</g>
							<g id="&lt;Group&gt;">
								<path id="&lt;Path&gt;" class="s17" d="m1248.6 603.7h-24.7v-5.1h24.7z"/>
							</g>
						</g>
						<g id="&lt;Group&gt;">
							<g id="&lt;Group&gt;">
								<path id="&lt;Path&gt;" class="s17" d="m1248.6 611.8h-24.7v-5h24.7z"/>
							</g>
							<g id="&lt;Group&gt;">
								<path id="&lt;Path&gt;" class="s17" d="m1248.6 619.7h-24.7v-5.1h24.7z"/>
							</g>
							<g id="&lt;Group&gt;">
								<path id="&lt;Path&gt;" class="s17" d="m1248.6 627.7h-24.7v-5.1h24.7z"/>
							</g>
							<g id="&lt;Group&gt;">
								<path id="&lt;Path&gt;" class="s17" d="m1248.6 635.8h-24.7v-5.1h24.7z"/>
							</g>
							<g id="&lt;Group&gt;">
								<path id="&lt;Path&gt;" class="s17" d="m1248.6 643.6h-24.7v-5.1h24.7z"/>
							</g>
						</g>
					</g>
				</g>
				<g id="&lt;Group&gt;">
					<g id="&lt;Group&gt;">
						<path id="&lt;Path&gt;" class="s18" d="m1548.5 545.9h-1.9v-0.2l0.6-5.1c0-0.1 0.1-0.2 0.3-0.2q0 0 0.1 0 0.1 0 0.3 0.1 0.1 0.1 0.1 0.3z"/>
					</g>
					<g id="&lt;Group&gt;">
						<path id="&lt;Path&gt;" class="s19" d="m1546.8 544.7h-0.1l0.5-4.1c0-0.1 0.1-0.2 0.3-0.2q0 0 0.1 0 0 0 0 0 0.2 0.1 0.2 0.3v3c0 0.6-0.5 1-1 1z"/>
					</g>
					<g id="&lt;Group&gt;">
						<path id="&lt;Path&gt;" class="s18" d="m1549.7 568.6v162.6h-3.7v-162.6z"/>
					</g>
					<g id="&lt;Group&gt;">
						<path id="&lt;Path&gt;" class="s20" d="m1547.7 568.6v162.6h-1.7v-162.6z"/>
					</g>
					<g id="&lt;Group&gt;">
						<path id="&lt;Path&gt;" class="s18" d="m1553.7 705.2v43.1h-11.7v-43.1z"/>
					</g>
					<g id="&lt;Group&gt;">
						<path id="&lt;Path&gt;" class="s20" d="m1549 705.2v43.1h-7v-43.1z"/>
					</g>
					<g id="&lt;Group&gt;">
						<path id="&lt;Path&gt;" class="s18" d="m1554.3 548.3c0 2.1-3 3.7-6.7 3.7q-0.5 0-0.9 0c-3.3-0.3-5.9-1.8-5.9-3.7 0-1.8 2.6-3.3 5.9-3.6q0.4 0 0.9 0c3.7 0 6.7 1.6 6.7 3.6z"/>
					</g>
					<g id="&lt;Group&gt;">
						<path id="&lt;Path&gt;" class="s20" d="m1550.8 548.3c0 1.7-1.7 3.1-4.1 3.7-3.3-0.3-5.9-1.8-5.9-3.7 0-1.8 2.6-3.3 5.9-3.6 2.4 0.6 4.1 2 4.1 3.6z"/>
					</g>
					<g id="&lt;Group&gt;">
						<path id="&lt;Path&gt;" class="s20" d="m1553.7 571.8h-11.7l-4.1-20h19.3z"/>
					</g>
					<g id="&lt;Group&gt;">
						<path id="&lt;Path&gt;" class="s18" d="m1558.3 550.3v2h-21.5v-2z"/>
					</g>
					<g id="&lt;Group&gt;">
						<path id="&lt;Path&gt;" class="s20" d="m1550.3 550.3v2h-13.5v-2z"/>
					</g>
					<g id="&lt;Group&gt;">
						<path id="&lt;Path&gt;" class="s21" d="m1545.3 702c0.1-0.3 0.5-0.6 0.8-0.6h3.6c0.3 0 0.5 0.2 0.6 0.5l1.1 3.3h-7.5z"/>
					</g>
					<g id="&lt;Group&gt;">
						<path id="&lt;Path&gt;" class="s22" d="m1539.3 552.8h16.5l-3.2 17.9h-9.5z"/>
					</g>
					<g id="&lt;Group&gt;">
						<path id="&lt;Path&gt;" class="s18" d="m1556.9 550.3h-18.7l1.5-2.1h15.8z"/>
					</g>
					<g id="&lt;Group&gt;">
						<path id="&lt;Path&gt;" class="s20" d="m1552.3 550.3h-14.1l1.5-2.1h11.1z"/>
					</g>
				</g>
				<g id="&lt;Group&gt;">
					<path id="&lt;Path&gt;" class="s12" d="m1221 748.5l-118.3-0.1v-28.9q0.6 0.3 1.2 0.6c16.1 8.2 14 19.2 34 15.1 20-4 36.4-5.6 45.4 0 8.9 5.7 15.5 3.5 26.6 3.4 9.2 0 10.8 7.4 11.1 9.9z"/>
				</g>
				<g id="&lt;Group&gt;">
					<g id="&lt;Group&gt;">
						<path id="&lt;Path&gt;" class="s23" d="m1245.5 715.4h-112.7l-5.2-26.5h112.5z"/>
					</g>
					<g id="&lt;Group&gt;">
						<path id="&lt;Path&gt;" class="s24" d="m1247.5 715.4h-112.7l-5.2-26.5h112.5z"/>
					</g>
					<g id="&lt;Group&gt;">
						<path id="&lt;Path&gt;" class="s23" d="m1166.1 718.6h-30.8c-1.3 0-2.5-1.1-2.5-2.4v-0.8h33.3z"/>
					</g>
					<g id="&lt;Group&gt;">
						<path id="&lt;Path&gt;" class="s25" d="m1268.2 718.6h-102.3v-3.2h102.3z"/>
					</g>
					<g id="&lt;Group&gt;">
						<g id="&lt;Group&gt;">
							<path id="&lt;Path&gt;" class="s25" d="m1139.6 718.6l-2 7.6q0 0 0 0l-5.7 22.5c0 0.3-0.3 0.5-0.6 0.5-0.6 0-1-0.5-0.9-1.1l5.1-26.2 0.6-3.3z"/>
						</g>
					</g>
					<g id="&lt;Group&gt;">
						<path id="&lt;Path&gt;" class="s23" d="m1137.6 726.2c0.2-3.9-2.1-4.3-2.1-4.3l0.6-3.3h3.5z"/>
					</g>
					<g id="&lt;Group&gt;">
						<g id="&lt;Group&gt;">
							<path id="&lt;Path&gt;" class="s25" d="m1164 718.6l-1.9 7.6q0 0 0 0l-5.7 22.5c-0.1 0.3-0.4 0.5-0.7 0.5-0.5 0-1-0.5-0.9-1.1l5.1-26.2 0.7-3.3z"/>
						</g>
					</g>
					<g id="&lt;Group&gt;">
						<path id="&lt;Path&gt;" class="s23" d="m1162.1 726.2c0.2-3.9-2.2-4.3-2.2-4.3l0.7-3.3h3.4z"/>
					</g>
					<g id="&lt;Group&gt;">
						<g id="&lt;Group&gt;">
							<path id="&lt;Path&gt;" class="s25" d="m1262.3 718.6l0.7 3.3 5.1 26.2c0.1 0.6-0.4 1.1-0.9 1.1-0.3 0-0.6-0.2-0.7-0.5l-5.7-22.5q0 0 0 0l-1.9-7.6z"/>
						</g>
					</g>
					<g id="&lt;Group&gt;">
						<path id="&lt;Path&gt;" class="s23" d="m1258.9 718.6h3.4l0.7 3.3c0 0-2.4 0.4-2.2 4.3z"/>
					</g>
					<g id="&lt;Group&gt;">
						<g id="&lt;Group&gt;">
							<path id="&lt;Path&gt;" class="s25" d="m1237.9 718.6l0.6 3.3 5.1 26.2c0.1 0.6-0.3 1.1-0.9 1.1-0.3 0-0.6-0.2-0.6-0.5l-5.7-22.5q0 0 0 0l-2-7.6z"/>
						</g>
					</g>
					<g id="&lt;Group&gt;">
						<path id="&lt;Path&gt;" class="s23" d="m1234.4 718.6h3.5l0.6 3.3c0 0-2.3 0.4-2.1 4.3z"/>
					</g>
				</g>
				<g id="&lt;Group&gt;">
					<path id="&lt;Path&gt;" class="s12" d="m1173 562.7c-2.9 1.7-6.3 2.8-10.1 3-16.3 1-21.9 7.1-35.1 19.9-7.1 6.9-16.9 8.4-25.1 8.7v-87.3c2.3 1.6 4.7 3.3 7.1 4.9 9 6 18.7 10.9 29.4 8.3 10.7-2.6 19-2.4 25.4-0.3 8.3 2.6 13.7 8.2 17.6 15.2 5.3 9.5 0.7 21.9-9.2 27.6z"/>
				</g>
				<g id="&lt;Group&gt;">
					<path id="&lt;Path&gt;" class="s26" d="m1306.3 531.9c0-4.1 3.2-7.4 7.3-7.4 4 0 7.3 3.3 7.3 7.4 0 4-3.3 7.3-7.3 7.3-4.1 0-7.3-3.3-7.3-7.3z"/>
				</g>
				<g id="&lt;Group&gt;">
					<path id="&lt;Path&gt;" class="s26" d="m1426.6 525.3c0 0 6.4-10.2 21.6-9 0 0 22-17.1 45.6-2.3 0 0 25-3.7 43.5 3.2 12.3 4.5 16.4 9.3 16.4 9.3z"/>
				</g>
				<g id="&lt;Group&gt;" style="opacity: .5">
					<path id="&lt;Path&gt;" class="s26" d="m1502.5 551.6c0 0 4.2-6.7 14.1-6 0 0 14.5-11.1 29.8-1.4 0 0 16.4-2.4 28.5 2 8.1 3 10.8 6.1 10.8 6.1z"/>
				</g>
				<g id="&lt;Group&gt;" style="opacity: .5">
					<path id="&lt;Path&gt;" class="s26" d="m1192.2 547c0 0 4.2-6.7 14.1-6 0 0 14.4-11.1 29.8-1.5 0 0 16.4-2.4 28.5 2.1 8.1 3 10.7 6.1 10.7 6.1z"/>
				</g>
				<g id="&lt;Group&gt;">
					<path id="&lt;Path&gt;" class="s18" d="m1616.8 771.6h-514.1v-23.3h514.1z"/>
				</g>
				<g id="&lt;Group&gt;">
					<g id="&lt;Group&gt;">
						<path id="&lt;Path&gt;" class="s10" d="m1426.6 741.2c0 0-2.5-9.2 4.4-18.1 6.9-8.9 18.5-6.5 18.5-6.5 0 0 1.6 2.5-1.6 4.5-3.2 2-14.4-2-17.2 17.5 0 0-1.4 4-4.1 2.6z"/>
					</g>
					<g id="&lt;Group&gt;">
						<path id="&lt;Path&gt;" class="s27" d="m1339.5 609.6c0-2.2 1.8-4.1 4.1-4.1 2.3 0 4.2 1.9 4.2 4.1 0 2.3-1.9 4.2-4.2 4.2-2.3 0-4.1-1.9-4.1-4.2z"/>
					</g>
					<g id="&lt;Group&gt;">
						<path id="&lt;Path&gt;" class="s18" d="m1439.8 735.7c0-3.2 2.6-5.8 5.8-5.8 3.2 0 5.8 2.6 5.8 5.8 0 3.2-2.6 5.8-5.8 5.8-3.2 0-5.8-2.6-5.8-5.8z"/>
					</g>
					<g id="&lt;Group&gt;">
						<path id="&lt;Path&gt;" class="s18" d="m1310.9 731.3c0-4.9 4-8.9 8.9-8.9 4.9 0 8.9 4 8.9 8.9 0 4.9-4 8.9-8.9 8.9-4.9 0-8.9-4-8.9-8.9z"/>
					</g>
					<g id="&lt;Group&gt;">
						<g id="&lt;Group&gt;">
							<path id="&lt;Path&gt;" class="s28" d="m1323.1 717l-3.5-0.5 14.1-103 3.6 0.5z"/>
						</g>
					</g>
					<g id="&lt;Group&gt;">
						<g id="&lt;Group&gt;">
							<path id="&lt;Path&gt;" class="s27" d="m1325.1 617v-3.9l18.1-4 1.2 3.3z"/>
						</g>
					</g>
					<g id="&lt;Group&gt;">
						<g id="&lt;Group&gt;">
							<path id="&lt;Compound Path&gt;" fill-rule="evenodd" class="s29" d="m1320.1 748.2c-9.1 0-16.6-7.5-16.6-16.6 0-9.1 7.5-16.6 16.6-16.6 9.1 0 16.6 7.5 16.6 16.6 0 9.1-7.5 16.6-16.6 16.6zm0-29.8c-7.3 0-13.2 5.9-13.2 13.2 0 7.3 5.9 13.2 13.2 13.2 7.3 0 13.2-5.9 13.2-13.2 0-7.3-5.9-13.2-13.2-13.2z"/>
						</g>
					</g>
					<g id="&lt;Group&gt;">
						<g id="&lt;Group&gt;">
							<path id="&lt;Compound Path&gt;" fill-rule="evenodd" class="s29" d="m1445.6 747.8c-6.7 0-12.1-5.4-12.1-12.1 0-6.6 5.4-12.1 12.1-12.1 6.7 0 12.1 5.5 12.1 12.1 0 6.7-5.4 12.1-12.1 12.1zm0-21.5c-5.2 0-9.5 4.2-9.5 9.4 0 5.2 4.3 9.5 9.5 9.5 5.2 0 9.4-4.3 9.4-9.5 0-5.2-4.2-9.4-9.4-9.4z"/>
						</g>
					</g>
					<g id="&lt;Group&gt;">
						<path id="&lt;Path&gt;" class="s28" d="m1427.7 742.7h-82.2c-1.5 0-2.7-1.2-2.7-2.7v-1.3c0-1.5 1.2-2.7 2.7-2.7h82.2c1.5 0 2.7 1.2 2.7 2.7v1.3c0 1.5-1.2 2.7-2.7 2.7z"/>
					</g>
					<g id="&lt;Group&gt;">
						<g id="&lt;Group&gt;">
							<path id="&lt;Path&gt;" class="s28" d="m1428.7 742.7c-0.6 0-1.1-0.3-1.3-0.9-0.2-0.7 0.2-1.5 0.9-1.7l16.9-5.6c0.7-0.3 1.4 0.1 1.7 0.8 0.2 0.7-0.2 1.5-0.9 1.7l-16.9 5.6q-0.2 0.1-0.4 0.1z"/>
						</g>
					</g>
					<g id="&lt;Group&gt;">
						<path id="&lt;Path&gt;" class="s28" d="m1326.2 682.4l34 53.8h-7.2l-28.3-45.4z"/>
					</g>
					<g id="&lt;Group&gt;">
						<path id="&lt;Path&gt;" class="s29" d="m1323.7 725.7c-1.1 3.7-0.6 7.6 1.5 10.9l4.4 6.9-2.3 1.4-4.6-7.1c-1.9-3-5.1-5-8.7-5.3l-8.7-0.7 0.3-2.7 8.6 0.7c3.1 0.3 5.9-1.7 6.8-4.6l2.7-8.9 2.6 0.8z"/>
					</g>
					<g id="&lt;Group&gt;">
						<path id="&lt;Path&gt;" class="s29" d="m1447.8 732.1c-0.8 2.3-0.4 4.9 0.9 7l2.9 4.5-1.5 1-2.9-4.7c-1.3-1.9-3.4-3.2-5.7-3.4l-5.6-0.5 0.1-1.7 5.6 0.4c2 0.2 3.8-1.1 4.4-3l1.8-5.8 1.7 0.6z"/>
					</g>
					<g id="&lt;Group&gt;">
						<path id="&lt;Path&gt;" class="s10" d="m1444 735.5c0-0.7 0.6-1.3 1.3-1.3 0.8 0 1.4 0.6 1.4 1.3 0 0.7-0.6 1.3-1.4 1.3-0.7 0-1.3-0.6-1.3-1.3z"/>
					</g>
					<g id="&lt;Group&gt;">
						<path id="&lt;Path&gt;" class="s10" d="m1318.5 731.3c0-0.7 0.6-1.3 1.3-1.3 0.8 0 1.4 0.6 1.4 1.3 0 0.7-0.6 1.3-1.4 1.3-0.7 0-1.3-0.6-1.3-1.3z"/>
					</g>
					<g id="&lt;Group&gt;">
						<path id="&lt;Path&gt;" class="s10" d="m1309.7 714.1c0 0 7.7-5.4 18.4-1.9 10.7 3.5 12.3 15.2 12.3 15.2 0 0-1.8 2.4-4.7 0-3-2.3-3-14.2-22.3-10.4 0 0-4.2 0.1-3.7-2.9z"/>
					</g>
					<g id="&lt;Group&gt;">
						<path id="&lt;Path&gt;" class="s30" d="m1394.7 527.3l-6.8 12.1-13.5 11.2c0 0-4.3-6.7-4.3-12.5 0-5.9 13.4-27.5 13.4-27.5z"/>
					</g>
					<g id="&lt;Group&gt;">
						<path id="&lt;Path&gt;" class="s31" d="m1394.1 542.3c0 0-4.5 8.1-12.6 6.7 0 0-2.4-3.6-3-6.5q-0.1-0.5-0.2-1c-0.7-3.3-1.2-5.1-1.2-5.1q0 0 0 0c0.4-0.2 10.6-6.9 10.7-6.6 1.5 8.9 6.3 12.5 6.3 12.5z"/>
					</g>
					<g id="&lt;Group&gt;">
						<path id="&lt;Path&gt;" class="s32" d="m1374.6 519.7c1.5-2.4 4-4.9 11.8-1.9 7.9 3 4.6 7.7 2.1 15.5-2.4 7.8-14.9 3.6-14.9 3.6-3.2-1.2-0.4-14.8 1-17.2z"/>
					</g>
					<g id="&lt;Group&gt;">
						<path id="&lt;Path&gt;" class="s33" d="m1362.8 733.6c3.2-0.5 8.8-2.4 10.1-6.5q0-0.2 0.1-0.4c1-4.4 8.2 1.3 8.2 1.3q0 0 0 0.5c0.2 1.6 0.6 6.9-0.8 7.6q-0.1 0-0.4 0.1h-20.5c0.2-0.7 0.8-2.2 3.3-2.6z"/>
					</g>
					<g id="&lt;Group&gt;">
						<path id="&lt;Path&gt;" class="s33" d="m1402.9 733.6c3.2-0.5 8.8-2.4 10.1-6.5q0-0.2 0.1-0.4c1-4.4 8.2 1.3 8.2 1.3q0 0 0.1 0.5c0.1 1.6 0.5 6.9-0.8 7.6q-0.2 0-0.5 0.1h-20.5c0.2-0.7 0.8-2.2 3.3-2.6z"/>
					</g>
					<g id="&lt;Group&gt;">
						<path id="&lt;Path&gt;" class="s10" d="m1394.2 616.1c0 0-2.5 46.6-4.1 68.8q-0.1 0.5-0.1 1.1c-1.7 21.8-8.8 42-8.8 42-6.9 1.5-8.3-0.9-8.3-0.9 0 0-2.5-15.2-2.8-24.2-0.2-5.2-2.3-32.6-4.1-54.9-1.3-16.4-2.4-30-2.4-30z"/>
					</g>
					<g id="&lt;Group&gt;">
						<path id="&lt;Path&gt;" class="s27" d="m1394.2 616.1c0 0-2.5 46.6-4.1 68.8q-0.1 0.5-0.1 1.1l-24-38c-1.3-16.4-2.4-30-2.4-30z"/>
					</g>
					<g id="&lt;Group&gt;">
						<path id="&lt;Path&gt;" class="s10" d="m1400.1 610.7c0 0 4.6 8.8 4.9 15.3 0.2 6.5 1.5 27.1 4.2 33.8 5.3 12.9 12.1 68.2 12.1 68.2-0.7 2.1-8.6-0.1-8.6-0.1 0 0-4.7-10.3-17.6-33.6-13-23.2-26.5-74.7-26.5-74.7z"/>
					</g>
					<g id="&lt;Group&gt;">
						<path id="&lt;Path&gt;" class="s18" d="m1362.5 593.8q0-2.1 0.1-4.2 0-0.4 0-0.8c0.1-4.9 8.8-32.8 10.5-36.9 0.8-2 2.2-3.8 2.2-3.8 2.7 0.5 5.5 0.3 8.3-1.2 3-1.5 6.3-3.2 6.8-2.8 4.2 3 8.7 16.1 12 31 3.6 16.1 14 71.1 14 72 0.1 0.9-27.2 4.9-52.2-7.5-0.3-0.1-1.7-44.2-1.7-45.8z"/>
					</g>
					<g id="&lt;Group&gt;">
						<path id="&lt;Path&gt;" class="s34" d="m1362.4 603.5c0-0.4 0-0.9 0.1-1.3l-0.1-0.1q0-1.8 0-3.5 0-2.4 0.1-4.8l22.9-20.6c0 0 2.4 31.7-22.1 45.4 0-1.7-0.8-13.2-0.9-15.1z"/>
					</g>
					<g id="&lt;Group&gt;">
						<path id="&lt;Path&gt;" class="s32" d="m1338.5 609.2c-1.2-2.1-0.2-3-0.2-3 0 0 20.2-14.9 21.8-16.4 1.6-1.6 9.6-26.3 9.6-26.3 0 0 2.8-10 8.6-10.9 5.1-0.8 8.5 1.8 10.6 4.8 2.6 3.5 2.8 8.3 0.4 12.1-5.3 8.3-16 24.9-19.1 27.7-6.8 6.2-28.8 13.7-28.8 13.7 0 0-1.9 0-2.9-1.7z"/>
					</g>
					<g id="&lt;Group&gt;">
						<path id="&lt;Path&gt;" class="s35" d="m1387.1 532.1c0.5-0.8 2.3-5.2-0.3-4.5-2.6 0.7-2.8-0.2-2.9-1.2 0-1-0.4-4.3-2.4-5.1-1.9-0.8-8.1 2.5-12.7-0.6 0 0 4.3-2.4 6-5.6 1.6-3 3.2-6 8.7-4.5 5.5 1.6 12 4.7 13.6 7.9 1.6 3.3 0.7 6.8-0.2 8.3-6.2 9.9-8.8 8.8-9 8.6-1.4-1-0.8-3.3-0.8-3.3z"/>
					</g>
					<g id="&lt;Group&gt;">
						<path id="&lt;Path&gt;" class="s18" d="m1406.7 527.3c0 3.2-12.6 20.8-12.6 20.8-5.5 3.5-18.8 0-18.8 0 0 0 15.5-15.7 15.3-20.7-0.3-5-7.1-16.8-7.1-16.8 15.8 0.2 23.2 13.4 23.2 16.7z"/>
					</g>
					<g id="&lt;Group&gt;">
						<path id="&lt;Path&gt;" class="s34" d="m1371.4 617.5c0 0 12 1.9 19.6 0.8l-0.2 12.1-9.6 3.7-9.8-5.4z"/>
					</g>
					<g id="&lt;Group&gt;">
						<path id="&lt;Path&gt;" class="s32" d="m1341.7 610.7c0 0-2 1.1-3.8 2.1-1.8 0.9-2.9-0.6-5.7-1.3l-5.6 1.2c-2.3-0.5 0.7-3.2 2.3-4.7 1.6-1.4 9.3-1.8 9.3-1.8z"/>
					</g>
					<g id="&lt;Group&gt;">
						<path id="&lt;Path&gt;" class="s10" d="m1319.6 614.5c0-2.3 1.9-4.1 4.2-4.1 2.3 0 4.1 1.8 4.1 4.1 0 2.3-1.8 4.1-4.1 4.1-2.3 0-4.2-1.8-4.2-4.1z"/>
					</g>
					<g id="&lt;Group&gt;">
						<path id="&lt;Path&gt;" class="s10" d="m1431.9 585.3q-0.1 0.9-0.2 1.6c-1.7 6.2-22.7 10.9-25.1 8.7q-0.6-0.7-1.3-1.8c-6-9.9-13.6-45.7-10.6-43.6 0 0 5.6-1.8 10.2-2.2l0.8-0.1c1.5-0.1 2.8 0 3.7 0.4 3.9 1.4 7 11.6 7 11.6 0 0 3.2-0.4 6.1-0.1q0.5 0.1 1.1 0.2 0 0 0 0c0.8 0.2 1.6 0.5 2.2 0.9 2.5 1.7 6.5 17.7 6.1 24.4z"/>
					</g>
					<g id="&lt;Group&gt;">
						<path id="&lt;Path&gt;" class="s10" d="m1394.1 551.6c-6.7-6.4-18.8-3.5-18.8-3.5l2.7-2.9c12.1-2.4 19.3 4.5 19.3 4.5z"/>
					</g>
					<g id="&lt;Group&gt;">
						<path id="&lt;Path&gt;" class="s10" d="m1376.3 582.5c0 0 7.3 12.8 27 6.5l2 4.8c0 0-23.4 6.6-31.4-6.3z"/>
					</g>
					<g id="&lt;Group&gt;">
						<path id="&lt;Path&gt;" class="s18" d="m1392.7 559.2c3.7 6-14.2 35.2-17.2 38.6-10.5 11.9-26.5 10.3-26.5 10.3-3.3-1.3-4.9-6.3-4.9-6.3 4.3-3.2 14.4-12.1 17.1-16.7 6.6-11.4 9.6-27 10.9-30.4 1.8-4.6 6.8-4.1 6.8-4.1 0 0 10.1 2.6 13.8 8.6z"/>
					</g>
					<g id="&lt;Group&gt;">
						<g id="&lt;Group&gt;">
							<path id="&lt;Path&gt;" class="s27" d="m1405.7 547.9c-0.7 0.7-2.1 2.6-1.7 6 0.7 4.7 2.2 8.1 2.2 8.1l-0.5 0.3c0-0.1-1.6-3.5-2.2-8.3-0.4-3.1 0.6-5 1.4-6z"/>
						</g>
					</g>
					<g id="&lt;Group&gt;">
						<g id="&lt;Group&gt;">
							<path id="&lt;Path&gt;" class="s27" d="m1426.1 585.5l-0.6 0.2c-0.2-0.8-5.8-18.8-5.4-22.2 0.2-2.1 1.5-3.1 2.4-3.7q0.5 0.1 1.1 0.2c-0.7 0.2-2.7 1-3 3.6-0.3 3.2 5.4 21.7 5.5 21.9z"/>
						</g>
					</g>
					<g id="&lt;Group&gt;">
						<path id="&lt;Path&gt;" class="s27" d="m1412.4 574.5l4.6 14.5c-4.2 2.8-11.1 2.6-11.1 2.6l-4.9-14.1c7.6-0.1 11.4-3 11.4-3z"/>
					</g>
					<g id="&lt;Group&gt;">
						<path id="&lt;Path&gt;" class="s27" d="m1431.9 585.3q-0.1 0.9-0.2 1.6c-1.7 6.2-22.7 10.9-25.1 8.7q-0.6-0.7-1.3-1.8c0.2 0 12.1-0.4 26.6-8.5z"/>
					</g>
					<g id="&lt;Group&gt;">
						<path id="&lt;Path&gt;" class="s36" d="m1412.4 574.5l1.3 4-4.7 3.6-6.6-0.4-1.4-4.2c4-1.5 11.4-3 11.4-3z"/>
					</g>
					<g id="&lt;Group&gt;">
						<path id="&lt;Path&gt;" class="s28" d="m1408 580.9c0-0.2 0.2-0.4 0.4-0.4 0.3 0 0.4 0.2 0.4 0.4 0 0.2-0.1 0.4-0.4 0.4-0.2 0-0.4-0.2-0.4-0.4z"/>
					</g>
				</g>
				<g id="&lt;Group&gt;">
					<path id="&lt;Path&gt;" class="s18" d="m1139.4 820.7h616.7v15.5h-616.7z"/>
				</g>
				<g id="&lt;Group&gt;">
					<path id="&lt;Path&gt;" class="s18" d="m1139.4 852h616.7v15.5h-616.7z"/>
				</g>
				<g id="&lt;Group&gt;">
					<path id="&lt;Path&gt;" class="s18" d="m1414.1 883.3h342v15.5h-342z"/>
				</g>
				<g id="&lt;Group&gt;">
					<path id="&lt;Path&gt;" class="s18" d="m1344.2 914.6h265.2v15.5h-265.2z"/>
				</g>
				<g id="&lt;Group&gt;">
					<path id="&lt;Path&gt;" class="s18" d="m1414.1 945.9h342v15.5h-342z"/>
				</g>
				<g id="&lt;Group&gt;">
					<path id="&lt;Path&gt;" class="s18" d="m985.9 702.7h-163.3v-7.7h163.3z"/>
				</g>
				<g id="&lt;Group&gt;">
					<path id="&lt;Path&gt;" class="s18" d="m1019.6 713h-18v-18h18z"/>
				</g>
				<g id="&lt;Group&gt;">
					<path id="&lt;Path&gt;" class="s37" d="m958.6 702.7h-75v-7.7h75z"/>
				</g>
				<g id="&lt;Group&gt;">
					<path id="&lt;Path&gt;" class="s18" d="m985.9 660.2h-163.3v-7.7h163.3z"/>
				</g>
				<g id="&lt;Group&gt;">
					<path id="&lt;Path&gt;" class="s18" d="m1019.6 670.5h-18v-18h18z"/>
				</g>
				<g id="&lt;Group&gt;">
					<path id="&lt;Path&gt;" class="s37" d="m896.1 660.2h-52.1v-7.7h52.1z"/>
				</g>
				<g id="&lt;Group&gt;">
					<path id="&lt;Path&gt;" class="s18" d="m985.9 617.7h-163.3v-7.7h163.3z"/>
				</g>
				<g id="&lt;Group&gt;">
					<path id="&lt;Path&gt;" class="s34" d="m1019.6 628h-18v-18h18z"/>
				</g>
				<g id="&lt;Group&gt;">
					<path id="&lt;Path&gt;" class="s34" d="m955.6 617.7h-52.2v-7.7h52.2z"/>
				</g>
				<g id="&lt;Group&gt;">
					<path id="&lt;Path&gt;" class="s18" d="m985.9 575.2h-163.3v-7.7h163.3z"/>
				</g>
				<g id="&lt;Group&gt;">
					<path id="&lt;Path&gt;" class="s34" d="m1019.6 585.5h-18v-18h18z"/>
				</g>
				<g id="&lt;Group&gt;">
					<path id="&lt;Path&gt;" class="s34" d="m923.3 575.2h-79.3v-7.7h79.3z"/>
				</g>
				<g id="&lt;Group&gt;">
					<path id="&lt;Path&gt;" class="s18" d="m985.9 532.7h-163.3v-7.7h163.3z"/>
				</g>
				<g id="&lt;Group&gt;">
					<path id="&lt;Path&gt;" class="s37" d="m1019.6 543h-18v-18h18z"/>
				</g>
				<g id="&lt;Group&gt;">
					<path id="&lt;Path&gt;" class="s37" d="m969.2 532.7h-69.6v-7.7h69.6z"/>
				</g>
				<g id="&lt;Group&gt;">
					<g id="&lt;Group&gt;">
						<path id="&lt;Path&gt;" class="s18" d="m912 807.5h-15.9v-15.9h15.9z"/>
					</g>
					<g id="&lt;Group&gt;">
						<path id="&lt;Path&gt;" class="s18" d="m940.3 807.5h-15.8v-15.9h15.8z"/>
					</g>
					<g id="&lt;Group&gt;">
						<path id="&lt;Path&gt;" class="s18" d="m1034 799.5h-82.7v-5.8h82.7z"/>
					</g>
					<g id="&lt;Group&gt;">
						<path id="&lt;Path&gt;" class="s18" d="m872.5 789.6l13 9.9-13 7.6z"/>
					</g>
				</g>
				<g id="&lt;Group&gt;">
					<path id="&lt;Path&gt;" class="s34" d="m912 837.8h-15.9v-15.8h15.9z"/>
				</g>
				<g id="&lt;Group&gt;">
					<path id="&lt;Path&gt;" class="s18" d="m940.3 837.8h-15.8v-15.8h15.8z"/>
				</g>
				<g id="&lt;Group&gt;">
					<path id="&lt;Path&gt;" class="s18" d="m1034 829.9h-82.7v-5.9h82.7z"/>
				</g>
				<g id="&lt;Group&gt;">
					<path id="&lt;Path&gt;" class="s18" d="m872.5 820l13 9.9-13 7.6z"/>
				</g>
				<g id="&lt;Group&gt;">
					<path id="&lt;Path&gt;" class="s37" d="m912 868.2h-15.9v-15.9h15.9z"/>
				</g>
				<g id="&lt;Group&gt;">
					<path id="&lt;Path&gt;" class="s18" d="m940.3 868.2h-15.8v-15.9h15.8z"/>
				</g>
				<g id="&lt;Group&gt;">
					<path id="&lt;Path&gt;" class="s18" d="m1034 860.2h-82.7v-5.8h82.7z"/>
				</g>
				<g id="&lt;Group&gt;">
					<path id="&lt;Path&gt;" class="s18" d="m872.5 850.3l13 9.9-13 7.6z"/>
				</g>
				<g id="&lt;Group&gt;">
					<path id="&lt;Path&gt;" class="s37" d="m912 898.5h-15.9v-15.8h15.9z"/>
				</g>
				<g id="&lt;Group&gt;">
					<path id="&lt;Path&gt;" class="s18" d="m940.3 898.5h-15.8v-15.8h15.8z"/>
				</g>
				<g id="&lt;Group&gt;">
					<path id="&lt;Path&gt;" class="s18" d="m1034 890.6h-82.7v-5.9h82.7z"/>
				</g>
				<g id="&lt;Group&gt;">
					<path id="&lt;Path&gt;" class="s18" d="m872.5 880.7l13 9.9-13 7.6z"/>
				</g>
				<g id="&lt;Group&gt;">
					<path id="&lt;Path&gt;" class="s34" d="m912 928.9h-15.9v-15.9h15.9z"/>
				</g>
				<g id="&lt;Group&gt;">
					<path id="&lt;Path&gt;" class="s18" d="m940.3 928.9h-15.8v-15.9h15.8z"/>
				</g>
				<g id="&lt;Group&gt;">
					<path id="&lt;Path&gt;" class="s18" d="m1034 920.9h-82.7v-5.9h82.7z"/>
				</g>
				<g id="&lt;Group&gt;">
					<path id="&lt;Path&gt;" class="s18" d="m872.5 911l13 9.9-13 7.6z"/>
				</g>
				<g id="&lt;Group&gt;">
					<path id="&lt;Path&gt;" class="s34" d="m912 959.2h-15.9v-15.9h15.9z"/>
				</g>
				<g id="&lt;Group&gt;">
					<path id="&lt;Path&gt;" class="s18" d="m940.3 959.2h-15.8v-15.9h15.8z"/>
				</g>
				<g id="&lt;Group&gt;">
					<path id="&lt;Path&gt;" class="s18" d="m1034 951.3h-82.7v-5.9h82.7z"/>
				</g>
				<g id="&lt;Group&gt;">
					<path id="&lt;Path&gt;" class="s18" d="m872.5 941.4l13 9.9-13 7.6z"/>
				</g>
				<g id="&lt;Group&gt;" style="opacity: .5">
					<g id="&lt;Group&gt;">
						<path id="&lt;Path&gt;" class="s14" d="m820.1 798.4c0 0 4.2-5.4 9.9-5.4 5.8 0 9.3 5.4 9.3 5.4 0 0-3 5.4-9.3 5.4-6.7 0-9.9-5.4-9.9-5.4z"/>
					</g>
					<g id="&lt;Group&gt;">
						<path id="&lt;Path&gt;" class="s38" d="m826 798.4c0-2.1 1.7-3.8 3.7-3.8 2.1 0 3.8 1.7 3.8 3.8 0 2-1.7 3.7-3.8 3.7-2 0-3.7-1.7-3.7-3.7z"/>
					</g>
					<g id="&lt;Group&gt;">
						<path id="&lt;Path&gt;" class="s14" d="m827.4 798.4c0-1.3 1.1-2.3 2.3-2.3 1.3 0 2.3 1 2.3 2.3 0 1.2-1 2.3-2.3 2.3-1.2 0-2.3-1.1-2.3-2.3z"/>
					</g>
				</g>
				<g id="&lt;Group&gt;" style="opacity: .5">
					<g id="&lt;Group&gt;">
						<path id="&lt;Path&gt;" class="s14" d="m820.1 828.7c0 0 4.2-5.4 9.9-5.4 5.8 0 9.3 5.4 9.3 5.4 0 0-3 5.4-9.3 5.4-6.7 0-9.9-5.4-9.9-5.4z"/>
					</g>
					<g id="&lt;Group&gt;">
						<path id="&lt;Path&gt;" class="s38" d="m826 828.7c0-2 1.7-3.7 3.7-3.7 2.1 0 3.8 1.7 3.8 3.7 0 2.1-1.7 3.8-3.8 3.8-2 0-3.7-1.7-3.7-3.8z"/>
					</g>
					<g id="&lt;Group&gt;">
						<path id="&lt;Path&gt;" class="s14" d="m827.4 828.7c0-1.2 1.1-2.3 2.3-2.3 1.3 0 2.3 1.1 2.3 2.3 0 1.3-1 2.3-2.3 2.3-1.2 0-2.3-1-2.3-2.3z"/>
					</g>
				</g>
				<g id="&lt;Group&gt;" style="opacity: .5">
					<g id="&lt;Group&gt;">
						<path id="&lt;Path&gt;" class="s14" d="m820.1 859.1c0 0 4.2-5.4 9.9-5.4 5.8 0 9.3 5.4 9.3 5.4 0 0-3 5.4-9.3 5.4-6.7 0-9.9-5.4-9.9-5.4z"/>
					</g>
					<g id="&lt;Group&gt;">
						<path id="&lt;Path&gt;" class="s38" d="m826 859.1c0-2.1 1.7-3.8 3.7-3.8 2.1 0 3.8 1.7 3.8 3.8 0 2-1.7 3.7-3.8 3.7-2 0-3.7-1.7-3.7-3.7z"/>
					</g>
					<g id="&lt;Group&gt;">
						<path id="&lt;Path&gt;" class="s14" d="m827.4 859.1c0-1.3 1.1-2.3 2.3-2.3 1.3 0 2.3 1 2.3 2.3 0 1.2-1 2.3-2.3 2.3-1.2 0-2.3-1.1-2.3-2.3z"/>
					</g>
				</g>
				<g id="&lt;Group&gt;" style="opacity: .5">
					<g id="&lt;Group&gt;">
						<path id="&lt;Path&gt;" class="s14" d="m820.1 889.4c0 0 4.2-5.4 9.9-5.4 5.8 0 9.3 5.4 9.3 5.4 0 0-3 5.4-9.3 5.4-6.7 0-9.9-5.4-9.9-5.4z"/>
					</g>
					<g id="&lt;Group&gt;">
						<path id="&lt;Path&gt;" class="s38" d="m826 889.4c0-2 1.7-3.7 3.7-3.7 2.1 0 3.8 1.7 3.8 3.7 0 2.1-1.7 3.8-3.8 3.8-2 0-3.7-1.7-3.7-3.8z"/>
					</g>
					<g id="&lt;Group&gt;">
						<path id="&lt;Path&gt;" class="s14" d="m827.4 889.4c0-1.2 1.1-2.3 2.3-2.3 1.3 0 2.3 1.1 2.3 2.3 0 1.3-1 2.3-2.3 2.3-1.2 0-2.3-1-2.3-2.3z"/>
					</g>
				</g>
				<g id="&lt;Group&gt;" style="opacity: .5">
					<g id="&lt;Group&gt;">
						<path id="&lt;Path&gt;" class="s14" d="m820.1 919.8c0 0 4.2-5.4 9.9-5.4 5.8 0 9.3 5.4 9.3 5.4 0 0-3 5.4-9.3 5.4-6.7 0-9.9-5.4-9.9-5.4z"/>
					</g>
					<g id="&lt;Group&gt;">
						<path id="&lt;Path&gt;" class="s38" d="m826 919.8c0-2.1 1.7-3.8 3.7-3.8 2.1 0 3.8 1.7 3.8 3.8 0 2-1.7 3.7-3.8 3.7-2 0-3.7-1.7-3.7-3.7z"/>
					</g>
					<g id="&lt;Group&gt;">
						<path id="&lt;Path&gt;" class="s14" d="m827.4 919.8c0-1.3 1.1-2.3 2.3-2.3 1.3 0 2.3 1 2.3 2.3 0 1.2-1 2.3-2.3 2.3-1.2 0-2.3-1.1-2.3-2.3z"/>
					</g>
				</g>
				<g id="&lt;Group&gt;" style="opacity: .5">
					<g id="&lt;Group&gt;">
						<path id="&lt;Path&gt;" class="s14" d="m820.1 950.1c0 0 4.2-5.4 9.9-5.4 5.8 0 9.3 5.4 9.3 5.4 0 0-3 5.4-9.3 5.4-6.7 0-9.9-5.4-9.9-5.4z"/>
					</g>
					<g id="&lt;Group&gt;">
						<path id="&lt;Path&gt;" class="s38" d="m826 950.1c0-2.1 1.7-3.7 3.7-3.7 2.1 0 3.8 1.6 3.8 3.7 0 2.1-1.7 3.8-3.8 3.8-2 0-3.7-1.7-3.7-3.8z"/>
					</g>
					<g id="&lt;Group&gt;">
						<path id="&lt;Path&gt;" class="s14" d="m827.4 950.1c0-1.2 1.1-2.3 2.3-2.3 1.3 0 2.3 1.1 2.3 2.3 0 1.3-1 2.3-2.3 2.3-1.2 0-2.3-1-2.3-2.3z"/>
					</g>
				</g>
				<g id="&lt;Group&gt;">
					<path id="&lt;Path&gt;" class="s10" d="m1521.1 914.6h235v15.5h-235z"/>
				</g>
				<g id="&lt;Group&gt;">
					<path id="&lt;Path&gt;" class="s10" d="m1562.6 883.3h136.5v15.5h-136.5z"/>
				</g>
				<g id="&lt;Group&gt;">
					<path id="&lt;Path&gt;" class="s10" d="m1547.6 820.7h157.9v15.5h-157.9z"/>
				</g>
				<g id="&lt;Group&gt;">
					<path id="&lt;Path&gt;" class="s34" d="m1595.6 852h136.5v15.5h-136.5z"/>
				</g>
				<g id="&lt;Group&gt;">
					<g id="&lt;Group&gt;">
						<path id="&lt;Path&gt;" class="s38" d="m1220.9 591.3c-32.3-41.3-68.2-42.7-68.6-42.7v-0.9c0.4 0 36.7 1.4 69.3 43z"/>
					</g>
					<g id="&lt;Group&gt;">
						<path id="&lt;Path&gt;" class="s37" d="m1148.1 548.1c0-2.1 1.7-3.8 3.9-3.8 2.1 0 3.8 1.7 3.8 3.8 0 2.1-1.7 3.9-3.8 3.9-2.2 0-3.9-1.8-3.9-3.9z"/>
					</g>
					<g id="&lt;Group&gt;">
						<path id="&lt;Path&gt;" class="s37" d="m1217.4 590.6c0-2.1 1.7-3.8 3.8-3.8 2.1 0 3.9 1.7 3.9 3.8 0 2.1-1.8 3.8-3.9 3.8-2.1 0-3.8-1.7-3.8-3.8z"/>
					</g>
				</g>
				<g id="&lt;Group&gt;">
					<g id="&lt;Group&gt;">
						<path id="&lt;Path&gt;" class="s38" d="m1230.5 540.2l-0.7-0.7c0.2-0.2 24.2-27.6 77-26.9v0.9c-52.4-0.7-76 26.4-76.3 26.7z"/>
					</g>
					<g id="&lt;Group&gt;">
						<path id="&lt;Path&gt;" class="s37" d="m1227.5 543.1c-1.6-1.3-1.9-3.7-0.5-5.4 1.3-1.6 3.7-1.9 5.3-0.6 1.7 1.4 2 3.8 0.6 5.4-1.3 1.7-3.7 1.9-5.4 0.6z"/>
					</g>
					<g id="&lt;Group&gt;">
						<path id="&lt;Path&gt;" class="s37" d="m1304.1 515.8c-1.7-1.3-1.9-3.7-0.6-5.4 1.3-1.6 3.7-1.9 5.4-0.6 1.6 1.4 1.9 3.8 0.6 5.4-1.4 1.7-3.8 1.9-5.4 0.6z"/>
					</g>
				</g>
				<g id="&lt;Group&gt;">
					<g id="&lt;Group&gt;">
						<path id="&lt;Path&gt;" class="s38" d="m1475 540l-0.8-0.7c0.3-0.3 27.4-31 90.9-26.9l-0.1 1.1c-62.9-4.1-89.7 26.2-90 26.5z"/>
					</g>
					<g id="&lt;Group&gt;">
						<path id="&lt;Path&gt;" class="s37" d="m1471.7 543.4c-2.1-1.7-2.5-4.6-1.1-6.4 1.5-1.9 4.4-2 6.5-0.4 2 1.7 2.5 4.5 1 6.4-1.5 1.9-4.4 2-6.4 0.4z"/>
					</g>
					<g id="&lt;Group&gt;">
						<path id="&lt;Path&gt;" class="s37" d="m1561.9 516c-2-1.7-2.5-4.5-1-6.4 1.5-1.9 4.4-2 6.5-0.4 2 1.7 2.5 4.6 1 6.4-1.5 1.9-4.4 2-6.5 0.4z"/>
					</g>
				</g>
				<g id="&lt;Group&gt;">
					<path id="&lt;Path&gt;" class="s38" d="m1430.5 555.3h-64.5v-0.9h64.5z"/>
				</g>
				<g id="&lt;Group&gt;">
					<path id="&lt;Path&gt;" class="s39" d="m1362.2 554.9c0-2.1 1.7-3.9 3.8-3.9 2.2 0 3.9 1.8 3.9 3.9 0 2.1-1.7 3.8-3.9 3.8-2.1 0-3.8-1.7-3.8-3.8z"/>
				</g>
				<g id="&lt;Group&gt;">
					<path id="&lt;Path&gt;" class="s39" d="m1426.6 554.9c0-2.1 1.8-3.9 3.9-3.9 2.1 0 3.8 1.8 3.8 3.9 0 2.1-1.7 3.8-3.8 3.8-2.1 0-3.9-1.7-3.9-3.8z"/>
				</g>
				<g id="&lt;Group&gt;">
					<g id="&lt;Group&gt;">
						<path id="&lt;Path&gt;" class="s37" d="m1499 800.1l6.6 6.5-6.6 6.6-6.6-6.6z"/>
					</g>
				</g>
				<g id="&lt;Group&gt;">
					<path id="&lt;Path&gt;" class="s38" d="m1329.8 671.5c-36.7 0-75.4-6.5-106.8-13.5-56.9-12.8-102.6-30.3-103.1-30.5l0.4-0.9c0.4 0.2 46.1 17.7 102.9 30.5 52.5 11.8 125.3 21.8 174.9 2.9 49.7-19 102.4-16.2 137.9-10.6 38.3 6.1 65.3 16.9 65.6 17l-0.4 0.9c-0.2-0.2-27.1-10.9-65.4-17-35.3-5.6-87.8-8.3-137.4 10.6-20 7.6-43.9 10.6-68.6 10.6z"/>
				</g>
				<g id="&lt;Group&gt;">
					<path id="&lt;Path&gt;" class="s40" d="m1404.9 657c0-2.1 1.7-3.8 3.8-3.8 2.2 0 3.9 1.7 3.9 3.8 0 2.2-1.7 3.9-3.9 3.9-2.1 0-3.8-1.7-3.8-3.9z"/>
				</g>
				<g id="&lt;Group&gt;">
					<path id="&lt;Path&gt;" class="s40" d="m1298.6 670.5c0-2.1 1.7-3.8 3.8-3.8 2.1 0 3.9 1.7 3.9 3.8 0 2.1-1.8 3.9-3.9 3.9-2.1 0-3.8-1.8-3.8-3.9z"/>
				</g>
				<g id="&lt;Group&gt;">
					<g id="&lt;Group&gt;">
						<path id="&lt;Path&gt;" class="s38" d="m1323.2 764.4c-7.9 0-16.7-1.4-25.5-5.4l0.3-0.9c26.5 12.2 53.1-0.2 53.3-0.3l0.4 0.8c-0.1 0.1-12.4 5.8-28.5 5.8z"/>
					</g>
					<g id="&lt;Group&gt;">
						<path id="&lt;Path&gt;" class="s37" d="m1354 761.2c-1.7 1.3-4.1 1.1-5.4-0.6-1.4-1.6-1.1-4.1 0.5-5.4 1.7-1.3 4.1-1.1 5.4 0.6 1.4 1.6 1.1 4.1-0.5 5.4z"/>
					</g>
					<g id="&lt;Group&gt;">
						<path id="&lt;Path&gt;" class="s37" d="m1300.3 761.5c-1.7 1.3-4.1 1.1-5.4-0.6-1.4-1.6-1.1-4 0.5-5.3 1.7-1.4 4.1-1.1 5.4 0.5 1.4 1.7 1.1 4.1-0.5 5.4z"/>
					</g>
				</g>
				<g id="&lt;Group&gt;">
					<g id="&lt;Group&gt;">
						<path id="&lt;Path&gt;" class="s38" d="m1449.9 764.4c-7.9 0-16.7-1.4-25.5-5.4l0.3-0.9c26.5 12.2 53.1-0.2 53.4-0.3l0.4 0.8c-0.2 0.1-12.4 5.8-28.6 5.8z"/>
					</g>
					<g id="&lt;Group&gt;">
						<path id="&lt;Path&gt;" class="s37" d="m1480.7 761.2c-1.7 1.3-4.1 1.1-5.4-0.6-1.4-1.6-1.1-4.1 0.5-5.4 1.7-1.3 4.1-1.1 5.4 0.6 1.4 1.6 1.1 4.1-0.5 5.4z"/>
					</g>
					<g id="&lt;Group&gt;">
						<path id="&lt;Path&gt;" class="s37" d="m1427 761.5c-1.7 1.3-4.1 1.1-5.4-0.6-1.4-1.6-1.1-4 0.5-5.3 1.7-1.4 4.1-1.1 5.4 0.5 1.4 1.7 1.1 4.1-0.5 5.4z"/>
					</g>
				</g>
				<g id="&lt;Group&gt;" style="opacity: .3">
					<path id="&lt;Path&gt;" class="s18" d="m1616.8 623.1v131.3l-46.9-6.1c0 0-4.2-27.7 15.8-36.5 18.5-8.1 6-79.3 31.1-88.7z"/>
				</g>
				<g id="&lt;Group&gt;">
					<path id="&lt;Path&gt;" class="s37" d="m1595.3 666.8c0-2.1 1.7-3.8 3.9-3.8 2.1 0 3.8 1.7 3.8 3.8 0 2.1-1.7 3.9-3.8 3.9-2.2 0-3.9-1.8-3.9-3.9z"/>
				</g>
				<g id="&lt;Group&gt;">
					<path id="&lt;Path&gt;" class="s37" d="m1117.2 627.1c0-2.1 1.7-3.9 3.8-3.9 2.2 0 3.9 1.8 3.9 3.9 0 2.1-1.7 3.8-3.9 3.8-2.1 0-3.8-1.7-3.8-3.8z"/>
				</g>
			</g>
			<g id="&lt;Group&gt;" style="opacity: .1">
				<path id="&lt;Path&gt;" class="s14" d="m1907 771.6h-247.5v-281.1h247.5z"/>
			</g>
			<g id="&lt;Group&gt;">
				<g id="&lt;Group&gt;">
					<g id="&lt;Group&gt;">
						<path id="&lt;Path&gt;" class="s18" d="m1801.9 510.9h-120.9v-3.5h120.9z"/>
					</g>
					<g id="&lt;Group&gt;">
						<path id="&lt;Path&gt;" class="s18" d="m1774.5 519.4h-93.5v-3.4h93.5z"/>
					</g>
				</g>
				<g id="&lt;Group&gt;">
					<path id="&lt;Path&gt;" class="s18" d="m1872 516h-6.5v-6.6h6.5z"/>
				</g>
				<g id="&lt;Group&gt;">
					<g id="&lt;Group&gt;">
						<path id="&lt;Path&gt;" class="s18" d="m1801.9 549h-120.9v-3.5h120.9z"/>
					</g>
					<g id="&lt;Group&gt;">
						<path id="&lt;Path&gt;" class="s18" d="m1774.5 557.6h-93.5v-3.5h93.5z"/>
					</g>
				</g>
				<g id="&lt;Group&gt;">
					<path id="&lt;Path&gt;" class="s18" d="m1872 554.1h-6.5v-6.6h6.5z"/>
				</g>
				<g id="&lt;Group&gt;">
					<g id="&lt;Group&gt;">
						<path id="&lt;Path&gt;" class="s18" d="m1801.9 587.1h-120.9v-3.4h120.9z"/>
					</g>
					<g id="&lt;Group&gt;">
						<path id="&lt;Path&gt;" class="s18" d="m1774.5 595.7h-93.5v-3.5h93.5z"/>
					</g>
				</g>
				<g id="&lt;Group&gt;">
					<path id="&lt;Path&gt;" class="s18" d="m1872 592.2h-6.5v-6.5h6.5z"/>
				</g>
				<g id="&lt;Group&gt;">
					<g id="&lt;Group&gt;">
						<path id="&lt;Path&gt;" class="s18" d="m1801.9 625.2h-120.9v-3.4h120.9z"/>
					</g>
					<g id="&lt;Group&gt;">
						<path id="&lt;Path&gt;" class="s18" d="m1774.5 633.8h-93.5v-3.4h93.5z"/>
					</g>
				</g>
				<g id="&lt;Group&gt;">
					<path id="&lt;Path&gt;" class="s18" d="m1872 630.3h-6.5v-6.5h6.5z"/>
				</g>
				<g id="&lt;Group&gt;">
					<g id="&lt;Group&gt;">
						<path id="&lt;Path&gt;" class="s18" d="m1801.9 663.4h-120.9v-3.5h120.9z"/>
					</g>
					<g id="&lt;Group&gt;">
						<path id="&lt;Path&gt;" class="s18" d="m1774.5 672h-93.5v-3.5h93.5z"/>
					</g>
				</g>
				<g id="&lt;Group&gt;">
					<path id="&lt;Path&gt;" class="s18" d="m1872 668.5h-6.5v-6.6h6.5z"/>
				</g>
				<g id="&lt;Group&gt;">
					<path id="&lt;Path&gt;" class="s18" d="m1872 703.1h-6.5v-6.6h6.5z"/>
				</g>
				<g id="&lt;Group&gt;">
					<g id="&lt;Group&gt;">
						<path id="&lt;Path&gt;" class="s18" d="m1801.9 701.5h-120.9v-3.4h120.9z"/>
					</g>
					<g id="&lt;Group&gt;">
						<path id="&lt;Path&gt;" class="s18" d="m1774.5 710.1h-93.5v-3.5h93.5z"/>
					</g>
				</g>
				<g id="&lt;Group&gt;">
					<g id="&lt;Group&gt;">
						<path id="&lt;Path&gt;" class="s18" d="m1801.9 739.6h-120.9v-3.4h120.9z"/>
					</g>
					<g id="&lt;Group&gt;">
						<path id="&lt;Path&gt;" class="s18" d="m1774.5 748.2h-93.5v-3.4h93.5z"/>
					</g>
				</g>
				<g id="&lt;Group&gt;">
					<path id="&lt;Path&gt;" class="s18" d="m1872 744.7h-6.5v-6.5h6.5z"/>
				</g>
			</g>
			<g id="&lt;Group&gt;">
				<g id="&lt;Group&gt;">
					<g id="&lt;Group&gt;">
						<path id="&lt;Path&gt;" class="s41" d="m1785.6 1347c-5.6 19.1-26.5 37.3-32.6 32.8-6-4.5 11.2-47.2 11.2-47.2 0 0 26.9-4.8 21.4 14.4z"/>
					</g>
					<g id="&lt;Group&gt;">
						<path id="&lt;Path&gt;" class="s32" d="m2117.3 1620.7c-76.4 0-156.2 0-231.7 0-2.9-7-6-14.4-9.2-21.9-20.9-48.7-47.2-103.6-61.8-110.1-26.9-12-43-1.5-76.5-40.6-33.4-39-54.7-52.3-41.6-61.3 13.2-9 56.5 24.9 68.6 23.4 9.6-1.2 14.7-24.6 13.9-49.3-0.2-6.5-0.8-13-1.9-19.3q-0.7-4.8-1.8-9.2c-1.2-4.7-2.6-9-4.3-12.9-3.3-7.5-3-12.6-0.5-16.1 7.5-10.3 34.9-5.3 45.3-2.9 4.6 1.1 18.9-7.5 28.9-2.6 15.5 7.7 24.6-1.2 34.9 5.5 7.3 4.7 22.3 6.9 27.5 13.6 9.8 12.9 12.3 40.2 21.9 65.4 8.8 23.3 11.9 47.7 42.4 89 13.6 18.4 55.6 61.1 98 102.8 16.5 16.1 33 32.1 47.9 46.5z"/>
					</g>
					<g id="&lt;Group&gt;">
						<path id="&lt;Path&gt;" class="s32" d="m1778.6 1340.7c-34.4 22-55.5 28.9-63.8 21.9-8.2-7 55.5-59.2 55.5-59.2 0 0 42.7 15.2 8.3 37.3z"/>
					</g>
				</g>
				<g id="&lt;Group&gt;">
					<path id="&lt;Path&gt;" class="s4" d="m2136.4 1620.7h-19.1c-76.4 0-156.2 0-231.7 0h-22.5l-2.6-5.4c0 0 5.3-7.2 15.9-16.5 27.9-24.4 92.3-63.2 193-24.6q6.7 2.5 13.7 5.6z"/>
				</g>
			</g>
			<g id="&lt;Group&gt;">
				<g id="&lt;Group&gt;">
					<g id="&lt;Group&gt;">
						<path id="&lt;Path&gt;" class="s41" d="m1094 1359.3c0 0 11.1 44.7 4.4 48.3-6.6 3.5-24.8-17.4-27.5-37.1-2.8-19.7 23.1-11.2 23.1-11.2z"/>
					</g>
					<g id="&lt;Group&gt;">
						<path id="&lt;Path&gt;" class="s32" d="m1103.6 1477.3c-38.7 33.9-53.2 21.3-81.5 29.4-15.4 4.3-49.1 55-76.7 100.2q-3.6 5.9-6.9 11.5c-91.2-0.3-182.5-0.6-266.6-0.9 22.8-16.3 54.4-39 85.9-62.2 47.9-35.3 95.5-71.6 111.5-87.9 36-36.6 42.5-60.3 54.6-82.2 12.9-23.2 12.5-50.6 30.3-50.3 8.8 0.1 16.5-11.3 24.6-15.1 11.2-5.1 21.8 6.3 38.3 0.9 10.6-3.4 25.1 5.9 29.8 5.5 9.1-0.8 31.1-4.2 41.1 0.9 5.5 2.9 7.3 8.3 1.2 18.3-2.2 3.6-4.3 7.7-6.1 12.1q-1.5 3.8-2.8 7.8c-2 6.4-3.7 13.1-4.9 19.9-4.2 24.3-2.6 48.2 6.8 50.8 11.7 3.1 60.2-29.4 71.9-18.6 11.7 10.8-11.9 26-50.5 59.9z"/>
					</g>
					<g id="&lt;Group&gt;">
						<path id="&lt;Path&gt;" class="s32" d="m1087 1326.8c0 0 96.3 28.7 91.3 38.3-5 9.7-55.4 8-95.6 0.7-40.2-7.4 4.3-39 4.3-39z"/>
					</g>
				</g>
				<g id="&lt;Group&gt;">
					<path id="&lt;Path&gt;" class="s4" d="m954.4 1618.5q-8-0.1-15.9-0.1c-91.2-0.3-182.5-0.6-266.6-0.9q-16.3-0.1-32.3-0.2l103.9-58.4q7.2-2 14.3-3.6c105.2-24 163.5 23.6 187.6 51.6 3.8 4.5 6.8 8.5 9 11.6z"/>
				</g>
			</g>
			<g id="&lt;Group&gt;">
				<g id="&lt;Group&gt;">
					<path id="&lt;Path&gt;" class="s4" d="m1462.8 1531.4h211.8c4.1 0 7.9 1.7 10.6 4.4 2.8 2.8 4.4 6.5 4.4 10.7 0 8.3-6.7 15-15 15h-211.8c-4.2 0-8-1.6-10.7-4.4q-1.5-1.5-2.6-3.4c-0.9-1.6-1.4-3.5-1.7-5.4q-0.1-0.9-0.1-1.8c0-8.3 6.7-15.1 15.1-15.1z"/>
				</g>
				<g id="&lt;Group&gt;">
					<path id="&lt;Path&gt;" class="s4" d="m1461.5 1526.4c0-1.3 1.1-2.3 2.4-2.3h72.6c1.3 0 2.3 1 2.3 2.3 0 1.3-1 2.3-2.3 2.3h-72.6c-1.3 0-2.4-1-2.4-2.3z"/>
				</g>
				<g id="&lt;Group&gt;">
					<path id="&lt;Path&gt;" class="s35" d="m1467.9 1528.7h7.8v2.7h-7.8z"/>
				</g>
				<g id="&lt;Group&gt;">
					<path id="&lt;Path&gt;" class="s35" d="m1507.6 1553.7v7.8h-44.8c-4.2 0-8-1.6-10.7-4.4q-1.5-1.5-2.6-3.4z"/>
				</g>
				<g id="&lt;Group&gt;">
					<path id="&lt;Path&gt;" class="s10" d="m1717.7 1542.1v8.8q0 1.4-0.4 2.8c-1.2 4.5-5.4 7.8-10.3 7.8h-220.6c-4.9 0-9.1-3.3-10.3-7.8q-0.4-1.4-0.4-2.8v-8.8c0-5.9 4.8-10.7 10.7-10.7h220.6c5.9 0 10.7 4.8 10.7 10.7z"/>
				</g>
				<g id="&lt;Group&gt;">
					<path id="&lt;Path&gt;" class="s36" d="m1717.3 1553.7c-1.2 4.5-5.4 7.8-10.3 7.8h-220.6c-4.9 0-9.1-3.3-10.3-7.8z"/>
				</g>
				<g id="&lt;Group&gt;">
					<g id="&lt;Group&gt;">
						<path id="&lt;Path&gt;" class="s8" d="m1696 1543.6q0 0 0-0.1c0.5-2.8 1.5-5.3 3.1-7.3 1.4-1.9 3.1-3.3 5.1-4.1q1.7-0.7 3.7-0.7c4.4 0 15.5 6.8 22.4 11.2 3.4 2.3 5.8 3.9 5.8 3.9 0 0-2.4 1.7-5.8 3.9-6.9 4.5-18 11.2-22.4 11.2-2.9 0-5.5-1.2-7.6-3.3q-0.1 0-0.2-0.1c-2.6-2.8-4.3-7-4.3-11.7q0-1.5 0.2-2.9z"/>
					</g>
					<g id="&lt;Group&gt;">
						<path id="&lt;Path&gt;" class="s42" d="m1696 1543.6l38.1 2.9-34 11.7c-2.6-2.8-4.3-7-4.3-11.7q0-1.5 0.2-2.9z"/>
					</g>
					<g id="&lt;Group&gt;">
						<path id="&lt;Path&gt;" class="s43" d="m1704.2 1532.1l28.7 13.3-33.8-9.2c1.4-1.9 3.1-3.3 5.1-4.1z"/>
					</g>
					<g id="&lt;Group&gt;">
						<path id="&lt;Path&gt;" class="s44" d="m1730.3 1542.6c3.4 2.3 5.8 3.9 5.8 3.9 0 0-2.4 1.7-5.8 3.9-1.3-0.5-2.2-2.1-2.2-3.9 0-1.8 0.9-3.3 2.2-3.9z"/>
					</g>
				</g>
			</g>
			<g id="&lt;Group&gt;">
				<g id="&lt;Group&gt;">
					<path id="&lt;Path&gt;" class="s27" d="m321 1476.7c-3.6-5.4-6-10.5-7.6-15.5-6.9-21.6 1.2-41.2 14.9-55.6q0 0 0.1 0 0.9-1 1.9-1.9 2.3-2.3 4.8-4.4c10.2-8.5 22.3-14.4 33.4-16.9 11.4-2.5 19-19.9 33.6-32.4 8.6-7.3 19.6-13 35.1-12.9 24.1 0.1 44.3 19.5 56 35.8 16.8 23.5 22.7 53.5 22.7 53.5-28 44.7-66.1 69-101.8 77.1-9.5 2.2-18.7 3.2-27.6 3.2-28.5-0.1-53-11-65.5-30z"/>
				</g>
				<g id="&lt;Group&gt;">
					<path id="&lt;Path&gt;" class="s45" d="m425.6 1349.6c0 0 20.9-7.3 30.8 5.4 9.9 12.6-3.4 20.4-14.6 18.4-11.1-2-26.6-16.9-16.2-23.8z"/>
				</g>
				<g id="&lt;Group&gt;">
					<path id="&lt;Path&gt;" class="s46" d="m401.3 1464.5c78.5-22.7 91.9-91.6 91.9-91.6 16.8 23.5 22.7 53.5 22.7 53.5 10.5 40.8 1.1 76.2-29.7 96-18.7 12.1-65.9 22.4-91.1 16.3-22.7-5.5-52.7-22.2-74.1-62-3.1-5.7-6-10.5-7.6-15.6 22.2 8.7 52.2 13.7 87.9 3.4z"/>
				</g>
				<g id="&lt;Group&gt;">
					<g id="&lt;Group&gt;">
						<path id="&lt;Path&gt;" class="s12" d="m354.2 1315.9c20.9-6.1 38.5-6.8 38.5-6.8 0 0-13.1 20.6-24.1 28.5-10.9 8-24.4 12.4-24.8 24.9 0 0-10.5-40.5 10.4-46.6z"/>
					</g>
					<g id="&lt;Group&gt;">
						<path id="&lt;Path&gt;" class="s13" d="m354.2 1315.9c20.9-6.1 38.5-6.8 38.5-6.8 0 0-28.2 10.7-36.3 16.4-8.1 5.7-14.1 24-12.6 37 0 0-10.5-40.5 10.4-46.6z"/>
					</g>
				</g>
				<g id="&lt;Group&gt;">
					<path id="&lt;Path&gt;" class="s46" d="m402.1 1350c-0.5 0.9-15.7 22.4-17.5 31.6-1.7 8.6-31.1 3.9-49.5 17.7 10.2-8.5 22.3-14.4 33.4-16.9 11.4-2.5 19-19.9 33.6-32.4z"/>
				</g>
				<g id="&lt;Group&gt;">
					<path id="&lt;Path&gt;" class="s47" d="m328.4 1405.6q0.8-0.7 1.9-1.9-1 0.9-1.9 1.9z"/>
				</g>
				<g id="&lt;Group&gt;">
					<g id="&lt;Group&gt;">
						<path id="&lt;Path&gt;" class="s13" d="m377.4 1383.3c-14.6-16.5-43.5-19.1-56.4-19.4-4.2-0.1-8.1-2.1-10.7-5.3l-2.7-3.3c-1-1.2 0-3 1.6-2.8 7.4 0.9 22.9 2.9 33.6 5.6 13.5 3.5 31.4 10.5 40.5 24.5 1.7 2.5-4.2 2.5-5.9 0.7z"/>
					</g>
				</g>
			</g>
			<g id="&lt;Group&gt;">
				<g id="&lt;Group&gt;">
					<g id="&lt;Group&gt;">
						<path id="&lt;Path&gt;" class="s48" d="m582.5 1286l-14.8 2.4-28.1-175.1 14.8-2.3z"/>
					</g>
					<g id="&lt;Group&gt;">
						<path id="&lt;Path&gt;" class="s49" d="m554.4 1111l-14.8 2.3 2.4-32z"/>
					</g>
				</g>
				<g id="&lt;Group&gt;">
					<g id="&lt;Group&gt;">
						<path id="&lt;Path&gt;" class="s48" d="m682.9 1302.8l-14.8-2.8 32.4-174.3 14.8 2.8z"/>
					</g>
					<g id="&lt;Group&gt;">
						<path id="&lt;Path&gt;" class="s49" d="m715.3 1128.5l-14.8-2.8 13.1-29.3z"/>
					</g>
				</g>
				<g id="&lt;Group&gt;">
					<g id="&lt;Group&gt;">
						<path id="&lt;Path&gt;" class="s48" d="m664.2 1251.6l-14.8-2.7 32.4-174.3 14.7 2.8z"/>
					</g>
					<g id="&lt;Group&gt;">
						<path id="&lt;Path&gt;" class="s49" d="m696.5 1077.4l-14.7-2.8 13-29.3z"/>
					</g>
				</g>
				<g id="&lt;Group&gt;">
					<g id="&lt;Group&gt;">
						<path id="&lt;Path&gt;" class="s27" d="m713.7 1355.6h-118.5v-170.8h118.5z"/>
					</g>
					<g id="&lt;Group&gt;">
						<path id="&lt;Path&gt;" class="s10" d="m654.5 1355.6h-118.5v-170.8h118.5z"/>
					</g>
				</g>
			</g>
			<g id="&lt;Group&gt;">
				<path id="&lt;Path&gt;" class="s12" d="m1873.9 1227.4l-140.7-26.7 24.1-126.8 140.8 26.7z"/>
			</g>
			<g id="&lt;Group&gt;">
				<path id="&lt;Path&gt;" class="s13" d="m1884.3 1129.5l-140.7-26.8 3.4-18.2 140.7 26.7z"/>
			</g>
			<g id="&lt;Group&gt;">
				<g id="&lt;Group&gt;">
					<path id="&lt;Path&gt;" class="s8" d="m980.8 1179.7l-139.3 33.3-30-125.5 139.3-33.3z"/>
				</g>
				<g id="&lt;Group&gt;">
					<path id="&lt;Path&gt;" class="s42" d="m957.4 1081.8l-139.3 33.3-6.6-27.6 139.3-33.3z"/>
				</g>
			</g>
			<g id="&lt;Group&gt;">
				<g id="&lt;Group&gt;">
					<path id="&lt;Path&gt;" class="s50" d="m1997.4 1103.8l-141.1 24.7-22.2-127.1 141.1-24.7z"/>
				</g>
				<g id="&lt;Group&gt;">
					<path id="&lt;Path&gt;" class="s51" d="m1980.1 1004.7l-141.1 24.7-4.9-28 141.1-24.7z"/>
				</g>
			</g>
		</g>
	</g>
</svg>