<svg id="bfe6cfdb-ea1d-4977-a414-0ef2717ee9a5" data-name="Layer 1" xmlns="http://www.w3.org/2000/svg" width="865.76" height="682.89" viewBox="0 0 865.76 682.89"><path d="M261.39,527.35S54.05,545.2,57,381.12c0,0-11.5-128.58,82.9-205.24a190.54,190.54,0,0,1,80.64-38.07c23.61-5,63.91-16,105.46-38.34,0,0,179.52-129.19,372.57-10.16,0,0,145.15,94.32,103.06,252.55,0,0-26.91,167.55-284.89,158.53C516.7,500.39,348.24,522.68,261.39,527.35Z" fill="#0071f2"/><path d="M261.39,527.35S54.05,545.2,57,381.12c0,0-11.5-128.58,82.9-205.24a190.54,190.54,0,0,1,80.64-38.07c23.61-5,63.91-16,105.46-38.34,0,0,179.52-129.19,372.57-10.16,0,0,145.15,94.32,103.06,252.55,0,0-26.91,167.55-284.89,158.53C516.7,500.39,348.24,522.68,261.39,527.35Z" fill="#fff" opacity="0.7" style="isolation:isolate"/><path d="M675.2,328.69H502.32V96.52H675.2Zm-171.4-1.48H673.73V98H503.8Z" fill="#fff"/><path d="M668,319H509.51V106.07H668Zm-157-1.48H666.54v-210H511Z" fill="#fff" opacity="0.7" style="isolation:isolate"/><path d="M630.47,268.47H547.05V156.66h83.42ZM548.53,267H629V158.14H548.53Z" fill="#fff" opacity="0.7" style="isolation:isolate"/><ellipse cx="411.33" cy="601.64" rx="293.99" ry="42.33" fill="#0071f2"/><ellipse cx="411.33" cy="601.64" rx="293.99" ry="42.33" fill="#fff" opacity="0.7" style="isolation:isolate"/><path d="M338,633.17s-2.6,6.44,8.09,4.38c0,0,11.24-3.15,18.5-9.59l-5.17-3.06Z" fill="#2f2e41"/><path d="M338,633.17s-2.6,6.44,8.09,4.38c0,0,11.24-3.15,18.5-9.59l-5.17-3.06Z" opacity="0.2" style="isolation:isolate"/><polygon points="349.68 565.47 353.92 588.45 369.69 601.37 374.55 590.83 370.1 559.31 349.68 565.47" fill="#f9b499"/><path d="M350.89,572s14.09,8.15,21.31,2.16l2.35,16.64-4.86,10.54-15.77-12.92Z" fill="#e6e7e8"/><path d="M384.77,609.74c-15.85,14.13-28.8,20.08-36.64,22.58a35,35,0,0,1-8.18,1.81c-6.3-.28,4.94-12.59,4.94-12.59,8.49-12.32,7.12-27.84,7.12-27.84l.18-3.09a2.38,2.38,0,0,1,2.41-2.26c2.9.08,6.86,2.16,10,4.16a62.59,62.59,0,0,1,5.21,3.66,15.15,15.15,0,0,1,3.9-5,1.61,1.61,0,0,1,2.61,1.05l.2,1.47c.28,3.43,3.43,8.28,3.43,8.28Z" fill="#0071f2"/><path d="M384.77,609.74c-15.85,14.13-28.8,20.08-36.64,22.58,0,0,10.73-9.7,13.27-22.31,0,0,1-13.76,3.22-17.5a62.59,62.59,0,0,1,5.21,3.66,15.17,15.17,0,0,1,3.87-5,1.62,1.62,0,0,1,2.64,1l.2,1.47c.28,3.43,3.43,8.28,3.43,8.28Z" opacity="0.2" style="isolation:isolate"/><polygon points="499.19 605.43 505.76 605.43 501 499.22 488.15 500.95 499.19 605.43" fill="#bcbec0"/><polygon points="523.65 580.06 513.91 490.79 525.92 477.93 530.45 580.06 523.65 580.06" fill="#bcbec0"/><polygon points="381.88 598.77 388.66 598.77 400.54 497.05 386.6 495.6 381.88 598.77" fill="#bcbec0"/><path d="M427.55,558.31l-4.25,14.51-7,24L413,600.91a2.65,2.65,0,0,1-2.23,1.06c-2.64-.21-2.11-4.41-2.11-4.41,1.42-6.28-12.29-6.43-12.29-6.43,2.23-7.55,3.72-18.25,4.61-26.5.77-7.07,1.1-12.35,1.1-12.35l8.15-4.43Z" fill="#f9b499"/><path d="M423.3,572.82l-7,24L413,600.91a2.65,2.65,0,0,1-2.23,1.06c-2.64-.21-2.11-4.41-2.11-4.41,1.42-6.28-12.29-6.43-12.29-6.43,2.23-7.55,3.72-18.25,4.61-26.5A48.22,48.22,0,0,0,423.3,572.82Z" fill="#e6e7e8"/><path d="M396.34,289.16s-27.06-.71-30.56,22.9c0,0-6.55,25.23-10.29,32.71L375.44,366H501.15l-1.47-24.54s-.42-42.26-14.49-49.54l-8.14-3.25-49.25-5.63-16.22-13.32Z" fill="#0071f2"/><path d="M526.25,476.66a10.34,10.34,0,0,1-.33,1.27c-2.92,8.86-17.78,18.8-18.24,19.11h0c-5.21,7.7-21.29,5.89-21.29,5.89l-99.78-3.72c-11.45-1.9-4.64-14.14-4.64-14.14l23.11-58.48-7.48-14.26s67.8-6.91,109.49-6.3c18.21.26,31.44,2,31.85,6.3C540.29,426.61,526.25,476.66,526.25,476.66Z" fill="#d1d3d4"/><path d="M525.91,477.91v0c-3,9-18.25,19.12-18.25,19.12s-14.49.17-10-6.26l11.77-15s.91-3.63,7.25-3.85h8.61A21.91,21.91,0,0,1,525.91,477.91Z" opacity="0.1" style="isolation:isolate"/><path d="M519.22,471.91,507.68,497h0c-5.21,7.7-21.29,5.89-21.29,5.89l-99.78-3.72c-11.45-1.9-4.64-14.14-4.64-14.14l23.11-58.48-7.48-14.26s67.8-6.91,109.49-6.3l1.5,10.15.9,42.35S507.22,468.74,519.22,471.91Z" opacity="0.1" style="isolation:isolate"/><path d="M396.34,410.57s.84,4.86,0,14.89c0,0-4.89,6.8,6.36,6.15l22.25.05s3-13.32,18.81-8.14l50.78,19.1s2.92-21.69,1.62-32.05Z" fill="#0071f2"/><path d="M494.67,456.79c0,33.73-15,37.07-15,37.07h-26c-3.67,7.68-26.05,64.45-26.05,64.45-8.88,1.78-13.68.87-16.12-.17h0a9.47,9.47,0,0,1-1.17-.61A20,20,0,0,0,404,554.8a22.28,22.28,0,0,0-6.8-.46,1.53,1.53,0,0,1-1.67-1.72l3.28-24.7c1.34-16,6.54-25.38,6.54-25.38l11.68-42.28,7.9-28.6c4.08-14.11,18.81-8.14,18.81-8.14l50.78,19.1Z" fill="#2f2e41"/><path d="M455.94,474.82l-7.87,32.12,5.53-13.08h26s12.21-2.28,14.78-30C494.43,463.83,485.32,487.18,455.94,474.82Z" opacity="0.3" style="isolation:isolate"/><path d="M427.55,558.31l20.52-51.37,7.87-32.12-7.87,10.57c-3.86,5.88-4.82,9.47-4.82,9.47-14,44.75-31.81,63.28-31.81,63.28S416.69,560.62,427.55,558.31Z" opacity="0.1" style="isolation:isolate"/><path d="M455.94,474.83l-7.87,10.56s-3.79,6.26-4.82,9.47c0,0-9.2,34.3-31.8,63.28h0a9.47,9.47,0,0,1-1.17-.61A20,20,0,0,0,404,554.8a22.28,22.28,0,0,0-6.8-.46,1.53,1.53,0,0,1-1.67-1.72l3.28-24.7c1.34-16,6.54-25.38,6.54-25.38l11.68-42.28a67.36,67.36,0,0,0,8.65-12s8.67-20.86,20.19-13.72C445.89,434.56,467,443.09,455.94,474.83Z" opacity="0.2" style="isolation:isolate"/><path d="M425,431.66l-14.84,53.73C400,487.64,372,484,372,484c-9.66-1.43-5.77,4.57-5.77,4.57a190.34,190.34,0,0,1,3.39,24.88c.25,3.34.32,5.41.32,5.41L372,558.14c.91,5.86-19.77,8.14-19.77,8.14a7,7,0,0,1-5.27-.9l-.15-.1c-4.37-3-4.87-10.72-4.87-10.72-4.28-21.14-15.71-63.77-15.71-63.77-7.43-23.77-7.15-40.8-7.15-40.8,1-7.82,4.32-13.22,8.7-16.92,9.46-8,24.06-8,32.18-7.29h0a57.64,57.64,0,0,1,6,.82c10.29,2.89,33.42,5,33.42,5l5.44.1C423.12,428.19,425,431.66,425,431.66Z" fill="#2f2e41"/><path d="M409.41,461.42c0,26.16-47.94,8.94-49.66,8.31h0c.14.62,6,25.68,10,43.72.25,3.34.32,5.41.32,5.41L372,558.14c.91,5.86-19.77,8.14-19.77,8.14a7,7,0,0,1-5.27-.9l-.15-.1c-4.37-3-4.87-10.72-4.87-10.72-4.28-21.14-15.71-63.77-15.71-63.77-7.43-23.77-7.15-40.8-7.15-40.8,1-7.82,4.32-13.22,8.7-16.92,9.46-8,24.06-8,32.18-7.29h0a122.58,122.58,0,0,0,22.83,9.07C414.55,440.85,409.41,461.42,409.41,461.42Z" opacity="0.1" style="isolation:isolate"/><path d="M368.64,472.05l-8.89-2.32h0S352,466,355.12,481.13c0,0,16,63.5-8.12,84.25l-.15-.1c-4.37-3-4.87-10.72-4.87-10.72-4.28-21.14-15.71-63.77-15.71-63.77-7.43-23.77-7.15-40.8-7.15-40.8,1-7.82,4.32-13.22,8.7-16.92,0,0,58.73.89,58.73,30.76C386.55,463.83,388.44,476.11,368.64,472.05Z" opacity="0.1" style="isolation:isolate"/><path d="M177,621.53a7,7,0,0,0,3.54-.91,7.11,7.11,0,0,0,3-3.35V416.5H592.24V616.62a10.18,10.18,0,0,0,3.56,3.53,10,10,0,0,0,4.91,1.38v-205a17.94,17.94,0,0,0,3.47-4.86,18.28,18.28,0,0,0,1.75-9.27L177,406Z" fill="#a7a9ac"/><path d="M633.42,368l-27.49,34.39-99.27.84-16.09.14L177,406l23.3-36.8a9.33,9.33,0,0,1,7.88-4.33l424,.61A1.54,1.54,0,0,1,633.42,368Z" fill="#939598"/><ellipse cx="427.8" cy="305.3" rx="20.82" ry="30.8" fill="#f9b499"/><path d="M415.68,283.74s.59,19.07,21,16.37c0,0,5.27-.48,7.48,9.61l5.92-7-12.72-15.43Z" fill="#f7a48b"/><path d="M408.33,343.21s-13.27-3.79-11.13-18l.94-14.69s-11.37-61.84,23-61.13c0,0,3.08-3.56,15.4,1.42l10.66,2.84s15.64,4.27,14,26.3a9.61,9.61,0,0,0,9.95,4.74s4.74-1.42,5.93,4c0,0-18,8.29-20.62,26.78,0,0-.71,28.19-15.87,26.53,0,0,5.92-3.31,5.68-15.63,0,0-2.84-13.75-1.89-21.09,0,0,1.18-8.77-5.21-7.11,0,0-12.09,1.66-17.3-3.79,0,0-5.45-4.27-6.16-10.66,0,0-1.69-.19-1.56,1.76a8.28,8.28,0,0,1-.1,2.17,39.5,39.5,0,0,1-5.21,12.41s1.18,12.33-3.08,17.06C405.73,317.14,397.2,335.39,408.33,343.21Z" fill="#2f2e41"/><path d="M463.57,364.87l-11.74-44.1s-1.13-7.83-4.39-10.33c0,0-6.09-4.76-5.93-16.43,0,0,1.3-10.67-.71-12.77,0,0-5.13-5.47-4.87-8.9a1.36,1.36,0,0,1,2-1l1.88.93s-1.91-5,.76-7.26c0,0-.19-3.83,3.64-1l4.42,3.63s-.79-7.64,4-2.1l7.07,10.89S464,280,462,292.48c0,0-2.29,10.73-.76,12.82l22.93,40.12Z" fill="#f9b499"/><path d="M421.74,265.59c.17,5.41-12.4,10.13-12.4,10.13l-1,8.56a35.8,35.8,0,0,1-.89,6.85,27.58,27.58,0,0,1-2,5.84h0a15.4,15.4,0,0,1-2,3.19l-3.85,7.69-8.17,18.29a79,79,0,0,0-3.38,9c-2.43,7.95-8.23,25.17-15.69,35.91-9.07,13.05-16.7,2.32-18,.31-.13-.2-.19-.31-.19-.31-6.11-11.52,1.36-26.3,1.36-26.3a36.1,36.1,0,0,1,3.71-5c9.61-8,27.53-44.14,27.53-44.14,2.38-7.28,2-28.17,2-28.17-1.4-6.29,8.9-8,8.9-8,10.66-5.59,12.93-3,12.93-3,4-1.23,5.24,2.09,5.24,2.09,3.14-2.27,4.19,0,4.19,0,1.65,3-4.95,8.12-5.69,8.69C420.87,263.16,421.74,265.59,421.74,265.59Z" fill="#f9b499"/><path d="M405.37,297h0a15.4,15.4,0,0,1-2,3.19l-3.85,7.69-8.17,18.29a79,79,0,0,0-3.38,9c-2.43,7.95-8.23,25.17-15.69,35.91-9.07,13.05-16.7,2.32-18,.31,4.68-.87,19.73-4.53,25.31-16.55a121.68,121.68,0,0,0,8.91-28.47l4-14.72c.36-1.34.63-2.69.87-4a8,8,0,0,1,5.82-6.38A18.15,18.15,0,0,0,405.37,297Z" fill="#f7a48b"/><path d="M409.34,275.72l-1,8.56a35.8,35.8,0,0,1-.89,6.85S403.35,278.6,409.34,275.72Z" fill="#f7a48b"/><path d="M394.84,266.28a9.55,9.55,0,0,1,3-3.62,28.84,28.84,0,0,1,3.95-2.63,42.64,42.64,0,0,1,4.27-2,36.65,36.65,0,0,1,4.47-1.5c-2.75,1.54-5.55,2.89-8.26,4.39-1.35.76-2.68,1.53-4,2.38-.63.44-1.28.87-1.87,1.36A7.87,7.87,0,0,0,394.84,266.28Z" fill="#f7a48b"/><path d="M399.55,269.76a17.58,17.58,0,0,1,3.46-3.59,46.35,46.35,0,0,1,4-2.94c1.4-.89,2.82-1.74,4.28-2.52a48.53,48.53,0,0,1,4.5-2.11c-2.69,1.94-5.49,3.67-8.23,5.47q-2.07,1.33-4.09,2.72A38.93,38.93,0,0,0,399.55,269.76Z" fill="#f7a48b"/><path d="M403.57,274.49a9.86,9.86,0,0,1,1.85-2.81,13.52,13.52,0,0,1,2.56-2.21,13.2,13.2,0,0,1,3-1.51,11.53,11.53,0,0,1,3.29-.67c-1,.47-2,.88-3,1.39a27.07,27.07,0,0,0-5.35,3.56A29.65,29.65,0,0,0,403.57,274.49Z" fill="#f7a48b"/><path d="M439.79,272.22a19.2,19.2,0,0,1,6,6.15,16.18,16.18,0,0,1,1.72,4,10.92,10.92,0,0,1,.2,4.33,18.42,18.42,0,0,0-1-4.1,23.81,23.81,0,0,0-1.82-3.73,36.38,36.38,0,0,0-2.41-3.42C441.67,274.36,440.77,273.27,439.79,272.22Z" fill="#f7a48b"/><path d="M442,266.28a31.51,31.51,0,0,1,6.94,8.86,30.76,30.76,0,0,1,2.24,5.21,24.92,24.92,0,0,1,1.13,5.53c-.58-1.79-1.13-3.56-1.87-5.26a48.82,48.82,0,0,0-2.38-5c-.86-1.62-1.82-3.21-2.83-4.76S443.11,267.77,442,266.28Z" fill="#f7a48b"/><path d="M450.09,268.93a30.4,30.4,0,0,1,4.64,6.65,22.42,22.42,0,0,1,1.56,3.78,8.37,8.37,0,0,1,.4,4.06,13.45,13.45,0,0,0-1.13-3.8c-.53-1.21-1.09-2.41-1.72-3.58C452.63,273.67,451.3,271.36,450.09,268.93Z" fill="#f7a48b"/><path d="M463.57,364.87s.59-31.46,8.46-40.63l12.1,21.18Z" fill="#f7a48b"/><path d="M424,613.37v4.86a4.61,4.61,0,0,1-3.66,4.51c-3.33.7-9.55,2-20.93,4.32l-.65.13c-21.24,4.23-36,1.85-36,1.85-4.87-.93-3.05-4.93-3.05-4.93a127.86,127.86,0,0,0,38.21-1.46S416.35,618.82,424,613.37Z" fill="#2f2e41"/><path d="M600.71,621.53l31.7-38.23v-214l-26.48,33.1a17.58,17.58,0,0,1-5.22,14.13Z" fill="#bcbec0"/><path d="M600.71,416.5v1.63l31.7-19.93V369.27l-26.48,33.1A17.83,17.83,0,0,1,600.71,416.5Z" opacity="0.1" style="isolation:isolate"/><polygon points="183.53 416.5 208.84 416.5 209.41 584.56 183.53 617.27 183.53 416.5" fill="#bcbec0"/><polygon points="183.53 416.5 183.53 459.99 209.05 478.27 208.84 416.5 183.53 416.5" opacity="0.1" style="isolation:isolate"/><path d="M259.46,362.42v13.63l-14.69-2.11a5,5,0,0,0-5.65,4.9h0a4.94,4.94,0,0,0,4.25,4.89l55.16,7.81a4.52,4.52,0,0,0,5.16-4.48h0a4.51,4.51,0,0,0-3.88-4.48l-16.12-2.31-.28-17.85Z" fill="#0071f2"/><path d="M259.46,362.42v13.63l-14.69-2.11a5,5,0,0,0-5.65,4.9h0a4.94,4.94,0,0,0,4.25,4.89l55.16,7.81a4.52,4.52,0,0,0,5.16-4.48h0a4.51,4.51,0,0,0-3.88-4.48l-16.12-2.31-.28-17.85Z" opacity="0.2" style="isolation:isolate"/><polygon points="461.8 373.01 536.12 373.01 554.58 351.93 516.34 351.93 461.8 373.01" fill="#2f2e41"/><polygon points="536.12 373.01 536.12 393.7 551.19 384.27 553.03 366.7 544.33 363.64 536.12 373.01" fill="#2f2e41"/><polygon points="536.12 373.01 536.12 393.7 551.19 384.27 553.03 366.7 544.33 363.64 536.12 373.01" opacity="0.2" style="isolation:isolate"/><polygon points="461.8 373.01 461.8 391.99 536.12 393.7 536.12 373.01 461.8 373.01" fill="#fff"/><polygon points="183.12 258.6 183.12 355.97 344.23 379.02 344.23 281.61 183.12 258.6" fill="#0071f2"/><polygon points="191.54 254.35 183.12 258.6 344.23 281.61 344.23 379.02 351.74 376.3 351.74 278.39 191.54 254.35" fill="#0071f2"/><polygon points="191.54 254.35 183.12 258.6 344.23 281.61 344.23 379.02 351.74 376.3 351.74 278.39 191.54 254.35" opacity="0.2" style="isolation:isolate"/><path d="M424,613.37c-7.65,5.45-26.1,9.28-26.1,9.28a127.86,127.86,0,0,1-38.21,1.46.91.91,0,0,1-.71-.53c-2.44-5.63,22.9-16.71,22.9-16.71,10-5.68,14.53-15.74,14.53-15.74s13.71.15,12.29,6.43c0,0-.53,4.2,2.11,4.41a2.66,2.66,0,0,0,2.23-1.05l3.23-4.07c4.79-7.71,5.76.16,5.76.16Z" fill="#0071f2"/><path d="M452.9,374.35l67.23,1.33s18.7-17.5,21.81-39.58c0,0-40.86,12.95-51.37,0,0,0-3.21,6.27-6.44,9.32l-20.56,19.45Z" fill="#fff"/><path d="M549.14,369.27V389.1H553s-.82,8.39-3.08,12.08h56s.11-21-4.19-31.91Z" fill="#fff"/><path d="M543.16,348.88s41.27,4.84,62,2.32c0,0,3-.71,17.31-20.84l11.88-16.46H571.75s-4.26,1.81-11.35,13.31q-1.21,2-2.55,3.83C554.78,335.32,548,344.49,543.16,348.88Z" fill="#0071f2"/><path d="M543.16,348.88s41.27,4.84,62,2.32c0,0,3-.71,17.31-20.84l11.88-16.46H571.75s-4.26,1.81-11.35,13.31q-1.21,2-2.55,3.83C554.78,335.32,548,344.49,543.16,348.88Z" fill="#fff" opacity="0.4" style="isolation:isolate"/><path d="M543.16,348.88l1.61,20.39h63.82s-1.21-13.33-3.42-18.07C605.17,351.2,581.62,353.51,543.16,348.88Z" fill="#fff"/><path d="M634.36,313.9l3.14,24.72a4.46,4.46,0,0,1-1.31,3.76l-27.6,26.89s-1.21-11.32-3.42-18.07c0,0,2.34-1,7.66-7.94Z" fill="#0071f2"/><path d="M634.36,313.9l3.14,24.72a4.46,4.46,0,0,1-1.31,3.76l-27.6,26.89s-1.21-11.32-3.42-18.07c0,0,2.34-1,7.66-7.94Z" fill="#fff" opacity="0.5" style="isolation:isolate"/><path d="M601.58,387.87c-4,.3-8.08.5-12.12.69s-8.09.28-12.14.42-8.09.17-12.14.19l-6.07,0c-2,0-4.05,0-6.07-.09,2-.17,4-.27,6.06-.4l6.06-.3c4.05-.18,8.09-.28,12.14-.42s8.09-.17,12.14-.19S597.53,387.76,601.58,387.87Z" fill="#e6e7e8"/><path d="M605.17,387.05s17.31-16.41,25.71-28l-.6-10.94-21.69,21.13h-6.8S604.38,374.55,605.17,387.05Z" fill="#2f2e41"/><path d="M605.17,387.05a126.64,126.64,0,0,1,.81,14.13h.9l25-31.33s-.22-8-1-10.77C630.88,359.08,622.61,370.64,605.17,387.05Z" fill="#0071f2"/><polygon points="377.36 374.8 373.36 371.14 364.21 373.63 359.22 385.78 370.37 391.11 378.69 389.44 381.02 380.95 377.36 374.8" fill="#fff"/><path d="M370.37,391.44a.32.32,0,0,1-.14,0l-11.16-5.33a.35.35,0,0,1-.17-.43l5-12.15a.34.34,0,0,1,.22-.2l9.18-2.49a.32.32,0,0,1,.31.08l4,3.66s.05,0,.06.07l3.66,6.17a.3.3,0,0,1,0,.26L379,389.54a.31.31,0,0,1-.25.23l-8.32,1.66Zm-10.73-5.82,10.77,5.14,8-1.6,2.24-8.15-3.57-6-3.78-3.51-8.82,2.41Z" fill="#2f2e41"/><path d="M374.7,389.44h-.07l-8.32-1.16A.36.36,0,0,1,366,388l-1.17-7.49a.38.38,0,0,1,.11-.3l6-5.5a.35.35,0,0,1,.22-.08l6.16-.17v.67l-6,.16-5.77,5.29,1.1,7.07,7.87,1.1,4-6.66-6.16-3.39-2.09,1.83,6.51,2.79-.26.61-7-3a.3.3,0,0,1-.2-.25.33.33,0,0,1,.1-.3l2.67-2.33a.33.33,0,0,1,.38,0l6.66,3.66a.34.34,0,0,1,.17.2.39.39,0,0,1,0,.26L375,389.31A.31.31,0,0,1,374.7,389.44Z" fill="#2f2e41"/><path d="M371.3,386.64l-4.83-.66a.38.38,0,0,1-.26-.19.36.36,0,0,1,0-.32l3.16-5,.57.35-2.89,4.56,4.32.59Z" fill="#2f2e41"/><path d="M373.36,371.13l3,.67,3.34,2.83,2.83,3.16s1.5,4,1,4.67a19.16,19.16,0,0,0-1.34,3.33l-2.83,1L381,381l-3.67-6.16Z" fill="#fff"/><path d="M379.36,387.12a.35.35,0,0,1-.34-.35s0,0,0-.08l1.62-5.69-3.56-6-4-3.63a.33.33,0,0,1,0-.47.35.35,0,0,1,.31-.1l3,.67a.34.34,0,0,1,.15.07l3.33,2.83,2.86,3.19a.39.39,0,0,1,.06.11c.47,1.25,1.5,4.24,1,5a18,18,0,0,0-1.28,3.24.36.36,0,0,1-.21.21l-2.83,1Zm-4.86-15.39,3.08,2.82a.13.13,0,0,1,.06.07l3.67,6.17a.39.39,0,0,1,0,.26l-1.49,5.2,2.07-.73a16.87,16.87,0,0,1,1.33-3.27c.19-.31-.27-2.27-1-4.28l-2.78-3.12-3.23-2.75Z" fill="#2f2e41"/><path d="M399.83,370.09l-8.09,4v6.63c0,.39.26,3.33.26,3.33l6.89,4.51,6.89-.54,4.78-2.52,2.52-3.7,1.19-2.52s.26-4.25.4-4.67a38.15,38.15,0,0,0-.4-3.84,26.94,26.94,0,0,0-1.85-3.45l-4.51.4-2.25-.27Z" fill="#fff"/><path d="M398.89,388.84a.41.41,0,0,1-.18,0l-6.89-4.51a.35.35,0,0,1-.15-.25c0-.3-.27-2.94-.27-3.33v-6.63a.37.37,0,0,1,.19-.3l8.08-4h0l5.83-2.67a.54.54,0,0,1,.18,0l2.22.26,4.47-.39a.33.33,0,0,1,.31.16,18,18,0,0,1,1.91,3.62c0,.12.07.67.14,1.13a11.08,11.08,0,0,1,.24,2.82c-.1.29-.26,2.54-.38,4.55a.24.24,0,0,1,0,.12l-1.2,2.52-2.53,3.76-.12.11L406,388.28a.31.31,0,0,1-.13,0l-6.89.53Zm-6.57-5,6.67,4.36,6.71-.52,4.66-2.45,2.48-3.63,1.13-2.42c.07-1.08.28-4.26.41-4.67a17.67,17.67,0,0,0-.27-2.51c-.09-.67-.14-1.07-.14-1.23a25.75,25.75,0,0,0-1.7-3.09L408,368h-.07l-2.16-.25L400,370.39l-7.89,3.88v6.42C392.07,381,392.24,382.91,392.32,383.81Z" fill="#2f2e41"/><path d="M399,384.7a1.74,1.74,0,0,1-.74-.14c-.8-.4-5.14-4.25-5.63-4.66a.35.35,0,0,1-.1-.36c.75-2.11,1.72-4.67,2.12-4.94s3.21-3,5-4.73a.34.34,0,0,1,.46,0l5,4.66a.38.38,0,0,1,.09.13l1.73,4.67a.33.33,0,0,1-.07.33c-1.33,1.57-3.72,4.21-4.28,4.35l-.38.11A13.62,13.62,0,0,1,399,384.7Zm-5.76-5.17a67.16,67.16,0,0,0,5.33,4.44c.55.27,2.75-.36,3.47-.57l.41-.12a36.74,36.74,0,0,0,3.8-4l-1.61-4.38-4.76-4.37c-1.12,1.08-4.48,4.34-4.85,4.59a33,33,0,0,0-1.79,4.4Z" fill="#2f2e41"/><path d="M404.33,386.72h-.11l-6-2.12a.33.33,0,0,1,.08-.64l4.89-.52,3-4.11-1.62-4.4-5-4.58a.3.3,0,0,1-.11-.29.36.36,0,0,1,.19-.26l5.83-2.66a.35.35,0,0,1,.37.06l3.85,3.72.05.06,3.18,5.3a.34.34,0,0,1,.05.22l-.53,4.11a.78.78,0,0,1-.05.14l-2.67,4.1a.29.29,0,0,1-.17.14l-5.17,1.72Zm-4.47-2.28,4.47,1.6,4.95-1.66,2.55-3.94.51-3.92-3.1-5.16-3.66-3.53-5.16,2.35,4.67,4.3a.57.57,0,0,1,.08.13l1.73,4.66a.37.37,0,0,1,0,.32L403.67,384a.31.31,0,0,1-.23.14Z" fill="#2f2e41"/><path d="M398.66,384.42l-.59-.3,2-3.92.12-1.33-1.3-3.92a.32.32,0,0,1,.2-.41l.1,0,5.7-.13v.66l-5.24.12,1.18,3.55a.33.33,0,0,1,0,.14l-.14,1.45a.24.24,0,0,1,0,.12Z" fill="#2f2e41"/><polygon points="434.61 375.37 424.34 386.02 425.48 388.88 429.86 391.73 438.04 394.01 443.17 389.63 442.22 382.22 442.03 379.37 442.98 377.85 436.71 373.85 434.61 375.37" fill="#fff"/><path d="M438,394.35H438l-8.18-2.28-.09-.05-4.4-2.86a.4.4,0,0,1-.13-.16L424,386.14a.33.33,0,0,1,.07-.35l10.27-10.66,0,0,2.1-1.52a.33.33,0,0,1,.38,0l6.27,4a.33.33,0,0,1,.1.46l-.89,1.43.18,2.75,1,7.39a.35.35,0,0,1-.11.3l-5.14,4.37A.33.33,0,0,1,438,394.35ZM430,391.42l7.95,2.23,4.86-4.15-.92-7.24-.2-2.87a.36.36,0,0,1,.06-.2l.77-1.24-5.8-3.7-1.89,1.37-10.1,10.48,1,2.56Z" fill="#2f2e41"/><path d="M433.15,391.24H433c-.26-.13-6.34-3.07-6.84-3.37l.35-.57c.37.22,4.62,2.3,6.53,3.22l1.41-1.94a.29.29,0,0,1,.15-.12l5-2.06-.91-3.26a.35.35,0,0,1,.06-.3l3-3.65.52.42-2.86,3.51.94,3.39a.35.35,0,0,1-.19.4L434.94,389l-1.53,2.09A.3.3,0,0,1,433.15,391.24Z" fill="#2f2e41"/><path d="M438,392.82h-.1L433,391.24l.21-.63,4.61,1.5,3.41-4.33-.95-4.66L441,383l1,4.84a.35.35,0,0,1-.07.28l-3.65,4.66A.33.33,0,0,1,438,392.82Z" fill="#2f2e41"/><path d="M442.12,381l3.06,1,2.75,6.91s-1.08,3.05-1.28,3.45-5.23,3.06-5.23,3.06l-7.2,1.08s-3.15-.89-3.25-1.38-7.8-3.75-7.8-3.75l2.31-2.52,4.37,2.85L438,394l5.13-4.37Z" fill="#fff"/><path d="M434.23,396.87h-.09c-3-.84-3.39-1.34-3.47-1.57a66.9,66.9,0,0,0-7.62-3.58.33.33,0,0,1-.18-.43.21.21,0,0,1,.06-.1l2.31-2.53a.32.32,0,0,1,.42-.05l4.33,2.82,7.95,2.22,4.86-4.15-1-8.42a.3.3,0,0,1,.12-.29.29.29,0,0,1,.31-.06l3.06,1a.34.34,0,0,1,.21.2l2.76,6.9a.31.31,0,0,1,0,.23c-.11.32-1.1,3.09-1.33,3.49s-2,1.41-5.37,3.21a.23.23,0,0,1-.11,0l-7.2,1.09Zm-10.49-5.56c7.43,3.16,7.52,3.61,7.56,3.81a14.19,14.19,0,0,0,2.95,1.11l7.07-1.07a46.21,46.21,0,0,0,5.06-2.93c.11-.23.77-2,1.21-3.25l-2.67-6.67-2.41-.78,1,8.08a.33.33,0,0,1-.12.29l-5.14,4.38a.32.32,0,0,1-.3.07l-8.18-2.28-.09-.05-4.13-2.71Z" fill="#2f2e41"/><g id="bc0851a0-bd58-4b00-8154-fdbdca7332fd" data-name="freepik--speech-bubble--inject-574"><g id="b8616434-d943-4cfe-abee-47b7c7a25a2e" data-name="freepik--bBaloon--inject-574"><path d="M319.14,228.74v.13c0,7,7.19,12.64,16.07,12.64.74,0,1.47,0,2.18-.12a30.49,30.49,0,0,0,15.14,3.89c8.11,0,15.3-2.93,20-7.52,8.51-.32,15.29-5.85,15.29-12.62V225c5.31-3,8.77-7.91,8.77-13.44,0-5.78-3.73-10.78-9.38-13.78a10.63,10.63,0,0,0,.62-3.48c0-7-7.2-12.64-16.07-12.64a18.87,18.87,0,0,0-2.81.2c-3.67-4.62-10.19-7.69-17.62-7.69-9.32,0-17.21,4.83-19.84,11.48-8.69.16-15.69,5.75-15.69,12.64a9.55,9.55,0,0,0,.22,2.06c-4.31,3.36-7,8-7,13.19C309,219.82,313.06,225.41,319.14,228.74Z" fill="#0071f2"/><path d="M419.33,226.51c2.23,0,4,1.24,4,2.77s-1.77,2.77-4,2.77-4-1.24-4-2.77S417.1,226.51,419.33,226.51Z" fill="#0071f2"/><path d="M407.84,214.94c3.34,0,6.06,1.89,6.06,4.22s-2.71,4.22-6.06,4.22-6.06-1.89-6.06-4.22S404.5,214.94,407.84,214.94Z" fill="#0071f2"/><path d="M319.14,228.74v.13c0,7,7.19,12.64,16.07,12.64.74,0,1.47,0,2.18-.12a30.49,30.49,0,0,0,15.14,3.89c8.11,0,15.3-2.93,20-7.52,8.51-.32,15.29-5.85,15.29-12.62V225c5.31-3,8.77-7.91,8.77-13.44,0-5.78-3.73-10.78-9.38-13.78a10.63,10.63,0,0,0,.62-3.48c0-7-7.2-12.64-16.07-12.64a18.87,18.87,0,0,0-2.81.2c-3.67-4.62-10.19-7.69-17.62-7.69-9.32,0-17.21,4.83-19.84,11.48-8.69.16-15.69,5.75-15.69,12.64a9.55,9.55,0,0,0,.22,2.06c-4.31,3.36-7,8-7,13.19C309,219.82,313.06,225.41,319.14,228.74Z" fill="#fff" opacity="0.6" style="isolation:isolate"/><path d="M419.33,226.51c2.23,0,4,1.24,4,2.77s-1.77,2.77-4,2.77-4-1.24-4-2.77S417.1,226.51,419.33,226.51Z" fill="#fff" opacity="0.6" style="isolation:isolate"/><path d="M407.84,214.94c3.34,0,6.06,1.89,6.06,4.22s-2.71,4.22-6.06,4.22-6.06-1.89-6.06-4.22S404.5,214.94,407.84,214.94Z" fill="#fff" opacity="0.6" style="isolation:isolate"/></g><g id="ace1f62d-794a-4316-baaa-4296088472b7" data-name="freepik----inject-574"><path d="M362,202.43c-.08-3.17-2.8-5.28-7.07-5.21-4.1.06-7.05,1.68-8.91,4.48l-5.46-3.47c3-4.34,7.9-7,14.83-7.12,8.14-.11,13.68,3.6,13.86,10.09.26,9.22-9.19,10.2-9,16.87l-7,.1C352.94,209.8,362.15,208.08,362,202.43Zm-9.44,24.85a4.24,4.24,0,0,1,4-4.42,2.62,2.62,0,0,1,.28,0,4.34,4.34,0,0,1,4.5,4.17v.12a4.25,4.25,0,0,1-4,4.46h-.22a4.4,4.4,0,0,1-4.56-4.24Z" fill="#0071f2"/></g></g></svg>