<svg width="752" height="490" viewBox="0 0 752 490" fill="none" xmlns="http://www.w3.org/2000/svg">
<g clip-path="url(#clip0_1_34)">
<path d="M174.755 428.004L152.696 420.297C150.268 408.267 150.812 395.827 154.283 384.056C162.651 404.203 188.752 409.836 203.244 426.143C207.725 431.263 210.996 437.327 212.815 443.884C214.635 450.44 214.955 457.322 213.753 464.02L217.977 480.045C207.064 478.794 196.552 475.191 187.165 469.486C177.779 463.78 169.741 456.108 163.605 446.997C160.213 441.852 157.483 436.3 155.479 430.472C165.001 429.797 174.755 428.004 174.755 428.004Z" fill="#F2F2F2"/>
<path d="M430.896 284.768H315.386C313.752 284.77 312.186 285.422 311.032 286.579C309.878 287.736 309.231 289.303 309.232 290.937V473.409H437.066V290.937C437.066 290.127 436.907 289.325 436.597 288.576C436.287 287.827 435.833 287.147 435.26 286.574C434.687 286.001 434.006 285.547 433.258 285.237C432.509 284.927 431.706 284.767 430.896 284.768V284.768ZM373.53 388.446C369.917 388.429 366.458 386.987 363.903 384.432C361.349 381.878 359.907 378.419 359.89 374.806V353.76C359.89 350.142 361.327 346.673 363.885 344.115C366.443 341.557 369.912 340.12 373.53 340.12C377.147 340.12 380.616 341.557 383.174 344.115C385.732 346.673 387.169 350.142 387.169 353.76V374.806C387.153 378.419 385.71 381.878 383.156 384.432C380.602 386.987 377.142 388.429 373.53 388.446V388.446Z" fill="#E6E6E6"/>
<path d="M308.836 467.573V485.178C308.838 486.09 309.201 486.964 309.846 487.609C310.491 488.254 311.365 488.617 312.277 488.619H434.021C434.932 488.615 435.805 488.251 436.449 487.606C437.094 486.962 437.458 486.089 437.462 485.178V467.573H308.836Z" fill="#CCCCCC"/>
<path d="M622.17 0H128.41C124.168 0.00674882 120.101 1.69493 117.102 4.6946C114.102 7.69426 112.414 11.7607 112.407 16.0029V349.194C112.411 353.437 114.098 357.505 117.099 360.506C120.099 363.506 124.167 365.193 128.41 365.197H622.17C626.413 365.193 630.481 363.506 633.482 360.506C636.482 357.505 638.169 353.437 638.173 349.194V16.0029C638.166 11.7607 636.478 7.69426 633.478 4.6946C630.479 1.69493 626.412 0.00674882 622.17 0V0Z" fill="#E6E6E6"/>
<path d="M618.047 11.5542H132.537C130.265 11.5596 128.088 12.4659 126.483 14.0743C124.878 15.6828 123.977 17.8621 123.977 20.1341V345.064C123.979 347.334 124.882 349.509 126.487 351.114C128.092 352.719 130.267 353.622 132.537 353.624H618.047C620.316 353.622 622.492 352.719 624.097 351.114C625.702 349.509 626.604 347.334 626.607 345.064V20.1341C626.607 17.8621 625.706 15.6828 624.101 14.0743C622.496 12.4659 620.319 11.5595 618.047 11.5542V11.5542Z" fill="white"/>
<path d="M629.526 18.9054V301.725C592.17 312.614 552.282 311.036 515.903 297.228C479.524 283.42 448.634 258.136 427.91 225.202C407.186 192.269 397.756 153.48 401.048 114.708C404.341 75.9363 420.176 39.2928 446.156 10.3254H620.966C623.238 10.3308 625.416 11.2371 627.02 12.8456C628.625 14.4541 629.526 16.6333 629.526 18.9054V18.9054Z" fill="#6C63FF"/>
<path d="M593.643 56.3271H139.35C138.877 56.3171 138.428 56.1223 138.097 55.7846C137.766 55.4469 137.581 54.9931 137.581 54.5205C137.581 54.048 137.766 53.5942 138.097 53.2565C138.428 52.9188 138.877 52.724 139.35 52.714H593.643C594.115 52.724 594.565 52.9188 594.896 53.2565C595.226 53.5942 595.411 54.048 595.411 54.5205C595.411 54.9931 595.226 55.4469 594.896 55.7846C594.565 56.1223 594.115 56.3171 593.643 56.3271V56.3271Z" fill="#CACACA"/>
<path d="M170.274 43.4899C176.121 43.4899 180.862 38.6441 180.862 32.6664C180.862 26.6888 176.121 21.843 170.274 21.843C164.427 21.843 159.687 26.6888 159.687 32.6664C159.687 38.6441 164.427 43.4899 170.274 43.4899Z" fill="#3F3D56"/>
<path d="M206.849 43.4899C212.696 43.4899 217.437 38.6441 217.437 32.6664C217.437 26.6888 212.696 21.843 206.849 21.843C201.002 21.843 196.262 26.6888 196.262 32.6664C196.262 38.6441 201.002 43.4899 206.849 43.4899Z" fill="#3F3D56"/>
<path d="M243.424 43.4899C249.271 43.4899 254.012 38.6441 254.012 32.6664C254.012 26.6888 249.271 21.843 243.424 21.843C237.577 21.843 232.837 26.6888 232.837 32.6664C232.837 38.6441 237.577 43.4899 243.424 43.4899Z" fill="#3F3D56"/>
<path d="M571.622 24.5257H545.641C545.126 24.5359 544.635 24.7477 544.275 25.1155C543.914 25.4833 543.712 25.9778 543.712 26.4929C543.712 27.008 543.914 27.5025 544.275 27.8703C544.635 28.2381 545.126 28.4499 545.641 28.4601H571.622C572.136 28.4499 572.627 28.2381 572.987 27.8703C573.348 27.5025 573.55 27.008 573.55 26.4929C573.55 25.9778 573.348 25.4833 572.987 25.1155C572.627 24.7477 572.136 24.5359 571.622 24.5257V24.5257Z" fill="#3F3D56"/>
<path d="M571.622 31.9101H545.641C545.126 31.9203 544.635 32.1321 544.275 32.4999C543.914 32.8677 543.712 33.3622 543.712 33.8773C543.712 34.3923 543.914 34.8869 544.275 35.2547C544.635 35.6225 545.126 35.8343 545.641 35.8445H571.622C572.136 35.8343 572.627 35.6225 572.987 35.2547C573.348 34.8869 573.55 34.3923 573.55 33.8773C573.55 33.3622 573.348 32.8677 572.987 32.4999C572.627 32.1321 572.136 31.9203 571.622 31.9101V31.9101Z" fill="#3F3D56"/>
<path d="M571.622 39.2847H545.641C545.126 39.295 544.635 39.5067 544.275 39.8746C543.914 40.2424 543.712 40.7369 543.712 41.252C543.712 41.767 543.914 42.2615 544.275 42.6293C544.635 42.9972 545.126 43.2089 545.641 43.2192H571.622C572.136 43.2089 572.627 42.9972 572.987 42.6293C573.348 42.2615 573.55 41.767 573.55 41.252C573.55 40.7369 573.348 40.2424 572.987 39.8746C572.627 39.5067 572.136 39.295 571.622 39.2847V39.2847Z" fill="#3F3D56"/>
<path d="M253.959 254.283C254.628 253.555 255.129 252.69 255.427 251.748C255.725 250.806 255.813 249.809 255.685 248.83C255.556 247.85 255.214 246.91 254.683 246.076C254.152 245.243 253.445 244.536 252.611 244.005L258.151 220.631L246.426 224.914L242.963 246.455C242.164 247.915 241.929 249.616 242.302 251.238C242.674 252.86 243.629 254.288 244.984 255.253C246.34 256.218 248.002 256.652 249.656 256.473C251.31 256.295 252.842 255.515 253.959 254.283H253.959Z" fill="#9E616A"/>
<path d="M282.156 156.33L277.45 168.43C277.45 168.43 279.467 180.531 276.106 183.22C272.745 185.909 274.089 185.909 274.089 187.925C273.973 189.372 273.554 190.778 272.859 192.052C272.165 193.326 271.209 194.439 270.056 195.32C267.367 197.337 255.266 238.343 255.266 238.343H243.166C243.557 235.218 243.557 232.057 243.166 228.932C242.494 224.226 245.183 212.126 246.527 210.109C247.872 208.093 246.527 205.404 246.527 201.37C246.527 197.337 249.216 195.32 249.216 188.598C249.216 181.875 257.283 129.44 256.611 123.39C255.939 117.34 263.333 111.962 263.333 111.962H270.056L282.156 156.33Z" fill="#E6E6E6"/>
<path d="M325.812 471.541H335.127L339.56 435.611H325.812V471.541Z" fill="#9E616A"/>
<path d="M322.772 465.161L337.654 464.272V470.649L351.803 480.42C352.501 480.903 353.028 481.596 353.305 482.399C353.582 483.202 353.595 484.072 353.342 484.883C353.089 485.694 352.584 486.402 351.9 486.906C351.216 487.409 350.389 487.68 349.539 487.68H331.822L328.768 481.373L327.576 487.68H320.896L322.772 465.161Z" fill="#2F2E41"/>
<path d="M209.063 463.627L217.718 467.072L235.125 435.33L222.352 430.245L209.063 463.627Z" fill="#9E616A"/>
<path d="M208.598 456.575L222.754 461.254L220.395 467.178L229.927 481.489C230.398 482.196 230.63 483.035 230.591 483.883C230.551 484.732 230.241 485.545 229.707 486.205C229.172 486.865 228.44 487.336 227.619 487.551C226.797 487.765 225.928 487.712 225.139 487.398L208.678 480.845L208.173 473.856L204.733 479.274L198.526 476.804L208.598 456.575Z" fill="#2F2E41"/>
<path d="M307.036 364.628L291.503 292.14L267.247 372.68L228.84 449.053L228.636 449.459L216.47 442.908C214.753 411.897 218.831 382.838 233.746 357.427L240.809 287.681C241.025 285.298 246.293 229.35 262.975 219.428L267.86 208.288L316.45 196.288L316.627 196.487C321.299 201.739 324.386 208.208 325.528 215.144L340.047 303.101L340.055 303.15L336.162 364.51L341.487 455.035H322.219C310.299 432.607 305.238 402.471 307.036 364.628Z" fill="#2F2E41"/>
<path d="M352.98 123.219L382.437 112.914C383.35 112.598 384.351 112.657 385.221 113.078C386.091 113.499 386.758 114.247 387.077 115.159C387.397 116.072 387.341 117.073 386.923 117.944C386.506 118.816 385.759 119.486 384.848 119.808L355.392 130.113C354.479 130.429 353.478 130.37 352.608 129.949C351.738 129.529 351.07 128.78 350.751 127.868C350.432 126.956 350.488 125.955 350.905 125.083C351.323 124.212 352.069 123.542 352.98 123.219V123.219Z" fill="#2F2E41"/>
<path d="M384.63 118.87C385.207 120.865 387.693 121.834 389.7 121.302C391.686 120.622 393.337 119.209 394.317 117.352C395.396 115.578 396.136 113.613 397.246 111.858C399.375 108.523 402.706 106.135 406.548 105.188C403.125 104.737 399.647 105.396 396.625 107.068C395.562 107.797 394.388 108.351 393.149 108.706C391.826 108.776 390.501 108.759 389.181 108.654C388.015 108.714 386.891 109.105 385.94 109.782C384.989 110.46 384.252 111.395 383.815 112.477C383.378 113.56 383.259 114.745 383.474 115.892C383.688 117.04 384.225 118.102 385.023 118.954" fill="#6C63FF"/>
<path d="M380.778 122.043C380.654 123.023 380.317 123.965 379.79 124.801C379.263 125.637 378.559 126.347 377.728 126.881C376.897 127.416 375.958 127.762 374.979 127.894C374 128.027 373.003 127.943 372.06 127.649L357.786 146.971L353.487 135.251L367.701 118.699C368.3 117.147 369.448 115.869 370.927 115.106C372.405 114.344 374.113 114.15 375.725 114.562C377.337 114.975 378.741 115.964 379.673 117.342C380.604 118.721 380.998 120.394 380.778 122.043V122.043Z" fill="#9E616A"/>
<path d="M253.538 231.888C252.23 231.888 251.486 231.631 251.199 231.081C250.776 230.274 251.509 229.219 252.358 227.996C252.949 227.145 254.678 225.451 253.828 225.348C240.938 223.774 247.126 144.304 252.712 133.799C253.847 131.665 252.646 128.39 253.924 124.768C257.415 114.876 262.181 111.836 271.675 105.781C272.446 105.289 273.248 104.775 274.082 104.24C275.162 103.546 275.101 101.247 275.038 98.8117C274.967 96.1052 274.894 93.3062 276.22 91.5569L276.306 91.4428L276.445 91.4105C279.652 90.6691 290.439 89.2927 296.827 91.4205L296.915 91.4505L296.981 91.516C298.498 93.0334 298.636 95.9726 298.77 98.8147C298.88 101.148 298.983 103.351 299.842 104.309C306.405 111.624 313.848 111.482 313.924 111.48L314.293 111.469L314.329 111.836C318.931 120.594 315.328 153.121 318.526 173.325C321.776 193.852 349.526 211.325 325.764 214.428C325.815 214.507 325.844 214.598 325.847 214.692C325.85 214.786 325.827 214.879 325.78 214.961C324.345 217.644 258.47 231.888 253.538 231.888Z" fill="#E6E6E6"/>
<path d="M328.758 172.108L315.926 164.89C293.551 149.381 288.039 137.065 287.35 129.46C286.615 121.346 290.938 116.908 291.123 116.724L291.222 116.65L302.789 110.74C304.259 109.99 305.871 109.56 307.519 109.48C309.167 109.399 310.813 109.67 312.348 110.274C313.883 110.878 315.273 111.802 316.424 112.984C317.575 114.165 318.462 115.578 319.026 117.129L329.725 146.554L341.587 137.805L346.646 135.811L350.728 130.353L361.94 123.814L370.268 131.31L359.794 152.258L353.975 153.74L352.741 156.918L352.631 156.989L328.758 172.108Z" fill="#E6E6E6"/>
<path d="M305.792 77.9642C303.41 82.3191 299.616 85.7331 295.035 87.6439C290.454 89.5548 285.359 89.8485 280.589 88.4767C275.818 87.105 271.658 84.1496 268.791 80.0972C265.925 76.0448 264.524 71.1371 264.82 66.1823C265.115 61.2275 267.09 56.5211 270.417 52.8382C273.745 49.1552 278.227 46.7154 283.127 45.9204C288.027 45.1254 293.051 46.0227 297.372 48.4645C301.694 50.9063 305.055 54.7471 306.902 59.3542C307.002 59.6042 307.092 59.8542 307.182 60.1142C308.226 63.0185 308.642 66.1113 308.402 69.1884C308.163 72.2654 307.273 75.2565 305.792 77.9642Z" fill="#9E616A"/>
<path d="M308.931 60.1142C307.991 57.4842 308.401 58.8542 307.451 56.2342C307.757 57.525 307.663 58.8782 307.181 60.1142H281.171V44.9942C288.792 41.9742 296.241 39.4042 300.741 44.9942C304.751 44.9944 308.597 46.5874 311.433 49.4229C314.268 52.2585 315.861 56.1042 315.862 60.1142H308.931Z" fill="#2F2E41"/>
<path d="M299.711 102.144C299.691 101.864 299.662 101.574 299.622 101.294C299.272 99.24 298.706 97.2288 297.932 95.2942C297.182 93.1842 296.421 91.0642 295.661 88.9542C296.64 92.7843 296.342 96.8292 294.812 100.474C290.422 97.0542 293.192 89.2342 287.452 89.2342C273.652 89.2342 259.452 78.0442 259.452 64.2342C259.452 50.4342 265.372 40.1142 279.172 40.1142C292.982 40.1142 304.182 46.4342 304.452 60.2342C287.452 64.2342 302.921 100.744 299.711 102.144Z" fill="#2F2E41"/>
<path d="M261.176 62.119C270.012 62.119 277.176 54.9556 277.176 46.119C277.176 37.2825 270.012 30.119 261.176 30.119C252.339 30.119 245.176 37.2825 245.176 46.119C245.176 54.9556 252.339 62.119 261.176 62.119Z" fill="#2F2E41"/>
<path d="M266.541 46.7407C263.801 49.9307 259.511 51.1707 255.641 52.8307C248.811 55.827 242.815 60.4441 238.173 66.2818C233.531 72.1194 230.382 79.0012 229.001 86.3307C227.931 92.3007 228.071 98.4807 226.381 104.301C224.701 110.121 220.541 115.831 214.571 116.841C210.531 117.531 206.481 115.971 202.681 114.431C200.591 113.591 198.501 112.747 196.411 111.901C198.591 106.431 200.768 100.961 202.941 95.4907C199.448 100.653 195.386 105.406 190.831 109.661C183.341 106.641 175.844 103.621 168.341 100.601C186.801 100.671 183.651 82.7506 187.781 64.7707C190.051 54.8907 209.381 48.2007 213.171 38.8007C215.219 33.7021 218.685 29.2971 223.158 26.1067C227.632 22.9164 232.925 21.0745 238.413 20.7988C243.9 20.5232 249.352 21.8254 254.122 24.5514C258.893 27.2774 262.783 31.313 265.331 36.1806C269.121 37.6907 269.231 43.5907 266.541 46.7407Z" fill="#2F2E41"/>
</g>
<defs>
<clipPath id="clip0_1_34">
<rect width="751.131" height="489.52" fill="white"/>
</clipPath>
</defs>
</svg>
