<svg width="24" height="24" viewBox="0 0 24 24" fill="none" xmlns="http://www.w3.org/2000/svg">
<g clip-path="url(#clip0_37_8226)">
<path d="M9.09997 5H14.9L19 9.1V14.9L18.78 15.12L20.2 16.53L21 15.73V8.27L15.73 3H8.26997L7.46997 3.8L8.87997 5.22L9.09997 5Z" fill="#323232"/>
<path d="M12 17C12.5523 17 13 16.5523 13 16C13 15.4477 12.5523 15 12 15C11.4477 15 11 15.4477 11 16C11 16.5523 11.4477 17 12 17Z" fill="#323232"/>
<path d="M13 9.33002V7.00002H11V7.33002L13 9.33002ZM2.41 1.58002L1 2.99002L4.64 6.63002L3 8.27002V15.73L8.27 21H15.73L17.37 19.36L21.01 23L22.42 21.59L2.41 1.58002ZM14.9 19H9.1L5 14.9V9.10002L6.05 8.05002L15.95 17.95L14.9 19Z" fill="#323232"/>
</g>
<defs>
<clipPath id="clip0_37_8226">
<rect width="24" height="24" fill="white"/>
</clipPath>
</defs>
</svg>
