<svg width="24" height="24" viewBox="0 0 24 24" fill="none" xmlns="http://www.w3.org/2000/svg">
<g clip-path="url(#clip0_37_9030)">
<path d="M20 8.69V4H15.31L12 0.690002L8.69 4H4V8.69L0.690002 12L4 15.31V20H8.69L12 23.31L15.31 20H20V15.31L23.31 12L20 8.69ZM18 14.48V18H14.48L12 20.48L9.52 18H6V14.48L3.52 12L6 9.52V6H9.52L12 3.52L14.48 6H18V9.52L20.48 12L18 14.48ZM12 6.5C8.97 6.5 6.5 8.97 6.5 12C6.5 15.03 8.97 17.5 12 17.5C15.03 17.5 17.5 15.03 17.5 12C17.5 8.97 15.03 6.5 12 6.5ZM12 15.5C10.07 15.5 8.5 13.93 8.5 12C8.5 10.07 10.07 8.5 12 8.5C13.93 8.5 15.5 10.07 15.5 12C15.5 13.93 13.93 15.5 12 15.5Z" fill="#323232"/>
<path d="M12 14C13.1046 14 14 13.1046 14 12C14 10.8954 13.1046 10 12 10C10.8954 10 10 10.8954 10 12C10 13.1046 10.8954 14 12 14Z" fill="#323232"/>
</g>
<defs>
<clipPath id="clip0_37_9030">
<rect width="24" height="24" fill="white"/>
</clipPath>
</defs>
</svg>
