<svg width="24" height="24" viewBox="0 0 24 24" fill="none" xmlns="http://www.w3.org/2000/svg">
<g clip-path="url(#clip0_37_7438)">
<path d="M12.9999 10C12.9999 9.45 13.4499 9 13.9999 9H16.9999C17.5499 9 17.9999 9.45 17.9999 10V11H16.4999V10.5H14.4999V11.5L12.9999 10ZM16.4999 13.5L17.7099 14.71C17.8899 14.52 17.9999 14.27 17.9999 14V13H16.4999V13.5ZM8.82989 6H18.9999V16.17L20.9799 18.15C20.9799 18.1 20.9999 18.05 20.9999 17.99V6C20.9999 4.9 20.0999 4 18.9999 4H6.82989L8.82989 6ZM19.7799 22.61L17.1699 20H4.99989C3.88989 20 2.99989 19.1 2.99989 18V6C2.99989 5.95 3.01989 5.9 3.01989 5.85L1.38989 4.22L2.79989 2.81L21.1799 21.19L19.7799 22.61ZM7.49989 13.5H9.49989V13H10.1699L7.66989 10.5H7.49989V13.5ZM15.1699 18L10.9999 13.83V14C10.9999 14.55 10.5499 15 9.99989 15H6.99989C6.44989 15 5.99989 14.55 5.99989 14V10C5.99989 9.68 6.15989 9.41 6.39989 9.22L4.99989 7.83V18H15.1699Z" fill="#323232"/>
</g>
<defs>
<clipPath id="clip0_37_7438">
<rect width="24" height="24" fill="white"/>
</clipPath>
</defs>
</svg>
