<svg width="24" height="24" viewBox="0 0 24 24" fill="none" xmlns="http://www.w3.org/2000/svg">
<g clip-path="url(#clip0_37_9211)">
<path d="M18.7 12.4C18.42 12.24 18.13 12.11 17.84 12C18.13 11.89 18.42 11.76 18.7 11.6C20.62 10.49 21.69 8.48 21.7 6.41C20.79 5.89 19.75 5.61 18.69 5.61C17.67 5.61 16.64 5.87 15.7 6.41C15.42 6.57 15.16 6.76 14.92 6.95C14.97 6.64 15 6.32 15 6C15 3.78 13.79 1.85 12 0.809998C10.21 1.85 8.99999 3.78 8.99999 6C8.99999 6.32 9.02999 6.64 9.07999 6.95C8.83999 6.75 8.57999 6.56 8.29999 6.4C7.35999 5.86 6.32999 5.6 5.30999 5.6C4.25999 5.6 3.20999 5.88 2.29999 6.4C2.29999 8.47 3.36999 10.48 5.29999 11.59C5.57999 11.75 5.86999 11.88 6.15999 11.99C5.86999 12.1 5.57999 12.23 5.29999 12.39C3.37999 13.5 2.30999 15.51 2.29999 17.58C3.20999 18.1 4.24999 18.38 5.30999 18.38C6.32999 18.38 7.35999 18.12 8.29999 17.58C8.57999 17.42 8.83999 17.23 9.07999 17.04C9.02999 17.36 8.99999 17.68 8.99999 18C8.99999 20.22 10.21 22.15 12 23.19C13.79 22.15 15 20.22 15 18C15 17.68 14.97 17.36 14.92 17.05C15.16 17.25 15.42 17.43 15.7 17.59C16.64 18.13 17.67 18.39 18.69 18.39C19.74 18.39 20.79 18.11 21.7 17.59C21.69 15.52 20.62 13.51 18.7 12.4ZM16.16 8.52C16.37 8.35 16.54 8.23 16.7 8.15C17.31 7.8 18 7.61 18.7 7.61C18.97 7.61 19.23 7.64 19.49 7.69C19.18 8.6 18.55 9.38 17.71 9.87C17.54 9.97 17.35 10.05 17.13 10.14L15.75 10.66C15.58 10.2 15.34 9.79 15.03 9.42L16.16 8.52ZM12 3.37C12.63 4.09 13 5.03 13 6C13 6.19 12.98 6.41 12.95 6.63L12.72 8.07C12.48 8.03 12.24 8 12 8C11.76 8 11.52 8.03 11.29 8.07L11.06 6.63C11.02 6.41 11 6.19 11 6C11 5.02 11.37 4.09 12 3.37ZM4.50999 7.68C4.76999 7.62 5.03999 7.6 5.30999 7.6C5.99999 7.6 6.68999 7.78 7.29999 8.14C7.44999 8.23 7.61999 8.34 7.78999 8.49L8.93999 9.45C8.63999 9.81 8.40999 10.21 8.23999 10.65L6.85999 10.13C6.64999 10.04 6.45999 9.95 6.29999 9.86C5.42999 9.36 4.80999 8.59 4.50999 7.68ZM7.83999 15.47C7.62999 15.64 7.45999 15.76 7.29999 15.84C6.68999 16.19 5.99999 16.38 5.29999 16.38C5.02999 16.38 4.76999 16.35 4.50999 16.3C4.81999 15.39 5.44999 14.61 6.28999 14.12C6.45999 14.02 6.64999 13.94 6.86999 13.85L8.24999 13.33C8.40999 13.79 8.65999 14.21 8.96999 14.57L7.83999 15.47ZM12 20.63C11.37 19.91 11 18.97 11 18C11 17.8 11.02 17.59 11.06 17.35L11.28 15.93C11.51 15.97 11.75 16 12 16C12.24 16 12.48 15.97 12.71 15.93L12.94 17.37C12.98 17.59 13 17.81 13 18C13 18.98 12.63 19.91 12 20.63ZM18.69 16.39C18 16.39 17.31 16.21 16.7 15.85C16.52 15.75 16.36 15.63 16.21 15.51L15.06 14.55C15.36 14.19 15.6 13.79 15.76 13.34L17.14 13.86C17.36 13.94 17.55 14.03 17.71 14.12C18.56 14.61 19.18 15.39 19.49 16.3C19.22 16.37 18.95 16.39 18.69 16.39Z" fill="#323232"/>
</g>
<defs>
<clipPath id="clip0_37_9211">
<rect width="24" height="24" fill="white"/>
</clipPath>
</defs>
</svg>
