<svg width="24" height="24" viewBox="0 0 24 24" fill="none" xmlns="http://www.w3.org/2000/svg">
<g clip-path="url(#clip0_37_9254)">
<path d="M8 4.00001V4.89001L10 6.89001V4.00001H14V8.00001H11.11L13.11 10H14V10.89L16 12.89V10H20V14H17.11L19.11 16H20V16.89L22 18.89V4.00001C22 2.90001 21.1 2.00001 20 2.00001H5.11L7.11 4.00001H8ZM16 4.00001H20V8.00001H16V4.00001ZM1.41 1.14001L0 2.55001L2 4.55001V20C2 21.1 2.9 22 4 22H19.45L21.46 24.01L22.87 22.6L1.41 1.14001ZM10 12.55L11.45 14H10V12.55ZM4 6.55001L5.45 8.00001H4V6.55001ZM8 20H4V16H8V20ZM8 14H4V10H7.45L8 10.55V14ZM14 20H10V16H13.45L14 16.55V20ZM16 20V18.55L17.45 20H16Z" fill="#323232"/>
</g>
<defs>
<clipPath id="clip0_37_9254">
<rect width="24" height="24" fill="white"/>
</clipPath>
</defs>
</svg>
