<svg width="24" height="24" viewBox="0 0 24 24" fill="none" xmlns="http://www.w3.org/2000/svg">
<g clip-path="url(#clip0_37_9297)">
<path d="M14 2.99999H12C12 4.34999 11.69 5.62999 11.16 6.76999L12.65 8.25999C13.51 6.69999 14 4.90999 14 2.99999ZM21 12V9.99999C19.09 9.99999 17.3 10.49 15.73 11.35L17.22 12.84C18.37 12.31 19.65 12 21 12ZM21 16V14C20.21 14 19.46 14.13 18.76 14.37L20.44 16.05C20.63 16.04 20.81 16 21 16ZM10 2.99999H8C8 3.18999 7.96 3.36999 7.94 3.55999L9.62 5.23999C9.87 4.53999 10 3.77999 10 2.99999ZM4.41 2.85999L3 4.26999L5.84 7.10999C5.03 7.66999 4.06 7.99999 3 7.99999V9.99999C4.61 9.99999 6.09 9.44999 7.27 8.53999L8.7 9.96999C7.14 11.24 5.16 12 3 12V14C5.72 14 8.2 13.01 10.11 11.38L12.62 13.89C10.99 15.81 10 18.29 10 21H12C12 18.84 12.76 16.86 14.03 15.3L15.46 16.73C14.55 17.91 14 19.39 14 21H16C16 19.94 16.33 18.97 16.89 18.16L19.73 21L21.14 19.59L4.41 2.85999Z" fill="#323232"/>
</g>
<defs>
<clipPath id="clip0_37_9297">
<rect width="24" height="24" fill="white"/>
</clipPath>
</defs>
</svg>
