<svg width="24" height="24" viewBox="0 0 24 24" fill="none" xmlns="http://www.w3.org/2000/svg">
<g clip-path="url(#clip0_37_9353)">
<path d="M14 7H18V3H12V7.61L14 9.61V7ZM12 10.44L4.41 2.86L3 4.27L12 13.27V13.55C11.06 13.01 9.9 12.8 8.67 13.23C7.33 13.71 6.3 14.9 6.06 16.3C5.6 19.04 7.92 21.38 10.65 20.95C12.61 20.64 14 18.84 14 16.85V15.27L19.73 21L21.14 19.59L12 10.44ZM10 19C8.9 19 8 18.1 8 17C8 15.9 8.9 15 10 15C11.1 15 12 15.9 12 17C12 18.1 11.1 19 10 19Z" fill="#323232"/>
</g>
<defs>
<clipPath id="clip0_37_9353">
<rect width="24" height="24" fill="white"/>
</clipPath>
</defs>
</svg>
