<svg width="24" height="24" viewBox="0 0 24 24" fill="none" xmlns="http://www.w3.org/2000/svg">
<g clip-path="url(#clip0_37_9356)">
<path d="M13 16.12H12.97C16.46 15.72 19.17 12.76 19.17 9.17C19.17 5.3 16.04 2.17 12.17 2.17C8.3 2.17 5.17 5.3 5.17 9.17C5.17 12.64 7.69 15.51 11 16.06V20H5V22H19V20H13V16.12ZM7.17 9.17C7.17 6.41 9.41 4.17 12.17 4.17C14.93 4.17 17.17 6.41 17.17 9.17C17.17 11.93 14.93 14.17 12.17 14.17C9.41 14.17 7.17 11.93 7.17 9.17Z" fill="#323232"/>
</g>
<defs>
<clipPath id="clip0_37_9356">
<rect width="24" height="24" fill="white"/>
</clipPath>
</defs>
</svg>
