<svg width="24" height="24" viewBox="0 0 24 24" fill="none" xmlns="http://www.w3.org/2000/svg">
<g clip-path="url(#clip0_37_9359)">
<path d="M4.5 11C5.32843 11 6 10.3284 6 9.5C6 8.67157 5.32843 8 4.5 8C3.67157 8 3 8.67157 3 9.5C3 10.3284 3.67157 11 4.5 11Z" fill="#323232"/>
<path d="M22.17 9.17C22.17 5.3 19.04 2.17 15.17 2.17C11.3 2.17 8.17 5.3 8.17 9.17C8.17 12.64 10.69 15.51 14 16.06V20H6V17H7V13C7 12.45 6.55 12 6 12H3C2.45 12 2 12.45 2 13V17H3V22H19V20H16V16.12C19.47 15.71 22.17 12.76 22.17 9.17ZM15.17 14.17C12.41 14.17 10.17 11.93 10.17 9.17C10.17 6.41 12.41 4.17 15.17 4.17C17.93 4.17 20.17 6.41 20.17 9.17C20.17 11.93 17.93 14.17 15.17 14.17Z" fill="#323232"/>
</g>
<defs>
<clipPath id="clip0_37_9359">
<rect width="24" height="24" fill="white"/>
</clipPath>
</defs>
</svg>
