<svg width="24" height="24" viewBox="0 0 24 24" fill="none" xmlns="http://www.w3.org/2000/svg">
<g clip-path="url(#clip0_37_9432)">
<path d="M7.34 6.41L0.860001 12.9L7.35 19.38L13.84 12.9L7.34 6.41ZM3.69 12.9L7.35 9.24L11 12.9L7.34 16.56L3.69 12.9ZM19.36 6.64C17.61 4.88 15.3 4 13 4V0.759998L8.76 5L13 9.24V6C14.79 6 16.58 6.68 17.95 8.05C20.68 10.78 20.68 15.22 17.95 17.95C16.58 19.32 14.79 20 13 20C12.03 20 11.06 19.79 10.16 19.39L8.67 20.88C10.02 21.62 11.51 22 13 22C15.3 22 17.61 21.12 19.36 19.36C22.88 15.85 22.88 10.15 19.36 6.64Z" fill="#323232"/>
</g>
<defs>
<clipPath id="clip0_37_9432">
<rect width="24" height="24" fill="white"/>
</clipPath>
</defs>
</svg>
