<svg width="24" height="24" viewBox="0 0 24 24" fill="none" xmlns="http://www.w3.org/2000/svg">
<g clip-path="url(#clip0_37_7655)">
<path d="M8.99991 11H12.6299L8.99991 15.2V17H14.9999V15H11.3699L14.9999 10.8V9H8.99991V11ZM16.0559 3.346L17.3379 1.811L21.9449 5.661L20.6649 7.201L16.0559 3.346ZM3.33591 7.19L2.05591 5.654L6.66191 1.81L7.94191 3.346L3.33591 7.19ZM11.9999 6C15.8599 6 18.9999 9.14 18.9999 13C18.9999 16.86 15.8599 20 11.9999 20C8.13991 20 4.99991 16.86 4.99991 13C4.99991 9.14 8.13991 6 11.9999 6ZM11.9999 4C7.02991 4 2.99991 8.03 2.99991 13C2.99991 17.97 7.02991 22 11.9999 22C16.9699 22 20.9999 17.97 20.9999 13C20.9999 8.03 16.9699 4 11.9999 4Z" fill="#323232"/>
</g>
<defs>
<clipPath id="clip0_37_7655">
<rect width="24" height="24" fill="white"/>
</clipPath>
</defs>
</svg>
