<svg width="24" height="24" viewBox="0 0 24 24" fill="none" xmlns="http://www.w3.org/2000/svg">
<g clip-path="url(#clip0_37_9471)">
<path d="M15.07 1.01H9.07001V3.01H15.07V1.01ZM11.07 14.01H13.07V8.01H11.07V14.01ZM19.1 7.39L20.52 5.97C20.09 5.46 19.62 4.98 19.11 4.56L17.69 5.98C16.14 4.74 14.19 4 12.07 4C7.10001 4 3.07001 8.03 3.07001 13C3.07001 17.97 7.09001 22 12.07 22C17.05 22 21.07 17.97 21.07 13C21.07 10.89 20.33 8.94 19.1 7.39ZM12.07 20.01C8.20001 20.01 5.07001 16.88 5.07001 13.01C5.07001 9.14 8.20001 6.01 12.07 6.01C15.94 6.01 19.07 9.14 19.07 13.01C19.07 16.88 15.94 20.01 12.07 20.01Z" fill="#323232"/>
</g>
<defs>
<clipPath id="clip0_37_9471">
<rect width="24" height="24" fill="white"/>
</clipPath>
</defs>
</svg>
