<svg width="24" height="24" viewBox="0 0 24 24" fill="none" xmlns="http://www.w3.org/2000/svg">
<g clip-path="url(#clip0_37_7721)">
<path d="M4.34005 2.93L2.93005 4.34L7.29005 8.7L7.00005 9H3.00005V15H7.00005L12.0001 20V13.41L16.1801 17.59C15.5301 18.08 14.8001 18.47 14.0001 18.7V20.76C15.3401 20.46 16.5701 19.84 17.6101 19.01L19.6601 21.06L21.0701 19.65L4.34005 2.93ZM10.0001 15.17L7.83005 13H5.00005V11H7.83005L8.71005 10.12L10.0001 11.41V15.17ZM19.0001 12C19.0001 12.82 18.8501 13.61 18.5901 14.34L20.1201 15.87C20.6801 14.7 21.0001 13.39 21.0001 12C21.0001 7.72 18.0101 4.14 14.0001 3.23V5.29C16.8901 6.15 19.0001 8.83 19.0001 12ZM12.0001 4L10.1201 5.88L12.0001 7.76V4ZM16.5001 12C16.5001 10.23 15.4801 8.71 14.0001 7.97V9.76L16.4801 12.24C16.4901 12.16 16.5001 12.08 16.5001 12Z" fill="#323232"/>
</g>
<defs>
<clipPath id="clip0_37_7721">
<rect width="24" height="24" fill="white"/>
</clipPath>
</defs>
</svg>
