<svg width="24" height="24" viewBox="0 0 24 24" fill="none" xmlns="http://www.w3.org/2000/svg">
<g clip-path="url(#clip0_37_9507)">
<path d="M3.55 19.09L4.96 20.5L6.75 18.7L5.34 17.29L3.55 19.09ZM11 20H13V23H11V20ZM1 11H4V13H1V11ZM13 4.05V8.01L14 8.59C15.24 9.31 16 10.63 16 12.05C16 14.26 14.21 16.05 12 16.05C9.79 16.05 8 14.26 8 12.05C8 10.63 8.77 9.31 10 8.59L11 8.01V4.05H13ZM15 2.05H9V6.86C7.21 7.9 6 9.83 6 12.05C6 15.36 8.69 18.05 12 18.05C15.31 18.05 18 15.36 18 12.05C18 9.83 16.79 7.9 15 6.86V2.05ZM20 11H23V13H20V11ZM17.24 18.71L19.03 20.51L20.44 19.1L18.64 17.31L17.24 18.71Z" fill="#323232"/>
</g>
<defs>
<clipPath id="clip0_37_9507">
<rect width="24" height="24" fill="white"/>
</clipPath>
</defs>
</svg>
