<svg width="24" height="24" viewBox="0 0 24 24" fill="none" xmlns="http://www.w3.org/2000/svg">
<path d="M21.46 5.83C21.4312 5.63136 21.3434 5.44597 21.2078 5.29794C21.0723 5.14991 20.8953 5.0461 20.7 5H20.59C14.9405 3.67017 9.05946 3.67017 3.41 5H3.3C3.10881 5.04408 2.93481 5.14343 2.79967 5.28568C2.66453 5.42793 2.57423 5.6068 2.54 5.8C1.82002 9.88182 1.82002 14.0582 2.54 18.14C2.57423 18.3332 2.66453 18.5121 2.79967 18.6543C2.93481 18.7966 3.10881 18.8959 3.3 18.94H3.41C6.22302 19.6226 9.10542 19.9783 12 20C14.8923 19.998 17.7746 19.6624 20.59 19H20.7C20.8912 18.9559 21.0652 18.8566 21.2003 18.7143C21.3355 18.5721 21.4258 18.3932 21.46 18.2C22.1835 14.1084 22.1835 9.92159 21.46 5.83ZM19.6 17.17C14.593 18.2699 9.40697 18.2699 4.4 17.17C3.85998 13.7445 3.85998 10.2555 4.4 6.82999C9.40697 5.73004 14.593 5.73004 19.6 6.82999C20.14 10.2555 20.14 13.7445 19.6 17.17Z" fill="black"/>
</svg>
