<svg width="24" height="24" viewBox="0 0 24 24" fill="none" xmlns="http://www.w3.org/2000/svg">
<path d="M22.61 7.04999L17 1.38999C16.9066 1.29731 16.7957 1.22399 16.6739 1.17422C16.5521 1.12446 16.4216 1.09923 16.29 1.09999C16.0277 1.1011 15.7763 1.20525 15.59 1.38999L1.39001 15.54C1.20375 15.7274 1.09921 15.9808 1.09921 16.245C1.09921 16.5092 1.20375 16.7626 1.39001 16.95L7.05001 22.61C7.14345 22.7027 7.25426 22.776 7.3761 22.8258C7.49794 22.8755 7.6284 22.9008 7.76001 22.9C8.02235 22.8989 8.27374 22.7947 8.46001 22.61L11.29 19.78L19.78 11.29L22.61 8.45999C22.7963 8.27263 22.9008 8.01918 22.9008 7.75499C22.9008 7.49081 22.7963 7.23736 22.61 7.04999ZM19.07 9.16999L18.36 8.45999C18.1726 8.27374 17.9192 8.1692 17.655 8.1692C17.3908 8.1692 17.1374 8.27374 16.95 8.45999C16.8563 8.55296 16.7819 8.66356 16.7311 8.78542C16.6803 8.90727 16.6542 9.03798 16.6542 9.16999C16.6542 9.302 16.6803 9.43271 16.7311 9.55457C16.7819 9.67643 16.8563 9.78703 16.95 9.87999L17.66 10.59L16.24 12L14.12 9.87999C13.9287 9.71617 13.6826 9.63056 13.431 9.64028C13.1793 9.65 12.9405 9.75433 12.7624 9.93243C12.5843 10.1105 12.48 10.3493 12.4703 10.6009C12.4606 10.8526 12.5462 11.0987 12.71 11.29L14.83 13.41L13.41 14.83L12.71 14.12C12.5217 13.9317 12.2663 13.8259 12 13.8259C11.7337 13.8259 11.4783 13.9317 11.29 14.12C11.1017 14.3083 10.9959 14.5637 10.9959 14.83C10.9959 15.0963 11.1017 15.3517 11.29 15.54L12 16.24L10.59 17.66L8.46001 15.54C8.27264 15.3537 8.01919 15.2492 7.75501 15.2492C7.49082 15.2492 7.23737 15.3537 7.05001 15.54C6.86375 15.7274 6.75921 15.9808 6.75921 16.245C6.75921 16.5092 6.86375 16.7626 7.05001 16.95L9.17001 19.07L7.76001 20.49L3.51001 16.24L16.24 3.50999L20.49 7.75999L19.07 9.16999Z" fill="black"/>
</svg>
