<svg width="24" height="24" viewBox="0 0 24 24" fill="none" xmlns="http://www.w3.org/2000/svg">
<path d="M20 16.18V7.81998C20.4797 7.65287 20.909 7.3667 21.2479 6.9883C21.5867 6.6099 21.824 6.15166 21.9373 5.65654C22.0507 5.16141 22.0365 4.6456 21.896 4.15747C21.7556 3.66933 21.4935 3.22485 21.1343 2.86568C20.7751 2.50651 20.3307 2.24442 19.8425 2.10397C19.3544 1.96352 18.8386 1.94931 18.3434 2.06267C17.8483 2.17603 17.3901 2.41325 17.0117 2.7521C16.6333 3.09094 16.3471 3.52032 16.18 3.99998H7.82C7.65288 3.52032 7.36672 3.09094 6.98832 2.7521C6.60992 2.41325 6.15168 2.17603 5.65655 2.06267C5.16142 1.94931 4.64562 1.96352 4.15748 2.10397C3.66934 2.24442 3.22486 2.50651 2.86569 2.86568C2.50653 3.22485 2.24443 3.66933 2.10398 4.15747C1.96353 4.6456 1.94932 5.16141 2.06268 5.65654C2.17604 6.15166 2.41327 6.6099 2.75211 6.9883C3.09096 7.3667 3.52034 7.65287 4 7.81998V16.18C3.52034 16.3471 3.09096 16.6333 2.75211 17.0117C2.41327 17.3901 2.17604 17.8483 2.06268 18.3434C1.94932 18.8386 1.96353 19.3544 2.10398 19.8425C2.24443 20.3306 2.50653 20.7751 2.86569 21.1343C3.22486 21.4935 3.66934 21.7555 4.15748 21.896C4.64562 22.0365 5.16142 22.0507 5.65655 21.9373C6.15168 21.8239 6.60992 21.5867 6.98832 21.2479C7.36672 20.909 7.65288 20.4796 7.82 20H16.18C16.3471 20.4796 16.6333 20.909 17.0117 21.2479C17.3901 21.5867 17.8483 21.8239 18.3434 21.9373C18.8386 22.0507 19.3544 22.0365 19.8425 21.896C20.3307 21.7555 20.7751 21.4935 21.1343 21.1343C21.4935 20.7751 21.7556 20.3306 21.896 19.8425C22.0365 19.3544 22.0507 18.8386 21.9373 18.3434C21.824 17.8483 21.5867 17.3901 21.2479 17.0117C20.909 16.6333 20.4797 16.3471 20 16.18ZM19 3.99998C19.1978 3.99998 19.3911 4.05863 19.5556 4.16851C19.72 4.2784 19.8482 4.43457 19.9239 4.6173C19.9996 4.80003 20.0194 5.00109 19.9808 5.19507C19.9422 5.38906 19.847 5.56724 19.7071 5.70709C19.5673 5.84694 19.3891 5.94218 19.1951 5.98077C19.0011 6.01935 18.8 5.99955 18.6173 5.92386C18.4346 5.84818 18.2784 5.72 18.1685 5.55555C18.0586 5.3911 18 5.19777 18 4.99998C18 4.73477 18.1054 4.48041 18.2929 4.29288C18.4804 4.10534 18.7348 3.99998 19 3.99998ZM5 3.99998C5.19778 3.99998 5.39112 4.05863 5.55557 4.16851C5.72002 4.2784 5.84819 4.43457 5.92388 4.6173C5.99957 4.80003 6.01937 5.00109 5.98078 5.19507C5.9422 5.38906 5.84696 5.56724 5.70711 5.70709C5.56725 5.84694 5.38907 5.94218 5.19509 5.98077C5.00111 6.01935 4.80004 5.99955 4.61732 5.92386C4.43459 5.84818 4.27841 5.72 4.16853 5.55555C4.05865 5.3911 4 5.19777 4 4.99998C4 4.73477 4.10536 4.48041 4.29289 4.29288C4.48043 4.10534 4.73478 3.99998 5 3.99998ZM5 20C4.80222 20 4.60888 19.9413 4.44443 19.8315C4.27998 19.7216 4.15181 19.5654 4.07612 19.3827C4.00043 19.1999 3.98063 18.9989 4.01921 18.8049C4.0578 18.6109 4.15304 18.4327 4.29289 18.2929C4.43274 18.153 4.61093 18.0578 4.80491 18.0192C4.99889 17.9806 5.19996 18.0004 5.38268 18.0761C5.56541 18.1518 5.72159 18.28 5.83147 18.4444C5.94135 18.6089 6 18.8022 6 19C6 19.2652 5.89464 19.5196 5.70711 19.7071C5.51957 19.8946 5.26522 20 5 20ZM16.18 18H7.82C7.67068 17.5806 7.42989 17.1997 7.1151 16.8849C6.8003 16.5701 6.4194 16.3293 6 16.18V7.81998C6.4194 7.67067 6.8003 7.42988 7.1151 7.11508C7.42989 6.80029 7.67068 6.41938 7.82 5.99998H16.18C16.3293 6.41938 16.5701 6.80029 16.8849 7.11508C17.1997 7.42988 17.5806 7.67067 18 7.81998V16.18C17.5806 16.3293 17.1997 16.5701 16.8849 16.8849C16.5701 17.1997 16.3293 17.5806 16.18 18ZM19 20C18.8022 20 18.6089 19.9413 18.4444 19.8315C18.28 19.7216 18.1518 19.5654 18.0761 19.3827C18.0004 19.1999 17.9806 18.9989 18.0192 18.8049C18.0578 18.6109 18.153 18.4327 18.2929 18.2929C18.4327 18.153 18.6109 18.0578 18.8049 18.0192C18.9989 17.9806 19.2 18.0004 19.3827 18.0761C19.5654 18.1518 19.7216 18.28 19.8315 18.4444C19.9414 18.6089 20 18.8022 20 19C20 19.2652 19.8946 19.5196 19.7071 19.7071C19.5196 19.8946 19.2652 20 19 20Z" fill="black"/>
</svg>
