<svg width="24" height="24" viewBox="0 0 24 24" fill="none" xmlns="http://www.w3.org/2000/svg">
<path d="M4.94001 12.24C4.81059 12.209 4.67628 12.2042 4.54497 12.2258C4.41366 12.2473 4.28797 12.2949 4.17528 12.3657C4.06259 12.4365 3.96516 12.529 3.8887 12.638C3.81224 12.7469 3.75829 12.87 3.73001 13L3.24001 14.94C3.18636 15.1971 3.23601 15.4649 3.37821 15.6857C3.52041 15.9065 3.74376 16.0625 4.00001 16.12C4.25725 16.1834 4.52917 16.1422 4.75603 16.0053C4.9829 15.8685 5.14618 15.6472 5.21001 15.39L5.70001 13.45C5.73099 13.3206 5.73583 13.1863 5.71425 13.055C5.69267 12.9237 5.64509 12.798 5.57431 12.6853C5.50353 12.5726 5.41096 12.4752 5.30205 12.3987C5.19313 12.3222 5.07004 12.2683 4.94001 12.24ZM21.94 19.76L17.94 3.76C17.8877 3.5481 17.7676 3.35912 17.5978 3.22189C17.4281 3.08467 17.2182 3.00674 17 3H14C13.7348 3 13.4804 3.10536 13.2929 3.29289C13.1054 3.48043 13 3.73478 13 4V20C13 20.2652 13.1054 20.5196 13.2929 20.7071C13.4804 20.8946 13.7348 21 14 21H21C21.1519 21.0008 21.302 20.967 21.4389 20.9012C21.5757 20.8353 21.6958 20.7392 21.79 20.62C21.8887 20.5024 21.9589 20.3636 21.9954 20.2145C22.0318 20.0654 22.0334 19.9098 22 19.76H21.94ZM15 19V5H16.22L19.72 19H15ZM6.40001 6.42C6.27195 6.3871 6.13863 6.37991 6.00778 6.39887C5.87693 6.41782 5.75114 6.46254 5.63768 6.53042C5.52422 6.59831 5.42535 6.68803 5.34679 6.79438C5.26823 6.90073 5.21154 7.0216 5.18001 7.15L4.70001 9.09C4.63656 9.34725 4.6778 9.61916 4.81467 9.84603C4.95154 10.0729 5.17285 10.2362 5.43001 10.3H5.67001C5.89844 10.3067 6.12226 10.2349 6.30421 10.0966C6.48616 9.95831 6.61525 9.76188 6.67001 9.54L7.15001 7.6C7.20395 7.34432 7.15567 7.07768 7.0155 6.85714C6.87533 6.63661 6.65441 6.4797 6.40001 6.42ZM7.51001 5H9.51001C9.77522 5 10.0296 4.89464 10.2171 4.70711C10.4046 4.51957 10.51 4.26522 10.51 4C10.51 3.73478 10.4046 3.48043 10.2171 3.29289C10.0296 3.10536 9.77522 3 9.51001 3H7.51001C7.24479 3 6.99043 3.10536 6.8029 3.29289C6.61536 3.48043 6.51001 3.73478 6.51001 4C6.51001 4.26522 6.61536 4.51957 6.8029 4.70711C6.99043 4.89464 7.24479 5 7.51001 5ZM4.24001 19C4.27183 18.7348 4.197 18.4678 4.03197 18.2577C3.86693 18.0477 3.62522 17.9118 3.36001 17.88C3.09479 17.8482 2.82779 17.923 2.61775 18.088C2.40771 18.2531 2.27183 18.4948 2.24001 18.76L2.00001 19.76C1.96255 19.9076 1.9593 20.0618 1.99049 20.2108C2.02169 20.3599 2.08651 20.4998 2.18001 20.62C2.27726 20.7433 2.40217 20.8419 2.54463 20.9079C2.68709 20.9739 2.84309 21.0055 3.00001 21H4.00001C4.26522 21.0318 4.53222 20.957 4.74226 20.792C4.9523 20.6269 5.08818 20.3852 5.12001 20.12C5.15183 19.8548 5.077 19.5878 4.91197 19.3777C4.74693 19.1677 4.50522 19.0318 4.24001 19ZM10 6.51C9.73479 6.51 9.48043 6.61536 9.2929 6.80289C9.10536 6.99043 9.00001 7.24478 9.00001 7.51V9.51C9.00001 9.77522 9.10536 10.0296 9.2929 10.2171C9.48043 10.4046 9.73479 10.51 10 10.51C10.2652 10.51 10.5196 10.4046 10.7071 10.2171C10.8946 10.0296 11 9.77522 11 9.51V7.51C11 7.24478 10.8946 6.99043 10.7071 6.80289C10.5196 6.61536 10.2652 6.51 10 6.51ZM10 12.51C9.73479 12.51 9.48043 12.6154 9.2929 12.8029C9.10536 12.9904 9.00001 13.2448 9.00001 13.51V15.51C9.00001 15.7752 9.10536 16.0296 9.2929 16.2171C9.48043 16.4046 9.73479 16.51 10 16.51C10.2652 16.51 10.5196 16.4046 10.7071 16.2171C10.8946 16.0296 11 15.7752 11 15.51V13.51C11 13.2448 10.8946 12.9904 10.7071 12.8029C10.5196 12.6154 10.2652 12.51 10 12.51ZM10 18.51C9.82646 18.51 9.65591 18.5552 9.50513 18.6411C9.35434 18.727 9.22851 18.8507 9.14001 19H8.00001C7.73479 19 7.48043 19.1054 7.2929 19.2929C7.10536 19.4804 7.00001 19.7348 7.00001 20C7.00001 20.2652 7.10536 20.5196 7.2929 20.7071C7.48043 20.8946 7.73479 21 8.00001 21H10C10.2652 21 10.5196 20.8946 10.7071 20.7071C10.8946 20.5196 11 20.2652 11 20V19.51C11 19.2448 10.8946 18.9904 10.7071 18.8029C10.5196 18.6154 10.2652 18.51 10 18.51Z" fill="black"/>
</svg>
