<svg width="24" height="24" viewBox="0 0 24 24" fill="none" xmlns="http://www.w3.org/2000/svg">
<g clip-path="url(#clip0_37_6306)">
<path d="M12.4999 8H10.9999V14L15.7499 16.85L16.4999 15.62L12.4999 13.25V8ZM17.3369 1.81L21.9439 5.655L20.6639 7.19L16.0539 3.347L17.3369 1.81ZM6.66288 1.81L7.94489 3.346L3.33688 7.19L2.05688 5.654L6.66288 1.81ZM11.9999 4C7.02988 4 2.99988 8.03 2.99988 13C2.99988 17.97 7.02988 22 11.9999 22C16.9699 22 20.9999 17.97 20.9999 13C20.9999 8.03 16.9699 4 11.9999 4ZM11.9999 20C8.13988 20 4.99988 16.86 4.99988 13C4.99988 9.14 8.13988 6 11.9999 6C15.8599 6 18.9999 9.14 18.9999 13C18.9999 16.86 15.8599 20 11.9999 20Z" fill="#4F5366"/>
</g>
<defs>
<clipPath id="clip0_37_6306">
<rect width="24" height="24" fill="white"/>
</clipPath>
</defs>
</svg>
