<svg width="24" height="24" viewBox="0 0 24 24" fill="none" xmlns="http://www.w3.org/2000/svg">
<g clip-path="url(#clip0_37_6312)">
<path d="M10.0401 6.29C10.6601 6.11 11.3201 6 12.0001 6C15.8601 6 19.0001 9.14 19.0001 13C19.0001 13.68 18.8901 14.34 18.7101 14.96L20.2701 16.52C20.7401 15.44 21.0001 14.25 21.0001 13C21.0001 8.03 16.9701 4 12.0001 4C10.7501 4 9.56011 4.26 8.47011 4.72L10.0401 6.29ZM17.3371 1.81L21.9441 5.655L20.6641 7.19L16.0541 3.347L17.3371 1.81ZM3.02011 2.1L1.61011 3.51L2.98011 4.88L2.06011 5.65L3.34011 7.19L4.40011 6.31L5.20011 7.11C3.83011 8.69 3.00011 10.75 3.00011 13C3.00011 17.97 7.03011 22 12.0001 22C14.2501 22 16.3101 21.17 17.8901 19.8L19.9901 21.9L21.4001 20.49L3.02011 2.1ZM12.0001 20C8.14011 20 5.00011 16.86 5.00011 13C5.00011 11.3 5.61011 9.74 6.62011 8.53L16.4701 18.38C15.2601 19.39 13.7001 20 12.0001 20ZM7.48011 3.73L7.94011 3.35L6.66011 1.81L6.06011 2.31L7.48011 3.73Z" fill="#4F5366"/>
</g>
<defs>
<clipPath id="clip0_37_6312">
<rect width="24" height="24" fill="white"/>
</clipPath>
</defs>
</svg>
