<svg width="24" height="24" viewBox="0 0 24 24" fill="none" xmlns="http://www.w3.org/2000/svg">
<g clip-path="url(#clip0_37_8333)">
<path d="M19.9999 8.69V4H15.3099L11.9999 0.690002L8.68994 4H3.99994V8.69L0.689941 12L3.99994 15.31V20H8.68994L11.9999 23.31L15.3099 20H19.9999V15.31L23.3099 12L19.9999 8.69ZM17.9999 14.48V18H14.4799L11.9999 20.48L9.51994 18H5.99994V14.48L3.51994 12L5.99994 9.52V6H9.51994L11.9999 3.52L14.4799 6H17.9999V9.52L20.4799 12L17.9999 14.48ZM11.9999 6C8.68994 6 5.99994 8.69 5.99994 12C5.99994 15.31 8.68994 18 11.9999 18C15.3099 18 17.9999 15.31 17.9999 12C17.9999 8.69 15.3099 6 11.9999 6ZM11.9999 16C9.78994 16 7.99994 14.21 7.99994 12C7.99994 9.79 9.78994 8 11.9999 8C14.2099 8 15.9999 9.79 15.9999 12C15.9999 14.21 14.2099 16 11.9999 16Z" fill="#323232"/>
<path d="M12 14.5C13.3807 14.5 14.5 13.3807 14.5 12C14.5 10.6193 13.3807 9.5 12 9.5C10.6193 9.5 9.5 10.6193 9.5 12C9.5 13.3807 10.6193 14.5 12 14.5Z" fill="#323232"/>
</g>
<defs>
<clipPath id="clip0_37_8333">
<rect width="24" height="24" fill="white"/>
</clipPath>
</defs>
</svg>
