<svg width="24" height="24" viewBox="0 0 24 24" fill="none" xmlns="http://www.w3.org/2000/svg">
<path d="M17.6384 15.9035L17.3538 16.3146L17.6384 15.9035ZM6.36158 15.9035L6.64618 16.3146L6.36158 15.9035ZM6.36158 8.09648L6.64619 7.68538L6.36158 8.09648ZM5 4V6.45209H6V4H5ZM5 17.5479V20H6V17.5479H5ZM6 21H18V20H6V21ZM19 20V17.5479H18V20H19ZM19 6.45209V4H18V6.45209H19ZM18 3H6V4H18V3ZM17.923 15.4924L12.2846 11.5889L11.7154 12.4111L17.3538 16.3146L17.923 15.4924ZM12.2846 12.4111L17.923 8.50757L17.3538 7.68538L11.7154 11.5889L12.2846 12.4111ZM6.07698 8.50757L11.7154 12.4111L12.2846 11.5889L6.64619 7.68538L6.07698 8.50757ZM11.7154 11.5889L6.07697 15.4924L6.64618 16.3146L12.2846 12.4111L11.7154 11.5889ZM19 4C19 3.44772 18.5523 3 18 3V4H19ZM18 6.45209C18 6.94431 17.7585 7.40521 17.3538 7.68538L17.923 8.50757C18.5975 8.04062 19 7.27246 19 6.45209H18ZM19 17.5479C19 16.7275 18.5975 15.9594 17.923 15.4924L17.3538 16.3146C17.7585 16.5948 18 17.0557 18 17.5479H19ZM18 21C18.5523 21 19 20.5523 19 20H18V21ZM5 20C5 20.5523 5.44772 21 6 21V20H5ZM6 17.5479C6 17.0557 6.24149 16.5948 6.64618 16.3146L6.07697 15.4924C5.40248 15.9594 5 16.7275 5 17.5479H6ZM5 6.45209C5 7.27246 5.40248 8.04062 6.07698 8.50757L6.64619 7.68538C6.24149 7.40521 6 6.94431 6 6.45209H5ZM6 4H6V3C5.44772 3 5 3.44771 5 4H6Z" fill="#33363F"/>
<path d="M9.5 20.5L11.7682 17.7781C11.918 17.5984 12 17.3719 12 17.138V12" stroke="#33363F" stroke-linecap="round" stroke-linejoin="round"/>
<path d="M14.5 20.5L12.2318 17.7781C12.082 17.5984 12 17.3719 12 17.138V12" stroke="#33363F" stroke-linecap="round" stroke-linejoin="round"/>
<path d="M17 8H7V9H17V8Z" fill="#33363F"/>
</svg>
