<svg width="24" height="25" viewBox="0 0 24 25" fill="none" xmlns="http://www.w3.org/2000/svg">
<path d="M4 10.5C4 8.61438 4 7.67157 4.58579 7.08579C5.17157 6.5 6.11438 6.5 8 6.5H16C17.8856 6.5 18.8284 6.5 19.4142 7.08579C20 7.67157 20 8.61438 20 10.5V12.5C20 13.4428 20 13.9142 19.7071 14.2071C19.4142 14.5 18.9428 14.5 18 14.5H17.3C17.1586 14.5 17.0879 14.5 17.0439 14.4561C17 14.4121 17 14.3414 17 14.2V13.5C17 12.5572 17 12.0858 16.7071 11.7929C16.4142 11.5 15.9428 11.5 15 11.5H9C8.05719 11.5 7.58579 11.5 7.29289 11.7929C7 12.0858 7 12.5572 7 13.5V14.2C7 14.3414 7 14.4121 6.95607 14.4561C6.91213 14.5 6.84142 14.5 6.7 14.5H5C4.5286 14.5 4.29289 14.5 4.14645 14.3536C4 14.2071 4 13.9714 4 13.5V10.5Z" fill="#222222"/>
<path d="M7 20.7615L7 13.5C7 12.5572 7 12.0858 7.29289 11.7929C7.58579 11.5 8.05719 11.5 9 11.5L15 11.5C15.9428 11.5 16.4142 11.5 16.7071 11.7929C17 12.0858 17 12.5572 17 13.5L17 20.7615C17 21.0961 17 21.2634 16.8902 21.3378C16.7803 21.4121 16.625 21.35 16.3143 21.2257L14.6857 20.5743C14.594 20.5376 14.5481 20.5193 14.5 20.5193C14.4519 20.5193 14.406 20.5376 14.3143 20.5743L12.1857 21.4257C12.094 21.4624 12.0481 21.4807 12 21.4807C11.9519 21.4807 11.906 21.4624 11.8143 21.4257L9.6857 20.5743C9.594 20.5376 9.54815 20.5193 9.5 20.5193C9.45185 20.5193 9.406 20.5376 9.3143 20.5743L7.6857 21.2257C7.37502 21.35 7.21969 21.4121 7.10984 21.3378C7 21.2634 7 21.0961 7 20.7615Z" fill="#2A4157" fill-opacity="0.24"/>
<path d="M9.5 15L13.5 15" stroke="#222222" stroke-linecap="round"/>
<path d="M9.5 18L14.5 18" stroke="#222222" stroke-linecap="round"/>
<path d="M7 5.23913C7 4.54725 7 4.20131 7.16382 3.95155C7.23899 3.83693 7.33693 3.73899 7.45155 3.66382C7.70131 3.5 8.04725 3.5 8.73913 3.5H15.2609C15.9528 3.5 16.2987 3.5 16.5485 3.66382C16.6631 3.73899 16.761 3.83693 16.8362 3.95155C17 4.20131 17 4.54725 17 5.23913C17 5.34291 17 5.3948 16.9754 5.43227C16.9642 5.44946 16.9495 5.46415 16.9323 5.47543C16.8948 5.5 16.8429 5.5 16.7391 5.5H7.26087C7.15709 5.5 7.1052 5.5 7.06773 5.47543C7.05054 5.46415 7.03585 5.44946 7.02457 5.43227C7 5.3948 7 5.34291 7 5.23913Z" fill="#222222"/>
</svg>
