<svg width="24" height="24" viewBox="0 0 24 24" fill="none" xmlns="http://www.w3.org/2000/svg">
<rect x="5.5" y="5.5" width="13" height="11" rx="2.5" stroke="#33363F"/>
<path d="M15 5.5H15.5V5V4L15.5 3.96708C15.5 3.52384 15.5 3.14193 15.4589 2.8361C15.4149 2.50835 15.3155 2.19417 15.0607 1.93934C14.8058 1.68451 14.4917 1.58514 14.1639 1.54107C13.8581 1.49995 13.4762 1.49997 13.0329 1.5L13 1.5H11C10.989 1.5 10.978 1.5 10.9671 1.5C10.5238 1.49997 10.1419 1.49995 9.8361 1.54107C9.50835 1.58514 9.19417 1.68451 8.93934 1.93934C8.68451 2.19417 8.58514 2.50835 8.54107 2.8361C8.49995 3.14193 8.49997 3.52384 8.5 3.96708C8.5 3.97802 8.5 3.98899 8.5 4V5V5.5H9H15Z" stroke="#33363F"/>
<path d="M15 16.5H15.5V17V20L15.5 20.0329C15.5 20.4762 15.5 20.8581 15.4589 21.1639C15.4149 21.4917 15.3155 21.8058 15.0607 22.0607C14.8058 22.3155 14.4917 22.4149 14.1639 22.4589C13.8581 22.5 13.4762 22.5 13.0329 22.5L13 22.5H11C10.989 22.5 10.978 22.5 10.9671 22.5C10.5238 22.5 10.1419 22.5 9.8361 22.4589C9.50835 22.4149 9.19417 22.3155 8.93934 22.0607C8.68451 21.8058 8.58514 21.4917 8.54107 21.1639C8.49995 20.8581 8.49997 20.4762 8.5 20.0329C8.5 20.022 8.5 20.011 8.5 20V17V16.5H9H15Z" stroke="#33363F"/>
</svg>
