<svg width="24" height="24" viewBox="0 0 24 24" fill="none" xmlns="http://www.w3.org/2000/svg">
<g clip-path="url(#clip0_37_9281)">
<path d="M21.9 21.9L15.8 15.8L13.11 13.11L5 5.00001L3.59 3.59001L2.1 2.10001L0.690002 3.51001L3 5.83001V19C3 20.1 3.9 21 5 21H18.17L20.48 23.31L21.9 21.9ZM5 19V7.83001L11.84 14.67L11 15.72L9 13L6 17H14.17L16.17 19H5ZM7.83 5.00001L5.83 3.00001H19C20.1 3.00001 21 3.90001 21 5.00001V18.17L19 16.17V5.00001H7.83Z" fill="#323232"/>
</g>
<defs>
<clipPath id="clip0_37_9281">
<rect width="24" height="24" fill="white"/>
</clipPath>
</defs>
</svg>
