<svg width="24" height="24" viewBox="0 0 24 24" fill="none" xmlns="http://www.w3.org/2000/svg">
<g clip-path="url(#clip0_37_6501)">
<path d="M12 2C6.48 2 2 6.48 2 12C2 17.52 6.48 22 12 22C17.52 22 22 17.52 22 12C22 6.48 17.52 2 12 2ZM12 20C7.58 20 4 16.42 4 12C4 7.58 7.58 4 12 4C16.42 4 20 7.58 20 12C20 16.42 16.42 20 12 20Z" fill="#4F5366"/>
<path d="M7.1001 10.18C7.3601 10.74 7.4901 11.34 7.5001 11.98C7.5101 12.61 7.3701 13.23 7.1001 13.84L8.4701 14.46C8.8401 13.65 9.0201 12.81 9.0101 11.96C9.0001 11.12 8.8201 10.31 8.4701 9.56L7.1001 10.18Z" fill="#4F5366"/>
<path d="M13.3301 7.33C14.1101 8.9 14.5101 10.47 14.5101 11.97C14.5101 13.48 14.1101 15.06 13.3301 16.66L14.6801 17.32C15.5601 15.51 16.0101 13.71 16.0101 11.97C16.0101 10.23 15.5601 8.44 14.6801 6.66L13.3301 7.33Z" fill="#4F5366"/>
<path d="M10.2 8.71999C10.73 9.78999 11 10.93 11 12.12C11 13.29 10.74 14.35 10.22 15.27L11.52 16.01C12.17 14.86 12.5 13.56 12.5 12.12C12.5 10.7 12.18 9.32999 11.54 8.04999L10.2 8.71999Z" fill="#4F5366"/>
</g>
<defs>
<clipPath id="clip0_37_6501">
<rect width="24" height="24" fill="white"/>
</clipPath>
</defs>
</svg>
