<svg width="24" height="24" viewBox="0 0 24 24" fill="none" xmlns="http://www.w3.org/2000/svg">
<g clip-path="url(#clip0_37_6555)">
<path d="M13 5.07999C16.06 5.51999 18.48 7.93999 18.92 11H21.95C21.48 6.27999 17.72 2.51999 13 2.04999V5.07999ZM18.92 13C18.48 16.06 16.06 18.48 13 18.92V21.95C17.72 21.48 21.48 17.72 21.95 13H18.92ZM11 18.92C7.61 18.43 5 15.52 5 12C5 8.47999 7.61 5.56999 11 5.07999V2.04999C5.95 2.54999 2 6.80999 2 12C2 17.19 5.95 21.45 11 21.95V18.92Z" fill="#4F5366"/>
</g>
<defs>
<clipPath id="clip0_37_6555">
<rect width="24" height="24" fill="white"/>
</clipPath>
</defs>
</svg>
