<svg width="24" height="24" viewBox="0 0 24 24" fill="none" xmlns="http://www.w3.org/2000/svg">
<g clip-path="url(#clip0_37_6699)">
<path d="M15.1 19.37L16.1 21.11C15.14 21.55 14.09 21.84 13 21.95V19.93C13.74 19.84 14.44 19.65 15.1 19.37ZM4.07005 13H2.05005C2.16005 14.1 2.45005 15.14 2.89005 16.1L4.63005 15.1C4.35005 14.44 4.16005 13.74 4.07005 13ZM15.1 4.63L16.1 2.89C15.14 2.45 14.1 2.16 13 2.05V4.07C13.74 4.16 14.44 4.35 15.1 4.63ZM19.93 11H21.9501C21.84 9.9 21.5501 8.86 21.1101 7.9L19.3701 8.9C19.6501 9.56 19.84 10.26 19.93 11ZM8.90005 19.37L7.90005 21.11C8.86005 21.55 9.91005 21.84 11 21.95V19.93C10.26 19.84 9.56005 19.65 8.90005 19.37ZM11 4.07V2.05C9.90005 2.16 8.86005 2.45 7.90005 2.89L8.90005 4.63C9.56005 4.35 10.26 4.16 11 4.07ZM18.3601 7.17L20.1 6.16C19.4701 5.29 18.7 4.52 17.83 3.89L16.82 5.63C17.41 6.08 17.9201 6.59 18.3601 7.17ZM4.63005 8.9L2.89005 7.9C2.45005 8.86 2.16005 9.9 2.05005 11H4.07005C4.16005 10.26 4.35005 9.56 4.63005 8.9ZM19.93 13C19.84 13.74 19.6501 14.44 19.3701 15.1L21.1101 16.1C21.5501 15.14 21.84 14.09 21.9501 13H19.93ZM16.83 18.36L17.84 20.1C18.71 19.47 19.4801 18.7 20.1101 17.83L18.3701 16.82C17.9201 17.41 17.41 17.92 16.83 18.36ZM7.17005 5.64L6.17005 3.89C5.29005 4.53 4.53005 5.29 3.90005 6.17L5.64005 7.18C6.08005 6.59 6.59005 6.08 7.17005 5.64ZM5.64005 16.83L3.90005 17.83C4.53005 18.7 5.30005 19.47 6.17005 20.1L7.18005 18.36C6.59005 17.92 6.08005 17.41 5.64005 16.83ZM13 7H11V12.41L15.29 16.7L16.7 15.29L13 11.59V7Z" fill="#323232"/>
</g>
<defs>
<clipPath id="clip0_37_6699">
<rect width="24" height="24" fill="white"/>
</clipPath>
</defs>
</svg>
