<svg width="24" height="24" viewBox="0 0 24 24" fill="none" xmlns="http://www.w3.org/2000/svg">
<g clip-path="url(#clip0_37_6820)">
<path d="M12 2C6.48 2 2 6.48 2 12C2 17.52 6.48 22 12 22C17.52 22 22 17.52 22 12C22 6.48 17.52 2 12 2ZM12 20C7.58 20 4 16.42 4 12C4 7.58 7.58 4 12 4C16.42 4 20 7.58 20 12C20 16.42 16.42 20 12 20Z" fill="#323232"/>
<path d="M15.9699 11.03C14.8699 9.79 13.2799 9 11.4999 9C8.67993 9 6.31993 10.95 5.67993 13.56L6.63993 13.88C7.14993 11.66 9.12993 10 11.4999 10C13.0099 10 14.3499 10.68 15.2599 11.74L12.9999 14H17.9999V9L15.9699 11.03Z" fill="#323232"/>
</g>
<defs>
<clipPath id="clip0_37_6820">
<rect width="24" height="24" fill="white"/>
</clipPath>
</defs>
</svg>
