<svg width="24" height="24" viewBox="0 0 24 24" fill="none" xmlns="http://www.w3.org/2000/svg">
<g clip-path="url(#clip0_37_6830)">
<path d="M9.99989 4C9.99989 2.9 10.8999 2 11.9999 2C13.0999 2 13.9999 2.9 13.9999 4C13.9999 5.1 13.0999 6 11.9999 6C10.8999 6 9.99989 5.1 9.99989 4ZM18.9999 13V11C17.4599 11.02 15.9099 10.25 14.9299 9.17L13.6399 7.74C13.3999 7.5 13.1999 7.38 13.0099 7.28C12.6499 7.09 12.2899 6.98 11.8099 7.02C11.3199 7.06 10.8999 7.29 10.5799 7.63L13.9999 11.05C15.2899 12.12 17.2499 12.99 18.9999 13ZM9.99989 20C8.33989 20 6.99989 18.66 6.99989 17C6.99989 15.69 7.83989 14.59 8.99989 14.17V12.1C6.71989 12.56 4.99989 14.58 4.99989 17C4.99989 19.76 7.23989 22 9.99989 22C12.4199 22 14.4399 20.28 14.8999 18H12.8299C12.4199 19.16 11.3099 20 9.99989 20ZM2.80989 2.81L1.38989 4.22L9.99989 12.83V15C9.99989 16.1 10.8999 17 11.9999 17H14.1699L19.7799 22.61L21.1899 21.2L2.80989 2.81Z" fill="#323232"/>
</g>
<defs>
<clipPath id="clip0_37_6830">
<rect width="24" height="24" fill="white"/>
</clipPath>
</defs>
</svg>
