<svg width="24" height="24" viewBox="0 0 24 24" fill="none" xmlns="http://www.w3.org/2000/svg">
<g clip-path="url(#clip0_37_6838)">
<path d="M12 2.02C6.49002 2.02 2.02002 6.49 2.02002 12C2.02002 17.51 6.49002 21.98 12 21.98C17.51 21.98 21.98 17.51 21.98 12C21.98 6.49 17.51 2.02 12 2.02ZM12 19.98C7.60002 19.98 4.02002 16.4 4.02002 12C4.02002 7.6 7.60002 4.02 12 4.02C16.4 4.02 19.98 7.6 19.98 12C19.98 16.4 16.4 19.98 12 19.98ZM12.75 5L8.25002 13.5H11.39V19L15.75 10.5H12.75V5Z" fill="#323232"/>
</g>
<defs>
<clipPath id="clip0_37_6838">
<rect width="24" height="24" fill="white"/>
</clipPath>
</defs>
</svg>
