<svg width="24" height="24" viewBox="0 0 24 24" fill="none" xmlns="http://www.w3.org/2000/svg">
<g clip-path="url(#clip0_37_6928)">
<path d="M14 2H6C4.9 2 4 2.9 4 4V20C4 21.1 4.89 22 5.99 22H18C19.1 22 20 21.1 20 20V8L14 2ZM18 20H6V4H13V9H18V20Z" fill="#323232"/>
<path d="M9.02994 11.03C7.65994 12.4 7.65994 14.61 9.02994 15.98C10.1499 17.1 11.8299 17.29 13.1599 16.57L15.0399 18.45L16.4499 17.04L14.5699 15.16C15.2799 13.83 15.0999 12.15 13.9799 11.03C12.6099 9.66 10.3899 9.66 9.02994 11.03ZM12.5599 14.56C11.9699 15.15 11.0199 15.15 10.4399 14.56C9.84994 13.97 9.84994 13.02 10.4399 12.44C11.0299 11.85 11.9799 11.85 12.5599 12.44C13.1499 13.03 13.1499 13.97 12.5599 14.56Z" fill="#323232"/>
</g>
<defs>
<clipPath id="clip0_37_6928">
<rect width="24" height="24" fill="white"/>
</clipPath>
</defs>
</svg>
