<svg width="24" height="24" viewBox="0 0 24 24" fill="none" xmlns="http://www.w3.org/2000/svg">
<g clip-path="url(#clip0_37_6959)">
<path d="M18.6 19.5H21V21.5H15V15.5H17V18.23C18.83 16.76 20 14.52 20 12C20 7.93 16.94 4.56 13 4.07V2.05C18.05 2.55 22 6.81 22 12C22 14.99 20.68 17.67 18.6 19.5ZM4 12C4 9.48 5.17 7.23 7 5.77V8.5H9V2.5H3V4.5H5.4C3.32 6.33 2 9.01 2 12C2 17.19 5.95 21.45 11 21.95V19.93C7.06 19.44 4 16.07 4 12ZM16.24 8.11L10.58 13.77L7.75 10.94L6.34 12.35L10.58 16.59L17.65 9.52L16.24 8.11Z" fill="#323232"/>
</g>
<defs>
<clipPath id="clip0_37_6959">
<rect width="24" height="24" fill="white"/>
</clipPath>
</defs>
</svg>
