<svg width="24" height="24" viewBox="0 0 24 24" fill="none" xmlns="http://www.w3.org/2000/svg">
<g clip-path="url(#clip0_37_7094)">
<path d="M22 8.99999H17.21L12.83 2.43999C12.64 2.15999 12.32 2.01999 12 2.01999C11.68 2.01999 11.36 2.15999 11.17 2.44999L6.79 8.99999H2C1.45 8.99999 1 9.44999 1 9.99999C1 10.09 1.01 10.18 1.04 10.27L3.58 19.54C3.81 20.38 4.58 21 5.5 21H18.5C19.42 21 20.19 20.38 20.43 19.54L22.97 10.27L23 9.99999C23 9.44999 22.55 8.99999 22 8.99999ZM12 4.79999L14.8 8.99999H9.2L12 4.79999ZM18.5 19L5.51 19.01L3.31 11H20.7L18.5 19ZM12 13C10.9 13 10 13.9 10 15C10 16.1 10.9 17 12 17C13.1 17 14 16.1 14 15C14 13.9 13.1 13 12 13Z" fill="#323232"/>
</g>
<defs>
<clipPath id="clip0_37_7094">
<rect width="24" height="24" fill="white"/>
</clipPath>
</defs>
</svg>
