<svg width="24" height="24" viewBox="0 0 24 24" fill="none" xmlns="http://www.w3.org/2000/svg">
<g clip-path="url(#clip0_37_7114)">
<path d="M20 4.00003V16H18.66L20.57 17.91C21.39 17.66 22 16.9 22 16V4.00003C22 2.90003 21.1 2.00003 20 2.00003H4.66L6.66 4.00003H20ZM6 12H8V14H6V12ZM18 9.00003H11.66L13.66 11H18V9.00003ZM18 6.00003H10V7.34003L10.66 8.00003H18V6.00003ZM1.41 1.59003L0 3.00003L2.01 5.01003L2 22L6 18H15L20.73 23.73L22.14 22.32L1.41 1.59003ZM5.17 16L4 17.17V7.00003L6 9.00003V11H8L13 16H5.17Z" fill="#323232"/>
</g>
<defs>
<clipPath id="clip0_37_7114">
<rect width="24" height="24" fill="white"/>
</clipPath>
</defs>
</svg>
