<svg width="24" height="24" viewBox="0 0 24 24" fill="none" xmlns="http://www.w3.org/2000/svg">
<g clip-path="url(#clip0_37_7136)">
<path d="M20.0001 4H6.83008L8.83008 6H20.0001V17.17L21.7601 18.93C21.9101 18.65 22.0001 18.34 22.0001 18V6C22.0001 4.9 21.1001 4 20.0001 4Z" fill="#323232"/>
<path d="M18.0001 10H12.8301L14.8301 12H18.0001V10Z" fill="#323232"/>
<path d="M1.04004 3.87001L2.24004 5.07001C2.09004 5.35001 2.00004 5.66001 2.00004 6.00001V18C2.00004 19.1 2.90004 20 4.00004 20H17.17L20.13 22.96L21.54 21.55L2.45004 2.45001L1.04004 3.87001ZM4.00004 6.83001L7.17004 10H6.00004V12H8.00004V10.83L11.17 14H6.00004V16H13.17L15.17 18H4.00004V6.83001Z" fill="#323232"/>
</g>
<defs>
<clipPath id="clip0_37_7136">
<rect width="24" height="24" fill="white"/>
</clipPath>
</defs>
</svg>
