<svg width="24" height="24" viewBox="0 0 24 24" fill="none" xmlns="http://www.w3.org/2000/svg">
<g clip-path="url(#clip0_37_7263)">
<path d="M7.93989 5.12L6.48989 3.66C8.06989 2.61 9.95989 2 11.9999 2C17.5199 2 21.9999 6.48 21.9999 12C21.9999 14.04 21.3899 15.93 20.3399 17.51L18.8799 16.05C19.5899 14.86 19.9999 13.48 19.9999 12C19.9999 7.59 16.4099 4 11.9999 4C10.5199 4 9.13989 4.41 7.93989 5.12ZM17.6599 9.53L16.2499 8.12L13.5999 10.77L15.0099 12.18L17.6599 9.53ZM19.7799 22.61L17.5099 20.34C15.9299 21.39 14.0399 22 11.9999 22C6.47989 22 1.99989 17.52 1.99989 12C1.99989 9.96 2.60989 8.07 3.65989 6.49L1.38989 4.22L2.79989 2.81L21.1799 21.19L19.7799 22.61ZM16.0599 18.88L12.1799 15L10.5899 16.59L6.34989 12.35L7.75989 10.94L10.5899 13.77L10.7699 13.59L5.11989 7.94C4.40989 9.14 3.99989 10.52 3.99989 12C3.99989 16.41 7.58989 20 11.9999 20C13.4799 20 14.8599 19.59 16.0599 18.88Z" fill="#323232"/>
</g>
<defs>
<clipPath id="clip0_37_7263">
<rect width="24" height="24" fill="white"/>
</clipPath>
</defs>
</svg>
