<svg width="24" height="24" viewBox="0 0 24 24" fill="none" xmlns="http://www.w3.org/2000/svg">
<g clip-path="url(#clip0_37_7354)">
<path d="M9.99999 4.00003H14V6.00003H10.4L12.4 8.00003H20V15.6L22 17.6V8.00003C22 6.89003 21.11 6.00003 20 6.00003H16V4.00003C16 2.89003 15.11 2.00003 14 2.00003H9.99999C9.00999 2.00003 8.19999 2.70003 8.03999 3.64003L9.99999 5.60003V4.00003ZM3.39999 1.84003L1.98999 3.25003L4.73999 6.00003H3.99999C2.88999 6.00003 2.00999 6.89003 2.00999 8.00003L1.99999 19C1.99999 20.11 2.88999 21 3.99999 21H19.74L21.74 23L23.15 21.59L3.39999 1.84003ZM3.99999 19V8.00003H6.73999L17.74 19H3.99999Z" fill="#323232"/>
</g>
<defs>
<clipPath id="clip0_37_7354">
<rect width="24" height="24" fill="white"/>
</clipPath>
</defs>
</svg>
