<svg width="24" height="24" viewBox="0 0 24 24" fill="none" xmlns="http://www.w3.org/2000/svg">
<g clip-path="url(#clip0_37_8519)">
<path d="M12 6.36001C13.53 8.36001 15.08 10.79 15.71 12.6L17.94 14.83C17.97 14.56 18 14.28 18 14C18 10.02 12 3.20001 12 3.20001C12 3.20001 10.82 4.55001 9.5 6.39001L10.94 7.83001C11.28 7.32001 11.64 6.83001 12 6.36001ZM5.41 5.14001L4 6.55001L7.32 9.87001C6.55 11.33 6 12.79 6 14C6 17.31 8.69 20 12 20C13.52 20 14.9 19.43 15.95 18.5L18.58 21.13L20 19.72L5.41 5.14001ZM12 18C9.79 18 8 16.21 8 14C8 13.31 8.32 12.38 8.81 11.36L14.53 17.08C13.83 17.64 12.96 18 12 18Z" fill="#323232"/>
</g>
<defs>
<clipPath id="clip0_37_8519">
<rect width="24" height="24" fill="white"/>
</clipPath>
</defs>
</svg>
