<svg width="24" height="24" viewBox="0 0 24 24" fill="none" xmlns="http://www.w3.org/2000/svg">
<circle cx="12" cy="12" r="9.5" stroke="#222222"/>
<path d="M18.5 12H19.5" stroke="#33363F" stroke-linecap="round"/>
<path d="M4.5 11.5C4.22386 11.5 4 11.7239 4 12C4 12.2761 4.22386 12.5 4.5 12.5V11.5ZM5.5 12.5C5.77614 12.5 6 12.2761 6 12C6 11.7239 5.77614 11.5 5.5 11.5V12.5ZM12.5 4.5C12.5 4.22386 12.2761 4 12 4C11.7239 4 11.5 4.22386 11.5 4.5H12.5ZM11.5 5.5C11.5 5.77614 11.7239 6 12 6C12.2761 6 12.5 5.77614 12.5 5.5H11.5ZM12.5 18.5C12.5 18.2239 12.2761 18 12 18C11.7239 18 11.5 18.2239 11.5 18.5H12.5ZM11.5 19.5C11.5 19.7761 11.7239 20 12 20C12.2761 20 12.5 19.7761 12.5 19.5H11.5ZM4.5 12.5H5.5V11.5H4.5V12.5ZM11.5 4.5V5.5H12.5V4.5H11.5ZM11.5 18.5V19.5H12.5V18.5H11.5Z" fill="#33363F"/>
<path d="M16.9508 16.8851L17.4103 16.6881L16.9508 16.8851ZM16.8851 16.9508L16.6881 17.4103L16.8851 16.9508ZM9.36973 12.5294L8.91016 12.7263L9.36973 12.5294ZM9.8293 12.3324L7.50881 6.91793L6.58967 7.31185L8.91016 12.7263L9.8293 12.3324ZM6.91793 7.50881L12.3324 9.8293L12.7263 8.91016L7.31185 6.58967L6.91793 7.50881ZM14.1707 11.6676L16.4912 17.0821L17.4103 16.6881L15.0898 11.2737L14.1707 11.6676ZM17.0821 16.4912L11.6676 14.1707L11.2737 15.0898L16.6881 17.4103L17.0821 16.4912ZM16.4912 17.0821C16.3312 16.7087 16.7087 16.3312 17.0821 16.4912L16.6881 17.4103C17.1445 17.6059 17.6059 17.1445 17.4103 16.6881L16.4912 17.0821ZM7.50881 6.91793C7.66883 7.2913 7.29131 7.66883 6.91793 7.50881L7.31185 6.58967C6.8555 6.39409 6.39409 6.85551 6.58967 7.31185L7.50881 6.91793ZM8.91016 12.7263C9.36533 13.7884 10.2116 14.6347 11.2737 15.0898L11.6676 14.1707C10.8415 13.8167 10.1833 13.1585 9.8293 12.3324L8.91016 12.7263ZM12.3324 9.8293C13.1585 10.1833 13.8167 10.8415 14.1707 11.6676L15.0898 11.2737C14.6347 10.2116 13.7884 9.36533 12.7263 8.91016L12.3324 9.8293Z" fill="#33363F"/>
<circle cx="12" cy="12" r="2.5" stroke="#33363F" stroke-linecap="round"/>
</svg>
