<svg width="505" height="505" viewBox="0 0 505 505" fill="none" xmlns="http://www.w3.org/2000/svg">
<g clip-path="url(#clip0_1_27)">
<path d="M341.713 232.057C376.913 267.257 357.713 384.857 270.513 414.457C207.313 436.057 15.313 447.257 3.313 408.057C-11.087 360.057 16.113 493.657 192.113 253.657C231.313 199.257 306.513 196.857 341.713 232.057Z" fill="#EF3388"/>
<path d="M336.113 244.057C371.313 279.257 357.713 384.857 269.713 414.457C206.513 436.057 14.513 447.257 2.51299 408.057C-11.887 360.057 53.713 518.457 229.713 277.657C269.713 224.057 300.913 208.857 336.113 244.057Z" fill="#BC086B"/>
<path d="M336.113 244.057C371.313 279.257 357.713 384.857 269.713 414.457Z" fill="#A0005F"/>
<path d="M500.113 61.657H432.913L324.113 185.657C316.913 192.857 316.913 204.857 324.113 212.057L352.913 241.657C360.113 248.857 372.113 248.857 379.313 241.657L500.113 134.457V61.657Z" fill="#2E9BCC"/>
<path d="M325.713 215.257L353.713 240.857C360.913 248.057 372.913 248.057 380.113 241.657L500.113 135.257V61.657H436.113" fill="#207EB7"/>
<path d="M353.713 240.057C360.913 247.257 372.913 248.057 380.113 240.857L500.113 134.457V61.657" fill="#0E6BAA"/>
<path d="M300.208 209.622L356.783 266.181L387.891 235.065L331.316 178.505L300.208 209.622Z" fill="#F4CD27"/>
<path d="M311.911 221.8L356.027 265.929L387.144 234.821L343.028 190.692L311.911 221.8Z" fill="#EDB811"/>
</g>
<defs>
<clipPath id="clip0_1_27">
<rect width="504.113" height="504.113" fill="white"/>
</clipPath>
</defs>
</svg>
