<svg version="1.2" xmlns="http://www.w3.org/2000/svg" viewBox="0 0 3710 3710" width="512" height="512">
	<title>Wavy_Gen-01_Single-07-ai</title>
	<defs>
		<linearGradient id="g1" x1="1102" y1="835.4" x2="1409.6" y2="1806.8" gradientUnits="userSpaceOnUse">
			<stop offset="0" stop-color="#ff9085"/>
			<stop offset="1" stop-color="#fb6fbb"/>
		</linearGradient>
		<clipPath clipPathUnits="userSpaceOnUse" id="cp1">
			<path d="m994.43 1706.54c-32.09-60.06-206.94-75.9-168.78-198.56 27.95-89.85 150.52-129.63-16.01-247.22-166.53-117.6-242.06-397.58-69.61-441.76 98.98-25.35 150.43 138.05 258.44 157.88 102.63 18.84 145.88 103.62 123.86 216.47-22.02 112.85 39.37 128.31 118.93 177.47 95.58 59.05 13.94 168.36-22.08 214.57-29.09 37.33-57.4 156.46 5.01 193.67 44.89 26.77 12.86 83.14-8.65 112.68l-231.97-56.57c16.23-30.32 36.02-81.54 10.86-128.63z"/>
		</clipPath>
		<clipPath clipPathUnits="userSpaceOnUse" id="cp2">
			<path d="m1315.75 2014.37l-256.55-0.87c0 0-47.85-131.77 15.34-224.44 128.92-189.07-45.67-288.78-112.55-341.49-100.85-79.48-155.06-193.51-6.21-242.57 148.86-49.06 0.22-280-181.16-384.89-177.49-102.64-97.45-477.39 307.11-290.5 241.6 111.61 202.83 368.03 214.04 502.18 11.2 134.15 210.62 145.93 141.8 309.52-58.78 139.75-169.91 241.41-85.69 337.91 84.22 96.49 92.6 204.39-36.13 335.15z"/>
		</clipPath>
		<linearGradient id="g2" x1="637.4" y1="738" x2="1102.2" y2="2073.5" gradientUnits="userSpaceOnUse">
			<stop offset="0" stop-color="#ffc444"/>
			<stop offset="1" stop-color="#f36f56"/>
		</linearGradient>
		<linearGradient id="g3" x1="2639.1" y1="567.8" x2="1915.5" y2="2149.7" gradientUnits="userSpaceOnUse">
			<stop offset="0" stop-color="#aa80f9"/>
			<stop offset="1" stop-color="#6165d7"/>
		</linearGradient>
		<clipPath clipPathUnits="userSpaceOnUse" id="cp3">
			<path d="m2420.17 2081.29l-205.21-52.86c0 0-52.86-153.73 23-194.7 75.86-40.97 46.81-188.59 40.45-269.11-17.25-218.45 218.81-198.59 219.08-481.08 0.07-75.13-24.92-218.44 38.42-278.28 72.17-68.18 124.86-1.3 171.26-58.31 72.52-89.11 190.21-121.07 260.37-29.37 69.24 90.51-14.89 270.68-224.04 415.49-138.27 120.88-140.43 157.07-129.55 245.19 7.62 61.73 66.51 222.54-17.28 286.75-83.79 64.21-147.83 133.6-115.54 203.31 49.11 106.08-60.96 212.97-60.96 212.97z"/>
		</clipPath>
		<clipPath clipPathUnits="userSpaceOnUse" id="cp4">
			<path d="m2214.82 2066.24c109.45-66.52 34.25-197.02 20.47-348-16.14-176.75 177.51-127.68 228.75-252.16 51.24-124.49 91.81-380.64 355.85-413.98 442.13-55.83 405.13 325.58 204.91 369.76-204.61 45.15-416.11 220.34-289.05 312.11 127.06 91.76 40.91 184.06-79.26 229.34-79.68 30.02-276.25 72.29-210.52 291.48 32.21 107.44-53.23 218.58-53.23 218.58l-244.82-76.74c-83.17-163.56-42.56-263.87 66.9-330.39z"/>
		</clipPath>
		<linearGradient id="g4" x1="3222.6" y1="1342" x2="2335.1" y2="2528.8" gradientUnits="userSpaceOnUse">
			<stop offset="0" stop-color="#e38ddd"/>
			<stop offset="1" stop-color="#9571f6"/>
		</linearGradient>
		<linearGradient id="g5" x1="2442.1" y1="1535.5" x2="1942" y2="2402.5" gradientUnits="userSpaceOnUse">
			<stop offset="0" stop-color="#ffc444"/>
			<stop offset="1" stop-color="#f36f56"/>
		</linearGradient>
		<clipPath clipPathUnits="userSpaceOnUse" id="cp5">
			<path d="m2386.86 2529.14l-238.7 5.42c-14.67-33.48-33.84-95.41 15.75-111.91 68.95-22.94 66.89-145.37 46.5-188.08-25.25-52.86-81.51-177.16 24.52-214.3 88.27-30.92 151.55-32.83 154.28-147.78 2.74-114.94 63.19-188.45 167.47-184.81 109.74 3.84 195.1-144.7 286.32-98.67 158.94 80.19 25.02 337.41-162.88 416.48-187.9 79.08-76.74 144.26-68.74 238.02 10.92 128-163.25 105.9-207.5 157.67-34.68 40.58-26.36 94.86-17.02 127.96z"/>
		</clipPath>
		<linearGradient id="g6" x1="1834.9" y1="3724.7" x2="632.2" y2="2698.9" gradientUnits="userSpaceOnUse">
			<stop offset="0" stop-color="#444b8c"/>
			<stop offset="1" stop-color="#26264f"/>
		</linearGradient>
		<linearGradient id="g7" x1="1023.1" y1="2947.3" x2="1187.8" y2="-1480.4" gradientUnits="userSpaceOnUse">
			<stop offset="0" stop-color="#444b8c"/>
			<stop offset="1" stop-color="#26264f"/>
		</linearGradient>
		<linearGradient id="g8" x1="1163.8" y1="516.8" x2="2484.8" y2="516.8" gradientUnits="userSpaceOnUse">
			<stop offset="0" stop-color="#ff9085"/>
			<stop offset="1" stop-color="#fb6fbb"/>
		</linearGradient>
		<linearGradient id="g9" x1="1742.8" y1="459.7" x2="2892.5" y2="2810.5" gradientUnits="userSpaceOnUse">
			<stop offset="0" stop-color="#aa80f9"/>
			<stop offset="1" stop-color="#6165d7"/>
		</linearGradient>
		<linearGradient id="g10" x1="1642" y1="506.9" x2="2796" y2="2866.5" gradientUnits="userSpaceOnUse">
			<stop offset="0" stop-color="#aa80f9"/>
			<stop offset="1" stop-color="#6165d7"/>
		</linearGradient>
		<linearGradient id="g11" x1="1379.4" y1="639" x2="2531.2" y2="2994.2" gradientUnits="userSpaceOnUse">
			<stop offset="0" stop-color="#aa80f9"/>
			<stop offset="1" stop-color="#6165d7"/>
		</linearGradient>
		<linearGradient id="g12" x1="819.5" y1="923.7" x2="1964.3" y2="3264.5" gradientUnits="userSpaceOnUse">
			<stop offset="0" stop-color="#aa80f9"/>
			<stop offset="1" stop-color="#6165d7"/>
		</linearGradient>
		<linearGradient id="g13" x1="944.5" y1="863.1" x2="2089.3" y2="3204" gradientUnits="userSpaceOnUse">
			<stop offset="0" stop-color="#aa80f9"/>
			<stop offset="1" stop-color="#6165d7"/>
		</linearGradient>
		<linearGradient id="g14" x1="1068.4" y1="803.1" x2="2213.3" y2="3144.1" gradientUnits="userSpaceOnUse">
			<stop offset="0" stop-color="#aa80f9"/>
			<stop offset="1" stop-color="#6165d7"/>
		</linearGradient>
		<linearGradient id="g15" x1="1191.4" y1="743.5" x2="2336.3" y2="3084.6" gradientUnits="userSpaceOnUse">
			<stop offset="0" stop-color="#aa80f9"/>
			<stop offset="1" stop-color="#6165d7"/>
		</linearGradient>
		<linearGradient id="g16" x1="1313.3" y1="684.4" x2="2458.3" y2="3025.6" gradientUnits="userSpaceOnUse">
			<stop offset="0" stop-color="#aa80f9"/>
			<stop offset="1" stop-color="#6165d7"/>
		</linearGradient>
		<linearGradient id="g17" x1="1808.2" y1="385.9" x2="2525.8" y2="385.9" gradientUnits="userSpaceOnUse">
			<stop offset="0" stop-color="#ff9085"/>
			<stop offset="1" stop-color="#fb6fbb"/>
		</linearGradient>
		<linearGradient id="g18" x1="1144.2" y1="1161" x2="1778.9" y2="1184.6" gradientUnits="userSpaceOnUse">
			<stop offset="0" stop-color="#ff9085"/>
			<stop offset="1" stop-color="#fb6fbb"/>
		</linearGradient>
		<linearGradient id="g19" x1="2341" y1="2295.5" x2="2407" y2="2205.1" gradientUnits="userSpaceOnUse">
			<stop offset="0" stop-color="#aa80f9"/>
			<stop offset="1" stop-color="#6165d7"/>
		</linearGradient>
		<linearGradient id="g20" x1="3296.4" y1="3094.4" x2="3185.8" y2="3135.7" gradientUnits="userSpaceOnUse">
			<stop offset="0" stop-color="#444b8c"/>
			<stop offset="1" stop-color="#26264f"/>
		</linearGradient>
		<linearGradient id="g21" x1="3254.1" y1="3123.2" x2="3148.8" y2="3056.1" gradientUnits="userSpaceOnUse">
			<stop offset="0" stop-color="#ffc444"/>
			<stop offset="1" stop-color="#f36f56"/>
		</linearGradient>
		<linearGradient id="g22" x1="3125.9" y1="3202.2" x2="3018.7" y2="3244.8" gradientUnits="userSpaceOnUse">
			<stop offset="0" stop-color="#444b8c"/>
			<stop offset="1" stop-color="#26264f"/>
		</linearGradient>
		<linearGradient id="g23" x1="3085.4" y1="3234.1" x2="2980.1" y2="3167" gradientUnits="userSpaceOnUse">
			<stop offset="0" stop-color="#ffc444"/>
			<stop offset="1" stop-color="#f36f56"/>
		</linearGradient>
		<linearGradient id="g24" x1="1776.2" y1="2610.1" x2="2038.8" y2="2250.8" gradientUnits="userSpaceOnUse">
			<stop offset="0" stop-color="#aa80f9"/>
			<stop offset="1" stop-color="#6165d7"/>
		</linearGradient>
		<linearGradient id="g25" x1="1794.1" y1="2654.2" x2="2098.8" y2="2267.9" gradientUnits="userSpaceOnUse">
			<stop offset="0" stop-color="#aa80f9"/>
			<stop offset="1" stop-color="#6165d7"/>
		</linearGradient>
		<linearGradient id="g26" x1="1703" y1="2546.6" x2="1988.6" y2="2194.7" gradientUnits="userSpaceOnUse">
			<stop offset="0" stop-color="#aa80f9"/>
			<stop offset="1" stop-color="#6165d7"/>
		</linearGradient>
		<linearGradient id="g27" x1="2138.4" y1="3062.2" x2="2338.7" y2="2446.2" gradientUnits="userSpaceOnUse">
			<stop offset="0" stop-color="#444b8c"/>
			<stop offset="1" stop-color="#26264f"/>
		</linearGradient>
		<linearGradient id="g28" x1="3166.2" y1="2905.5" x2="2896.3" y2="3580.5" gradientUnits="userSpaceOnUse">
			<stop offset="0" stop-color="#444b8c"/>
			<stop offset="1" stop-color="#26264f"/>
		</linearGradient>
		<linearGradient id="g29" x1="2270.4" y1="3049.7" x2="2162.8" y2="2867.3" gradientUnits="userSpaceOnUse">
			<stop offset="0" stop-color="#311944"/>
			<stop offset="1" stop-color="#893976"/>
		</linearGradient>
		<linearGradient id="g30" x1="2244.4" y1="2654" x2="2303.4" y2="2822.3" gradientUnits="userSpaceOnUse">
			<stop offset="0" stop-color="#311944"/>
			<stop offset="1" stop-color="#893976"/>
		</linearGradient>
		<linearGradient id="g31" x1="2157.8" y1="2670" x2="2298.4" y2="2642.5" gradientUnits="userSpaceOnUse">
			<stop offset="0" stop-color="#ffc444"/>
			<stop offset="1" stop-color="#f36f56"/>
		</linearGradient>
		<linearGradient id="g32" x1="2343" y1="2908.3" x2="2192.1" y2="2725.2" gradientUnits="userSpaceOnUse">
			<stop offset="0" stop-color="#444b8c"/>
			<stop offset="1" stop-color="#26264f"/>
		</linearGradient>
		<linearGradient id="g33" x1="2097.2" y1="2851.9" x2="2349.3" y2="2223.6" gradientUnits="userSpaceOnUse">
			<stop offset="0" stop-color="#311944"/>
			<stop offset="1" stop-color="#893976"/>
		</linearGradient>
		<linearGradient id="g34" x1="2235.5" y1="2396.6" x2="2893.7" y2="2346.5" gradientUnits="userSpaceOnUse">
			<stop offset="0" stop-color="#311944"/>
			<stop offset="1" stop-color="#893976"/>
		</linearGradient>
		<linearGradient id="g35" x1="2106.4" y1="2267.9" x2="2252.9" y2="1931.2" gradientUnits="userSpaceOnUse">
			<stop offset="0" stop-color="#ffc444"/>
			<stop offset="1" stop-color="#f36f56"/>
		</linearGradient>
		<linearGradient id="g36" x1="2238.9" y1="2304.9" x2="2442.5" y2="1999.9" gradientUnits="userSpaceOnUse">
			<stop offset="0" stop-color="#444b8c"/>
			<stop offset="1" stop-color="#26264f"/>
		</linearGradient>
		<linearGradient id="g37" x1="2379.1" y1="2070.1" x2="2322.3" y2="2411.7" gradientUnits="userSpaceOnUse">
			<stop offset="0" stop-color="#ffc444"/>
			<stop offset="1" stop-color="#f36f56"/>
		</linearGradient>
		<linearGradient id="g38" x1="2284.5" y1="2266.6" x2="2426.5" y2="2054" gradientUnits="userSpaceOnUse">
			<stop offset="0" stop-color="#444b8c"/>
			<stop offset="1" stop-color="#26264f"/>
		</linearGradient>
		<linearGradient id="g39" x1="2330.9" y1="2103.6" x2="2317" y2="2144.8" gradientUnits="userSpaceOnUse">
			<stop offset="0" stop-color="#ffc444"/>
			<stop offset="1" stop-color="#f36f56"/>
		</linearGradient>
		<linearGradient id="g40" x1="771.7" y1="1134.5" x2="952.2" y2="1462.3" gradientUnits="userSpaceOnUse">
			<stop offset="0" stop-color="#aa80f9"/>
			<stop offset="1" stop-color="#6165d7"/>
		</linearGradient>
		<linearGradient id="g41" x1="713.6" y1="2980.5" x2="780.9" y2="2987.8" gradientUnits="userSpaceOnUse">
			<stop offset="0" stop-color="#aa80f9"/>
			<stop offset="1" stop-color="#6165d7"/>
		</linearGradient>
		<linearGradient id="g42" x1="867.2" y1="3021.2" x2="934.5" y2="3028.4" gradientUnits="userSpaceOnUse">
			<stop offset="0" stop-color="#aa80f9"/>
			<stop offset="1" stop-color="#6165d7"/>
		</linearGradient>
		<linearGradient id="g43" x1="626.9" y1="1854.4" x2="1103.7" y2="1846.1" gradientUnits="userSpaceOnUse">
			<stop offset="0" stop-color="#444b8c"/>
			<stop offset="1" stop-color="#26264f"/>
		</linearGradient>
		<linearGradient id="g44" x1="655.6" y1="1842.9" x2="1135.9" y2="1892.7" gradientUnits="userSpaceOnUse">
			<stop offset="0" stop-color="#444b8c"/>
			<stop offset="1" stop-color="#26264f"/>
		</linearGradient>
		<linearGradient id="g45" x1="1520.2" y1="1785.7" x2="708" y2="1243.9" gradientUnits="userSpaceOnUse">
			<stop offset="0" stop-color="#311944"/>
			<stop offset="1" stop-color="#6b3976"/>
		</linearGradient>
		<linearGradient id="g46" x1="1524.5" y1="1845.1" x2="665.1" y2="1271.8" gradientUnits="userSpaceOnUse">
			<stop offset="0" stop-color="#311944"/>
			<stop offset="1" stop-color="#6b3976"/>
		</linearGradient>
		<linearGradient id="g47" x1="1131.2" y1="1272.7" x2="1794.6" y2="1976" gradientUnits="userSpaceOnUse">
			<stop offset="0" stop-color="#aa80f9"/>
			<stop offset="1" stop-color="#6165d7"/>
		</linearGradient>
		<linearGradient id="g48" x1="1082.8" y1="1251.7" x2="1802.1" y2="1819.3" gradientUnits="userSpaceOnUse">
			<stop offset="0" stop-color="#aa80f9"/>
			<stop offset="1" stop-color="#6165d7"/>
		</linearGradient>
		<linearGradient id="g49" x1="1018.1" y1="1464.4" x2="1009.9" y2="1076.3" gradientUnits="userSpaceOnUse">
			<stop offset="0" stop-color="#ffc444"/>
			<stop offset="1" stop-color="#f36f56"/>
		</linearGradient>
		<linearGradient id="g50" x1="846.6" y1="1405.4" x2="891.8" y2="1086.5" gradientUnits="userSpaceOnUse">
			<stop offset="0" stop-color="#ffc444"/>
			<stop offset="1" stop-color="#f36f56"/>
		</linearGradient>
		<linearGradient id="g51" x1="845.8" y1="1148.7" x2="897.8" y2="1446.1" gradientUnits="userSpaceOnUse">
			<stop offset="0" stop-color="#ffc444"/>
			<stop offset="1" stop-color="#f36f56"/>
		</linearGradient>
		<linearGradient id="g52" x1="1621.4" y1="1636.8" x2="791.5" y2="1083.3" gradientUnits="userSpaceOnUse">
			<stop offset="0" stop-color="#311944"/>
			<stop offset="1" stop-color="#6b3976"/>
		</linearGradient>
		<linearGradient id="g53" x1="1177.3" y1="1357.6" x2="1507.9" y2="1751.4" gradientUnits="userSpaceOnUse">
			<stop offset="0" stop-color="#aa80f9"/>
			<stop offset="1" stop-color="#6165d7"/>
		</linearGradient>
		<linearGradient id="g54" x1="1618.6" y1="1727.2" x2="755.6" y2="1151.5" gradientUnits="userSpaceOnUse">
			<stop offset="0" stop-color="#311944"/>
			<stop offset="1" stop-color="#6b3976"/>
		</linearGradient>
		<linearGradient id="g55" x1="962.3" y1="1643.6" x2="850.1" y2="1714" gradientUnits="userSpaceOnUse">
			<stop offset="0" stop-color="#ffc444"/>
			<stop offset="1" stop-color="#f36f56"/>
		</linearGradient>
		<linearGradient id="g56" x1="576.5" y1="1454.3" x2="1024.9" y2="1596.7" gradientUnits="userSpaceOnUse">
			<stop offset="0" stop-color="#ff9085"/>
			<stop offset="1" stop-color="#fb6fbb"/>
		</linearGradient>
		<linearGradient id="g57" x1="779.1" y1="1621.6" x2="879.7" y2="1747.8" gradientUnits="userSpaceOnUse">
			<stop offset="0" stop-color="#ffc444"/>
			<stop offset="1" stop-color="#f36f56"/>
		</linearGradient>
		<linearGradient id="g58" x1="643.3" y1="1535" x2="516.3" y2="1634.5" gradientUnits="userSpaceOnUse">
			<stop offset="0" stop-color="#ffc444"/>
			<stop offset="1" stop-color="#f36f56"/>
		</linearGradient>
		<linearGradient id="g59" x1="668.3" y1="1664.5" x2="497.3" y2="1850.8" gradientUnits="userSpaceOnUse">
			<stop offset="0" stop-color="#aa80f9"/>
			<stop offset="1" stop-color="#6165d7"/>
		</linearGradient>
	</defs>
	<style>
		.s0 { fill: #f4f7fa } 
		.s1 { fill: url(#g1) } 
		.s2 { fill: #fcfdfe } 
		.s3 { fill: url(#g2) } 
		.s4 { fill: #beb8f2 } 
		.s5 { fill: url(#g3) } 
		.s6 { fill: url(#g4) } 
		.s7 { fill: url(#g5) } 
		.s8 { fill: url(#g6) } 
		.s9 { fill: url(#g7) } 
		.s10 { fill: url(#g8) } 
		.s11 { fill: #de8bdf } 
		.s12 { fill: #ffffff } 
		.s13 { fill: url(#g9) } 
		.s14 { fill: url(#g10) } 
		.s15 { fill: url(#g11) } 
		.s16 { fill: url(#g12) } 
		.s17 { fill: url(#g13) } 
		.s18 { fill: url(#g14) } 
		.s19 { fill: url(#g15) } 
		.s20 { fill: url(#g16) } 
		.s21 { opacity: .3;mix-blend-mode: multiply;fill: url(#g17) } 
		.s22 { opacity: .3;mix-blend-mode: multiply;fill: url(#g18) } 
		.s23 { fill: url(#g19) } 
		.s24 { fill: url(#g20) } 
		.s25 { fill: url(#g21) } 
		.s26 { fill: url(#g22) } 
		.s27 { fill: url(#g23) } 
		.s28 { fill: url(#g24) } 
		.s29 { opacity: .3;mix-blend-mode: multiply;fill: url(#g25) } 
		.s30 { fill: url(#g26) } 
		.s31 { fill: url(#g27) } 
		.s32 { fill: url(#g28) } 
		.s33 { fill: url(#g29) } 
		.s34 { fill: url(#g30) } 
		.s35 { fill: url(#g31) } 
		.s36 { fill: url(#g32) } 
		.s37 { fill: url(#g33) } 
		.s38 { opacity: .3;mix-blend-mode: multiply;fill: url(#g34) } 
		.s39 { fill: url(#g35) } 
		.s40 { fill: url(#g36) } 
		.s41 { fill: url(#g37) } 
		.s42 { fill: url(#g38) } 
		.s43 { fill: url(#g39) } 
		.s44 { fill: url(#g40) } 
		.s45 { fill: url(#g41) } 
		.s46 { fill: url(#g42) } 
		.s47 { fill: url(#g43) } 
		.s48 { opacity: .3;mix-blend-mode: multiply;fill: url(#g44) } 
		.s49 { fill: url(#g45) } 
		.s50 { fill: url(#g46) } 
		.s51 { fill: url(#g47) } 
		.s52 { opacity: .3;mix-blend-mode: multiply;fill: url(#g48) } 
		.s53 { fill: url(#g49) } 
		.s54 { opacity: .4;mix-blend-mode: multiply;fill: url(#g50) } 
		.s55 { fill: url(#g51) } 
		.s56 { fill: url(#g52) } 
		.s57 { fill: url(#g53) } 
		.s58 { fill: url(#g54) } 
		.s59 { fill: url(#g55) } 
		.s60 { fill: url(#g56) } 
		.s61 { fill: url(#g57) } 
		.s62 { fill: url(#g58) } 
		.s63 { fill: url(#g59) } 
	</style>
	<g id="Illustration">
		<g id="&lt;Group&gt;">
			<path id="&lt;Path&gt;" class="s0" d="m3234.9 1790.6c47.2 240.7 142.8 728.4-86 1054.7-408.8 583.1-1809.7 558.1-2423.6-196.1-42.9-52.7-402.4-509.1-292.9-1089.5 141.1-747.8 983.3-1288.9 1651.6-1142.3 422.9 92.7 693.5 442.6 803.4 584.7 46.7 60.5 260.7 345.6 347.5 788.5z"/>
			<g id="&lt;Group&gt;">
				<g id="&lt;Group&gt;">
					<g id="&lt;Group&gt;">
						<path id="&lt;Path&gt;" class="s1" d="m994.4 1706.5c-32.1-60-206.9-75.9-168.7-198.5 27.9-89.9 150.5-129.7-16.1-247.2-166.5-117.6-242-397.6-69.6-441.8 99-25.4 150.5 138.1 258.5 157.9 102.6 18.8 145.8 103.6 123.8 216.5-22 112.8 39.4 128.3 119 177.4 95.5 59.1 13.9 168.4-22.1 214.6-29.1 37.3-57.4 156.5 5 193.7 40.2 23.9 26.3 57 6 87.9q-21.6-4.6-43.2-9.2c-72.4-20.8-131-51.9-178.8-88.1q-1.2-0.9-2.4-1.8c2-19.9-0.5-41-11.4-61.4z"/>
						<g id="&lt;Clip Group&gt;" clip-path="url(#cp1)">
							<g id="&lt;Group&gt;" style="opacity: .5;mix-blend-mode: soft-light">
								<path id="&lt;Path&gt;" class="s2" d="m668.9 826.7l3.4-3.9c285 240.6 451.5 624.9 434.6 1002.8l-5.2-0.3c16.9-376.3-149-758.9-432.8-998.6z"/>
								<path id="&lt;Path&gt;" class="s2" d="m1284.7 1388.4l2.4 4.5c-1.5 0.8-152.9 82.6-188.8 226.9l-5-1.3c36.4-146.5 189.9-229.3 191.4-230.1z"/>
								<path id="&lt;Path&gt;" class="s2" d="m805.1 1528.3l1.5-4.9c2.6 0.8 263.9 85.1 301.3 231l-5 1.3c-36.7-143.2-295.2-226.6-297.8-227.4z"/>
								<path id="&lt;Path&gt;" class="s2" d="m1085.2 991.8l4.1 3.1c-1.1 1.5-111.3 148-91.6 265.9l-5.1 0.9c-20.1-120.1 91.5-268.4 92.6-269.9z"/>
								<path id="&lt;Path&gt;" class="s2" d="m596.9 951.7l0.1-5.2c1.9 0 185.8 5.1 281.3 102.4l-3.7 3.6c-94-95.7-275.9-100.8-277.7-100.8z"/>
							</g>
						</g>
					</g>
					<g id="&lt;Clip Group&gt;" clip-path="url(#cp2)">
						<path id="&lt;Path&gt;" class="s3" d="m1315.8 2014.4l-256.6-0.9c0 0-47.9-131.8 15.3-224.4 129-189.1-45.6-288.8-112.5-341.5-100.9-79.5-145.1-181.9-23.2-247.8 137.8-74.6 17.2-274.8-164.2-379.7-177.5-102.6-97.4-477.4 307.1-290.5 241.6 111.6 202.9 368 214.1 502.2 11.2 134.1 210.6 145.9 141.8 309.5-58.8 139.8-169.9 241.4-85.7 337.9 84.2 96.5 92.6 204.4-36.1 335.2z"/>
						<g id="&lt;Group&gt;" style="opacity: .5;mix-blend-mode: soft-light">
							<path id="&lt;Path&gt;" class="s4" d="m1204.6 2037.8l-5.3-1c0.6-3.3 61.1-333.7 22.3-679.3-35.7-318.3-165.5-715.2-580.7-797.6l1-5.3c184.9 36.7 329.5 137.7 429.9 300.1 80.1 129.7 132.4 298.7 155.2 502.4 38.9 346.3-21.7 677.4-22.4 680.7z"/>
							<path id="&lt;Path&gt;" class="s4" d="m1110.8 924.4l-5.4-0.7c22.9-178.8-44.4-433.2-45.1-435.7l5.2-1.4c0.7 2.5 68.3 257.9 45.3 437.8z"/>
							<path id="&lt;Path&gt;" class="s4" d="m1040.9 818c-181.9-114.2-352.4-60.3-354.1-59.8l-1.7-5.1c1.7-0.6 174.5-55.3 358.7 60.3z"/>
							<path id="&lt;Path&gt;" class="s4" d="m1234.7 1584.9c-59.7-255.6-406.8-319.4-410.2-319.7l0.1-5.5c3.4 0.1 355.1 66.1 415.3 323.9z"/>
							<path id="&lt;Path&gt;" class="s4" d="m1236.7 1476.7l-5.3-1.2c34.7-163.8 212.9-276 214.7-277.1l2.9 4.6c-1.8 1.1-178.1 112.1-212.3 273.7z"/>
							<path id="&lt;Path&gt;" class="s4" d="m1207.7 1984.6c-7.5-99.4-149.1-178.6-150.6-179.4l2.7-4.7c5.9 3.3 145.6 81.4 153.3 183.7z"/>
							<path id="&lt;Path&gt;" class="s4" d="m1223.1 1906.6l-5.4-1c13.6-77.6 131.3-163.8 170-192.1 5.5-4 10.2-7.4 10.9-8.2l4 3.6c-1 1.1-4.1 3.4-11.7 9-38.3 28-154.7 113.2-167.8 188.7z"/>
						</g>
					</g>
					<g id="&lt;Group&gt;">
						<path id="&lt;Path&gt;" class="s5" d="m2481.1 1868.3c28.3 61 1.4 122-24.5 163.1-6.1 0-9.7 1.7-15.9 3.2-56.2 13.7-82.5 6.7-139.6 10.9-12.3 0.9-48.9-8.3-63.5-13.1l-27.2-9.4c0 0-48.3-148.3 27.6-189.3 75.8-40.9 46.8-188.6 40.4-269.1-17.2-218.4 218.8-198.6 219.1-481.1 0.1-75.1-24.9-218.4 38.4-278.2 72.2-68.2 124.9-1.3 171.3-58.3 72.5-89.2 190.2-121.1 260.3-29.4 69.3 90.5-14.9 270.7-224 415.5-138.3 120.8-140.4 157-129.5 245.2 7.6 61.7 66.5 222.5-17.3 286.7-83.8 64.2-147.9 133.6-115.6 203.3z"/>
						<g id="&lt;Clip Group&gt;" clip-path="url(#cp3)">
							<g id="&lt;Group&gt;" style="opacity: .5;mix-blend-mode: soft-light">
								<path id="&lt;Path&gt;" class="s2" d="m2330.8 2047.8l-4.2-0.6c3.1-24.8 6.5-49.8 10.2-74.3 27.2-181.3 70.3-353.6 128.1-511.9 49.1-134.2 109.3-260.3 179.2-374.8 56.2-92.1 118.8-177.3 186.2-253.2 47.3-53.3 96.5-101.5 146.2-143.2 8.6-7.3 17.9-14.3 26.9-21 11.9-9 24.2-18.2 35.2-28.3l2.9 3.1c-11.2 10.2-23.6 19.5-35.6 28.6-8.9 6.6-18.1 13.6-26.7 20.8-49.5 41.6-98.6 89.7-145.8 142.8-67.2 75.7-129.7 160.7-185.7 252.6-69.7 114.3-129.9 240.1-178.8 374-57.8 158.1-100.8 330.1-127.9 511.1-3.7 24.5-7.1 49.5-10.2 74.3z"/>
								<path id="&lt;Path&gt;" class="s2" d="m2568.5 1231.2l-3.8-1.8c76.6-163.2 9.3-464.8 8.6-467.8l4.1-1c0.7 3.1 68.3 306.1-8.9 470.6z"/>
								<path id="&lt;Path&gt;" class="s2" d="m2394.2 1706.6l-3.9-1.3c39-117 258.1-207.4 260.3-208.3l1.6 3.9c-2.2 0.9-219.5 90.5-258 205.7z"/>
								<path id="&lt;Path&gt;" class="s2" d="m2377.8 1775l-4.1-0.6c11.5-79.7-15.2-194.6-75.4-323.5-3.1-6.5-3.1-6.5-3-7.3l4.2 0.6-2.1-0.3 2-0.5c0.2 0.4 1.3 2.9 2.7 5.7 60.5 129.6 87.4 245.4 75.7 325.9z"/>
								<path id="&lt;Path&gt;" class="s2" d="m2337.1 2002.5l-3.8-1.8c37.3-80.4 165-112.2 166.3-112.5l1 4.1c-1.3 0.3-127 31.6-163.5 110.2z"/>
								<path id="&lt;Path&gt;" class="s2" d="m2324.4 2048.1c-15.8-69.8-52.2-137.3-111.2-206.3l3.2-2.8c59.5 69.6 96.1 137.7 112.1 208.2z"/>
								<path id="&lt;Path&gt;" class="s2" d="m2794.5 881.1l-3.7-1.9c47.6-88.4 77.2-192.3 86.9-226.5 2.3-8.2 3.2-11.1 3.7-12.1l3.7 1.8c-0.3 0.8-1.7 5.5-3.4 11.5-9.7 34.2-39.4 138.5-87.2 227.2z"/>
								<path id="&lt;Path&gt;" class="s2" d="m2695.8 1013.4l-3-3c67.1-66 255.4-63.9 263.4-63.8l-0.1 4.2c-1.9 0-194.5-2.2-260.3 62.6z"/>
							</g>
						</g>
					</g>
					<g id="&lt;Clip Group&gt;" clip-path="url(#cp4)">
						<path id="&lt;Path&gt;" class="s6" d="m2214.8 2066.2c109.5-66.5 34.3-197 20.5-348-16.1-176.7 177.5-127.6 228.7-252.1 51.3-124.5 91.8-380.7 355.9-414 442.1-55.8 405.1 325.6 204.9 369.8-204.6 45.1-380.1 199.5-271.2 312.2 96.2 99.7 23.1 183.9-97.1 229.2-79.7 30-276.3 72.3-210.5 291.5 32.2 107.4-53.3 218.6-53.3 218.6l-244.8-76.8c-83.1-163.5-42.5-263.8 66.9-330.4z"/>
						<g id="&lt;Group&gt;" style="opacity: .5;mix-blend-mode: soft-light">
							<path id="&lt;Path&gt;" class="s4" d="m2431.2 1796.9c83.4-187.2 184.3-332.5 299.9-431.9 144.8-124.5 313.2-177 500.4-156.1l-0.6 5.4c-420.7-47-664.4 292-794.7 584.7-141.4 317.7-183.7 650.9-184.1 654.2l-5.3-0.6c0.4-3.4 42.7-337.3 184.4-655.7z"/>
							<path id="&lt;Path&gt;" class="s4" d="m2848.3 1016l4.6 2.9c-1.4 2.2-142.5 224.3-174.7 401.7l-5.3-1c32.4-178.4 174-401.4 175.4-403.6z"/>
							<path id="&lt;Path&gt;" class="s4" d="m2770.2 1334.1c210.5-54.6 358.7 49.9 360.2 51l-3.2 4.3c-1.4-1-147.7-104-355.6-50.1z"/>
							<path id="&lt;Path&gt;" class="s4" d="m2350.4 2009c135.4-227.6 490.6-184.2 493.8-183.2l-1.5 5.2c-3.3-0.7-353.5-44.8-487.6 180.7z"/>
							<path id="&lt;Path&gt;" class="s4" d="m2266.3 1582.9l4.1-3.5c1.4 1.6 137.3 162.5 120.8 329.1l-5.4-0.5c16.3-164.3-118.2-323.5-119.5-325.1z"/>
							<path id="&lt;Path&gt;" class="s4" d="m2254.9 2398.9c38.3-95.2 195-127.4 201.7-128.8l1.1 5.4c-1.6 0.3-160.6 32.9-197.8 125.4z"/>
							<path id="&lt;Path&gt;" class="s4" d="m2165.9 2091.3c-5.5-7.6-7.8-10.8-8.4-12.1l4.9-2.3c0.5 1 3.9 5.7 7.9 11.2 28.3 38.7 114.5 156.4 103.9 234.5l-5.3-0.7c10.3-76-75-192.4-103-230.6z"/>
						</g>
					</g>
					<g id="&lt;Group&gt;">
						<path id="&lt;Path&gt;" class="s7" d="m2379.6 2458.6q-1.3 0.7-2.7 1.3c-54.5 25.1-118.4 42.9-193.6 47.7q-22-0.2-44.1-0.3c-13.3-34.6-19.7-69.9 24.7-84.6 69-23 66.9-145.4 46.5-188.1-25.2-52.9-81.5-177.2 24.5-214.3 88.3-30.9 151.6-32.9 154.3-147.8 2.7-115 63.2-188.5 167.5-184.8 109.7 3.8 195.1-144.7 286.3-98.7 158.9 80.2 25 337.4-162.9 416.5-187.9 79.1-76.7 144.3-68.7 238 10.9 128-163.3 105.9-207.5 157.7-15 17.5-21.9 37.6-24.3 57.4z"/>
						<g id="&lt;Clip Group&gt;" clip-path="url(#cp5)">
							<g id="&lt;Group&gt;" style="opacity: .5;mix-blend-mode: soft-light">
								<path id="&lt;Path&gt;" class="s2" d="m2273.6 2494.1l-5.1-0.8c64.6-372.7 309.8-712.2 639.9-886.1l2.4 4.6c-328.7 173.1-572.8 511.2-637.2 882.3z"/>
								<path id="&lt;Path&gt;" class="s2" d="m2326.3 2294l-5.2 0.1c-4-148.6-134.4-261-135.7-262.1l3.3-3.9c1.4 1.1 133.5 114.9 137.6 265.9z"/>
								<path id="&lt;Path&gt;" class="s2" d="m2287.4 2425.9l-4.6-2.3c67.9-134.5 341.1-160.7 343.9-161l0.4 5.2c-2.7 0.2-273.1 26.1-339.7 158.1z"/>
								<path id="&lt;Path&gt;" class="s2" d="m2501.2 1967.1l-4.8-1.9c44.6-110.9-31.5-277.7-32.3-279.4l4.7-2.2c0.8 1.7 77.8 170.5 32.4 283.5z"/>
								<path id="&lt;Path&gt;" class="s2" d="m2661.5 1788.1l-2.9-4.3c114.1-74.4 294.9-39.9 296.7-39.6l-1 5.1c-1.8-0.3-180.5-34.5-292.8 38.8z"/>
							</g>
						</g>
					</g>
				</g>
				<g id="&lt;Group&gt;">
					<g id="&lt;Group&gt;">
						<g id="&lt;Group&gt;">
							<path id="&lt;Path&gt;" class="s8" d="m2487 481.1v2513.1c0 37.6-32.2 45.7-68.6 46.9l-1247.9 64.5-18.9 0.7c-38.8 1.2-70.6-29.5-70.6-68.4v-2600.4c0-38.9 31.8-69.7 70.6-68.4l25.7 0.8 1252.5 97.4c36.4 1.2 57.2-23.8 57.2 13.8z"/>
							<path id="&lt;Path&gt;" class="s9" d="m2525.8 481.1v2513.1c0 37.6-29.7 69.4-66.1 70.5l-1269.2 41.6c-38.8 1.2-70.6-29.5-70.6-68.4v-2600.4c0-38.9 31.8-69.7 70.6-68.4l1269.2 41.5c36.4 1.2 66.1 32.9 66.1 70.5z"/>
							<path id="&lt;Path&gt;" class="s10" d="m2484.8 619.2v2328.2c0 35.1-27.8 64.7-61.9 65.7l-1193.4 37.5c-36.1 1.2-65.7-27.6-65.7-63.8v-2404c0-36.2 29.6-65 65.7-64l1193.4 34.8c34.1 1 61.9 30.5 61.9 65.6z"/>
						</g>
						<path id="&lt;Path&gt;" class="s11" d="m1858.4 468c0 13.3-10.5 23.7-23.5 23.3-13.1-0.4-23.6-11.5-23.6-24.7 0-13.3 10.5-23.7 23.6-23.3 13 0.4 23.5 11.5 23.5 24.7z"/>
					</g>
					<g id="&lt;Group&gt;">
						<path id="&lt;Path&gt;" class="s0" d="m2299.6 2033.1l-953.2 12.8c-12 0.1-21.8-9.5-21.8-21.6v-208.7c0-12.1 9.8-21.9 21.8-22l953.2-6.4c11.4-0.1 20.7 9.4 20.7 21.1v203.2c0 11.8-9.3 21.4-20.7 21.6z"/>
						<path id="&lt;Path&gt;" class="s0" d="m2297.4 2417.5l-948.7 22.6c-13.3 0.3-24.1-10.2-24.1-23.6v-204.1c0-13.3 10.8-24.3 24.1-24.5l948.7-16.3c12.6-0.2 22.9 10.1 22.9 23.1v198.8c0 13-10.3 23.7-22.9 24z"/>
						<path id="&lt;Path&gt;" class="s12" d="m2203.3 1163.6c0 209.4-166.6 379.3-374.3 379.3-209.9 0.1-381.8-173.2-381.8-387 0-213.7 171.9-383.5 381.8-379.2 207.7 4.2 374.3 177.4 374.3 386.9z"/>
						<path id="&lt;Path&gt;" class="s13" d="m1983.4 1046.2c0 86.4-69 155.7-154.3 154.9-85.6-0.8-155.2-71.9-155.2-158.8 0-86.9 69.6-156.2 155.2-154.8 85.3 1.4 154.3 72.4 154.3 158.7z"/>
						<path id="&lt;Path&gt;" class="s14" d="m1585.6 1453.7c22.6-115.4 123.3-201.7 243.4-200.8 119.4 1 218.3 87.7 240.4 201.9-64.9 54.9-148.6 88.1-240.4 88.1-92.2 0-177.1-33.4-243.4-89.2z"/>
						<path id="&lt;Path&gt;" class="s15" d="m1960.2 1944.3l-520.1 5.7c-17.7 0.2-32.2-14.2-32.2-32 0-17.7 14.5-32.4 32.2-32.5l520.1-4.8c17.2-0.2 31.3 14 31.3 31.5 0 17.5-14.1 31.9-31.3 32.1z"/>
						<g id="&lt;Group&gt;">
							<path id="&lt;Path&gt;" class="s16" d="m1485.7 2310.6c0 22.7-18.3 41.5-41 42-22.6 0.5-41-17.6-41-40.3 0-22.7 18.4-41.5 41-42 22.7-0.4 41 17.6 41 40.3z"/>
							<path id="&lt;Path&gt;" class="s17" d="m1639.1 2307.5c0 22.6-18.2 41.3-40.7 41.8-22.4 0.5-40.7-17.5-40.7-40.2 0-22.6 18.3-41.3 40.7-41.7 22.5-0.5 40.7 17.5 40.7 40.1z"/>
							<path id="&lt;Path&gt;" class="s18" d="m1791.2 2304.4c0 22.5-18 41.1-40.3 41.6-22.3 0.5-40.4-17.4-40.4-40 0-22.5 18.1-41.2 40.4-41.6 22.3-0.4 40.3 17.5 40.3 40z"/>
							<path id="&lt;Path&gt;" class="s19" d="m1942.1 2301.3c0 22.4-17.9 40.9-40 41.4-22.1 0.5-40-17.3-40-39.8 0-22.4 17.9-41 40-41.4 22.1-0.5 40 17.4 40 39.8z"/>
							<path id="&lt;Path&gt;" class="s20" d="m2091.8 2298.2c0 22.3-17.7 40.8-39.6 41.3-22 0.5-39.8-17.3-39.8-39.7 0-22.3 17.8-40.8 39.8-41.2 21.9-0.5 39.6 17.3 39.6 39.6z"/>
						</g>
						<path id="&lt;Compound Path&gt;" fill-rule="evenodd" class="s12" d="m1829 1552.2c-104.2 0-202.2-41.2-276.2-116.1-74.1-74.9-114.9-174.4-114.9-280.2 0-106.6 41.4-205.9 116.5-279.5 73.9-72.4 171.5-111.2 274.8-109 102.8 2 199.2 44.4 271.5 119.3 72.2 74.7 111.9 173 111.9 276.9 0 103.8-39.7 201.4-111.9 274.7-72.4 73.4-168.8 113.9-271.7 113.9q0 0 0 0zm-7.7-766.3c-95.5 0-185.4 36.7-253.9 103.7-71.5 70.2-110.9 164.7-110.9 266.3 0 100.9 38.8 195.7 109.5 267.2 70.5 71.3 163.9 110.5 263 110.5q0 0 0 0c201.3 0 365-166 365-370 0-204.2-163.8-373.6-365.1-377.6q-3.8-0.1-7.6-0.1z"/>
					</g>
					<path id="&lt;Path&gt;" class="s21" d="m2525.8 2994.2c0 37.6-29.7 69.4-66.1 70.5l-601.2 19.7c15-106.8 30-269.6 15.6-466.1-16.9-230.6-60.1-314.5-79.7-448-71.3-486.9 312.3-680.9 293.5-1126.1-6.6-156-64.3-384.2-321.1-656.3l692.2 22.7c37.2 1.2 66.8 31.7 66.8 69z"/>
				</g>
				<path id="&lt;Path&gt;" class="s22" d="m1244.8 2448.8c-41.7 111-96.4 284.9-124.9 515.5q1.3-901.2 2.6-1802.4c41.8 34.3 100.7 82.6 171.3 141 95.1 78.5 107.8 89.5 121.6 105 19.5 21.9 93 111.6 85.7 326.1-9.4 275.1-139.8 403.9-256.3 714.8z"/>
			</g>
			<g id="&lt;Group&gt;">
				<path id="&lt;Path&gt;" class="s23" d="m2478.4 2406.3c-18.5-24.1-132.6-172.7-96.5-214.8 35.3-41.1 217.2 15.9 304 146.2 61.2 91.8 78.7 225 37 250.2-49.2 29.7-177.3-94.1-244.5-181.6z"/>
				<path id="&lt;Path&gt;" class="s24" d="m3244.3 3129.6c7.8 0.5 7.7 1.2 44.9 10.1 26.2 6.3 34 7.8 34.6 12 0.8 6.1-13.6 13.1-21.9 16.2-20.5 7.6-29.2 1.1-60.2 2.9-28.9 1.7-38.5 8.5-46 1.3-7.6-7.3-7.2-23.6-0.1-33 9.4-12.5 29.1-11 48.7-9.5z"/>
				<path id="&lt;Path&gt;" class="s25" d="m3195 3088l32.6 43.1c-0.2 3-11.8 17.2-26.6 16.4l-39-39.1z"/>
				<path id="&lt;Path&gt;" class="s26" d="m3076 3238.4c7.8 0.4 7.7 1.1 45.1 9.2 26.4 5.7 34.2 7 34.9 11.3 0.9 6-13.4 13.3-21.6 16.6-20.3 8.1-29.2 1.7-60.1 4.2-28.9 2.3-38.4 9.2-46 2.2-7.7-7.2-7.7-23.4-0.8-33 9.2-12.7 28.9-11.6 48.5-10.5z"/>
				<path id="&lt;Path&gt;" class="s27" d="m3026.3 3198.8l32.5 43.2c-0.1 3-11.7 17.2-26.5 16.4l-39.1-39.1z"/>
				<path id="&lt;Path&gt;" class="s28" d="m2041.3 2212.9c48.7-18.7 123.3-41 216.1-44.5 104.6-3.9 188.5-7 248.3 40.2 199 157.2 101.5 571.3 87.1 617.4-17.1 54.8-49.7 92-49.7 92-19.5 22.3-38.6 35.4-49 42.2-149.7 99.1-242.7 160.6-341 135.5-13.1-3.4-72.5-24-105.2-73.4-5.9-8.8-9.5-20.1-10.5-35.9-15.2-260.6 15.5-522.4 3.9-773.5z"/>
				<path id="&lt;Path&gt;" class="s29" d="m2368.1 2701.7c6.8 65-160.7 92.1-177.8 183.6-14.6 78.5 21.2 126.5 165 214.9-109.8 22-170.9 43.7-245.3-23.4-64.1-58-72.4-61.2-74-127.4-4.7-200.2-8.6-391.9-11.3-583.8 22-0.5 42.3 3.7 58.6 13.7 44.5 27.2 23.8 89.7 43.8 144.3 43.6 119.3 233.8 109.2 241 178.1z"/>
				<path id="&lt;Path&gt;" class="s30" d="m2092.3 2431c-13.7 114-66.1 158.7-42.6 184.6 19.1 21 53.8-6.1 131.1 13.2 50.7 12.7 87.2 34.1 108.8 49.1q-19.3 20.3-38.6 40.6-19.8 17.1-39.5 34.1c-97 70.9-220.6 87.8-314.3 43.8-104.6-49.1-128.1-156.5-133.2-179.5-31.3-140.9 69.2-250.5 98-281.9 62.1-67.7 175.7-146.2 225.2-118.6 55.2 30.8 8.8 183.9 5.1 214.6z"/>
				<path id="&lt;Path&gt;" class="s31" d="m2707.4 2572c115.2-1.5 206.4 62 254.1 94.9 197.5 136.3 244.7 352.6 255.3 409.3q-29.6 27.3-59.2 54.7c-17.2-5.2-45.3-14.8-77.3-31.6-182.1-95.2-171-246.9-284.9-298.2-152.8-68.9-381.9 111.5-479.2 214.1-92.4 97.4-133.2 157.6-139.3 49-5.6-100.2 219.1-488.2 530.5-492.2z"/>
				<path id="&lt;Path&gt;" class="s32" d="m2537.8 2693.5c36.7 0.5 123.1 2.9 213.6 53.6 85.9 48.2 130.2 114.7 176.3 183.8 37 55.4 87.1 144.3 119.4 266.8q-29.6 27.3-59.1 54.7c-17.3-5.2-45.4-14.9-77.4-31.6-186.6-97.7-201.2-297.6-284.8-298.2-53.8-0.4-53.8 82.1-159.1 166.4-86.6 69.3-241.1 137-344.3 74.2-46.5-28.3-87.7-86.2-89-149.4-3.4-164.8 272.8-323.9 504.4-320.3z"/>
				<g id="&lt;Group&gt;">
					<path id="&lt;Path&gt;" class="s33" d="m2670.9 2671.2l-415.8 110.1-166.3-43.6 573.3-103.4z"/>
					<path id="&lt;Path&gt;" class="s34" d="m2088.8 2737.7l192 25.8 8.9 49.8-196.7-35.9c-10.8-1.7-19.3-9.9-21.4-20.6-2.1-10.5 6.5-20.1 17.2-19.1z"/>
				</g>
				<path id="&lt;Path&gt;" class="s35" d="m2163.7 2711.8c-3.7-0.1 8.9-45.2 26-43.6 17.1 1.6 105.2 31.9 116.1 49.4 10.8 17.5 10.8 17.5 10.8 17.5 0 0-33.9 9.4-56.7 6.4-22.9-3-66.4-28.9-96.2-29.7z"/>
				<g id="&lt;Group&gt;">
					<g id="&lt;Group&gt;">
						<path id="&lt;Path&gt;" class="s36" d="m2282.1 2385.4l628.2-65.6c13.2-1.4 37.8 10.3 36.5 23.6l-48 365.8c-0.9 9.9-8.5 17.8-18.4 19l-597.8 82.6c-12.9 1.5-32.4-16.2-32-29.2l12.6-375.9c0.4-10.6 8.5-19.2 18.9-20.3z"/>
						<path id="&lt;Path&gt;" class="s37" d="m2296.7 2395.2l628.1-65.6c13.3-1.4 24.5 9.7 23.2 23l-34.6 366.4c-0.9 9.9-8.6 17.8-18.4 19l-606.1 75.1c-12.9 1.6-24.1-8.7-23.7-21.7l12.6-375.9c0.3-10.6 8.4-19.2 18.9-20.3z"/>
					</g>
					<path id="&lt;Path&gt;" class="s38" d="m2850.1 2648.7c26.1 3.2 48.8 10.9 68.1 19.8l-4.8 50.5c-0.9 9.9-8.6 17.8-18.4 19l-606.1 75.1c-12.9 1.6-24.1-8.7-23.7-21.7l12.6-375.9c0.3-10.6 8.4-19.2 18.9-20.3l45.5-4.8c-12.8 44.2-6.4 70.3 4.1 86.7 33.7 52.4 115.7 15.4 203.8 79.7 66.8 48.7 51.3 93 106.2 111.5 63.1 21.3 103.1-30.9 193.8-19.6z"/>
				</g>
				<g id="&lt;Group&gt;">
					<path id="&lt;Path&gt;" class="s39" d="m2342.9 2079.3c-13.4 23.8-24.5 52.3-13 71.7 16.6 27.8 68.3 17.4 71.9 33 3.5 15.5-42.8 47-94.7 56.3-84.6 15.2-168.9-31.6-166.2-46.3 0.1-0.4 0.3-0.7 0.3-0.8 7.9-14.8 35.3-21.5 36.8-21.8 14-3.3 61.5-12.5 65.3-16.3 1.5-1.5 2.8-3.1 2.8-3.1 4.1-5.3 7.3-11.6 11.1-35.9 3.3-21.2 6.4-52.1 4.7-90.8 14.8 25.4 66.2 28.6 81 54z"/>
					<g id="&lt;Group&gt;">
						<path id="&lt;Path&gt;" class="s40" d="m2338.3 2082.7c-24.7 16.8-33 28-35.1 30.9-5.5 7.4-9.4 14.6-12.3 20.4-14.7-25.1-23.7-40.2-29.5-49.8-4.2-6.8-9.5-10.7-11.1-18.9-3.7-18.9-10.8-45.6 0.8-64 11.8-18.7 29.7-13.2 72.2-30.1 53.1-21.2 63-44.8 76.3-38.2 27.9 13.8 6.5 127.8-26.6 137.4-3.8 1.1-19 1.6-34.7 12.3z"/>
						<path id="&lt;Path&gt;" class="s41" d="m2249.9 2075.6c2.1-2.3 5.1-3.5 6.2-3.8 6.8-1.6 14.9 3.2 20.6 12.2-2-26.7 3.3-35.2 8.6-37.9 4.3-2.3 7.3-0.2 19.8-0.7 13.6-0.5 17-3.1 25.3-3.6 14-0.8 29.7 5.3 36.5 13.2 20.3 23.5-4.1 107.7-42.8 101.8-43.2-6.6-56.8-46.4-56.8-46.4-18.7-11.8-24.9-26.2-17.4-34.8z"/>
						<path id="&lt;Path&gt;" class="s42" d="m2284.7 2040.6c1.6 1.7-5.6 7.4-8.1 17-5 18.6 9.1 45.5 28.1 51.7 11.2 3.7 15.9-2.6 35.4-0.4 12 1.4 21.5 5 27.4 7.7 1.4 22-8.8 41.4-24.7 47.9-17.2 7-34.8-3.4-42.1-7.8-5-2.9-20.8-12.3-26.2-29.8-5.7-18.3 5.6-26.1-2.6-39.5-4.2-6.7-10.7-10.7-15.2-22.9-1.2-3.4-1.8-6.2-2.2-8.1 12.1-8.3 28-18.4 30.2-15.8z"/>
						<path id="&lt;Path&gt;" class="s43" d="m2354.9 2122.2c0.5 1.6-5.4 6.2-11.7 6.6-9 0.5-16.8-7.6-16.1-8.8 0.1-0.4 0.9-0.4 1.6-0.2 14.1 3.9 23.2 1.4 23.2 1.4 1.4 0.1 2.8 0.3 3 1z"/>
					</g>
				</g>
			</g>
			<g id="&lt;Group&gt;">
				<path id="&lt;Path&gt;" class="s44" d="m459.3 1669.6c-15.9-46.7-4.8-100.3 19.7-137.8 41.5-63.4 95.5-41.4 149.6-111.7 35-45.4 66.8-84.2 105.7-113.3 28.6-21.4 96.2-45.6 122.6-28.8 79.1 50.3-66 478.8-225.9 503.2-64 9.8-147.9-41.4-171.7-111.6z"/>
				<g id="&lt;Group&gt;">
					<path id="&lt;Path&gt;" class="s45" d="m762.6 3022.8c4.3 9 9 22.2 10.3 38.6 0.5 7.2 0.3 13.8-0.3 19.4-4.6 6.9-26.3 30.4-55.6 36.2-18.1 3.5-47.5-11.8-14.2-32.6 33.3-20.8 38.2-25.8 28.5-79-2.6-13.7-1.6-18.7 0.6-19.7 5-2.2 19.3 18.8 30.7 37.1z"/>
					<path id="&lt;Path&gt;" class="s46" d="m916.2 3063.4c4.2 9 9 22.2 10.2 38.7 0.6 7.2 0.3 13.7-0.2 19.3-4.7 6.9-26.4 30.4-55.7 36.2-18.1 3.6-47.5-11.8-14.2-32.6 33.3-20.8 38.3-25.8 28.5-79-2.5-13.7-1.5-18.7 0.6-19.6 5-2.3 19.3 18.7 30.8 37z"/>
					<path id="&lt;Path&gt;" class="s47" d="m1075.8 1952.6q16.5 100.6 33.1 201.1c-24.1 63.4-46.6 132.5-65.6 207.1-68.6 269.5-111.4 529.1-114.5 715.1q-22.6 8.2-45.3 16.4c-27.1-102.2-18.9-256.7-42.9-438.9-28.5-215.3-9.1-383.6-19-384.2-9.5-0.5-36.1 153.5-36.1 329.5-0.1 186-21.5 335.7-7.7 443.2q-27.1 1.6-54.3 3.2c-50.1-142.1-72-311.5-97.3-535.4-17.7-155.6-38.5-362.2 65.4-575.3 10.4-21.3 46.6-68.6 53.4-80.2 119.2 22.8 211.7 75.6 330.8 98.4z"/>
					<path id="&lt;Path&gt;" class="s48" d="m928.8 3075.9q-5.2 1.9-10.4 3.8c-7.2-19.5-16.4-47.6-24.4-82.2-12.7-55.6 14.5-132.2 18.4-210.7 3.6-71.7 26.6-78.5 24.4-149-1.6-53.7-15.8-74.8-25.2-117.7-31.5-142.5 57.4-214 28.2-284.4-18.4-44.2-85.1-92.2-315.6-89.7 11.6-68.7 32.4-139.8 67.4-211.6 10.4-21.3 46.6-68.6 53.4-80.2 119.2 22.8 211.7 75.6 330.8 98.4q16.5 100.6 33.1 201.1c-24.1 63.4-46.6 132.5-65.6 207.1-68.6 269.5-111.4 529.1-114.5 715.1z"/>
				</g>
				<path id="&lt;Path&gt;" class="s49" d="m977.1 1022.4c7.4 9.9-3.6 23.2-5.8 71.4-1 22.1 0.3 40.6 1.8 53.7 0.4 11.9 1.1 22.9 2 32.7 0.7 7.1 1.4 12.7 2.5 18.7 1.9 11 4.6 21.9 8.1 32.5 0.2 0.7-0.2 1.4-0.8 1.7q-0.1 0-0.1 0c-0.8 0.3-1.6-0.1-1.8-0.9-3.5-10.6-6.3-21.7-8.2-32.9-1.1-6-1.8-11.6-2.5-18.8-0.5-5.2-0.9-10.7-1.2-16.5-1.6 15.2-1.9 32 3.5 54.5 16.4 68-36.5 112.9-78.1 114.7-48 2-80.6-36-90.7-48.5-40.5-50.2-48.3-132-10.2-191.8 50-78.4 163.4-94.7 181.5-70.5z"/>
				<path id="&lt;Path&gt;" class="s50" d="m855.6 1088c2.1-7.6 11.4-38.6 39.8-58.1 53.9-36.9 140.2-7.3 189.7 36.2 51.9 45.4 30.3 76.9 81.2 127.4 55.4 54.8 94.2 30.9 171.1 83.9 30.2 20.8 111.7 77 117.2 164.6 4.7 75.7-48.9 151.5-114.4 180.7-112.1 50.1-252.6-39.3-318.8-121.6-63.6-78.8-20.7-98.1-111.1-250.5-32.6-55-70-105.8-54.7-162.6z"/>
				<path id="&lt;Path&gt;" class="s51" d="m903.3 1249.6c133.8-23.1 246.9 48.4 282.6 73.1-39.2 100.4-95.4 286.5-68.4 517.4 14.2 121 47.3 220.7 78.9 294.4-46.6 25.2-134.8 64.4-250.5 65.8-73.8 0.9-138.7-13.8-192.8-34-7.5-2.8-24.1-1.3-22-8.7 162.8-563.1-6-87.9-43.2-20.4-27.3 49.5-85-53.8-101.8-67.7 176.1-297.9 187.3-436.2 157.1-506.4-6.4-14.8-33.7-71.4-23.6-140.7 3.2-22.3 14.2-72.1 55.2-113.6 43.2-43.7 95.2-53.4 128.5-59.2z"/>
				<path id="&lt;Path&gt;" class="s52" d="m1196.4 2134.5c-34.7 18.7-92.4 45.2-167.3 58.1-119.1-118.4-158-224.4-159.7-314-3.2-165.9 121.7-251.4 67.4-356-32.5-62.7-127.6-129-210-117.6-1.7 0.2-3.1 0.4-4.1 0.6 5.9-25.5 19.5-63.8 52.1-96.8 43.2-43.7 95.2-53.4 128.5-59.2 133.8-23.1 246.9 48.4 282.6 73.1-39.2 100.4-95.4 286.5-68.4 517.4 14.2 121 47.3 220.7 78.9 294.4z"/>
				<path id="&lt;Path&gt;" class="s53" d="m934.6 1166.6c-11.8 23.8-21.7 53.6-8.7 73.6 7.8 12.2 20.9 19 33.7 25.4 30.4 15.1 44.6 9 50.6 18.1 13.2 20.2-24.2 97.2-85.3 103.9-60.7 6.6-115.7-59.5-106.5-87.5 8.2-25.2 68-17.3 78.7-49.2 5.4-16-4.5-33.9-13.1-45.9l-7.2 0.6z"/>
				<path id="&lt;Path&gt;" class="s54" d="m989.3 1348.9c-14.3 3.5-36 6.1-59.2-1.7-10.5-3.6-22.4-7.6-29.4-19-6.5-10.5-5.3-21.6-3.6-36.6 1-9.6 3.7-24.4 11.7-41.6-2.6-3.1-6.1-6.3-10.3-9.2-0.2-13-7.7-26.2-14.5-35.8l-7.2 0.6 57.8-39c-11.8 23.8-21.7 53.6-8.7 73.6 7.8 12.2 20.9 19 33.7 25.4 30.4 15.1 44.6 9 50.6 18.1 7.4 11.3-1.2 40.6-20.9 65.2z"/>
				<path id="&lt;Path&gt;" class="s55" d="m923.9 1189.6c0 0 2 30.6-27.7 35.7-36.7 6.3-56.9-89.9-48.9-96.9 9.3-8.2 20.9 6 44.1-3.5 9.8-4 16.4-18.5 23.9-5.3 8.5 15.1 8.3 44.2 8.3 44.2 0 0 7.5-8.6 10.3-0.2 3.6 11-3.7 19.5-10 26z"/>
				<path id="&lt;Path&gt;" class="s56" d="m947.9 1103.6c1.8 11.6-8.5 15-21 53.4-2.3 6.9-4.7 15.4-7.4 15.3-3.2-0.1-1.6-12.6-6.9-22.2-12-22-48.4-8.1-58.4-26.1-6.9-12.5 2-35.1 15-45.9 26.7-22.1 75 2 78.7 25.5z"/>
				<path id="&lt;Path&gt;" class="s57" d="m1084.8 1319.4c40.4 2.5 44.5-9.6 89.3 23.2 128.6 94.2 212 359.9 84.5 488.4-71 71.4-200.4 115-310.5 60.5-89.6-44.4-122.7-132.1-130.7-155.6q2.2-35.4 4.4-70.7c50.3 54.3 93.6 68.1 125 69.7 53.4 2.9 75.6-29 166.9-34 35.6-2 55.5 1.6 59.6-8.1 8.6-20-69.1-52.3-105.6-111.6-26.7-43.3-42.8-119.3 17.1-261.8z"/>
				<path id="&lt;Path&gt;" class="s58" d="m1009.5 1158.7c38.1 24.1 64.9 44.8 71.3 49.7 87.3 67 104.7 56.2 159.8 103.8 67.3 58.1 97.1 122.5 94.1 125-2.8 2.2-29.9-48.5-84.8-63.6-36.5-10.1-44.9 6.6-90.4 4.5-66.3-3.2-128.1-42.5-162.4-88.7-6.4-8.6-15.6-27.9-34.2-66.5-30.2-62.6-45.1-94.2-36-102.3 9.1-8 37.7 9.8 82.6 38.1z"/>
				<g id="&lt;Group&gt;">
					<path id="&lt;Path&gt;" class="s59" d="m594.9 1456.4l131.3 37.9c9.6 3.1 13.4 14.2 14.7 19.2l57.6 218.7c3 11.3-7.7 21.4-18.8 17.9l-107.8-34.2c-4.4-1.4-7.8-4.7-9.4-9l-93.6-231.4c-4.2-11.4 14.3-22.6 26-19.1z"/>
					<path id="&lt;Path&gt;" class="s60" d="m585.9 1459.8l133 39.5c4.9 1.4 8.8 5.4 10.1 10.4l57.6 218.7c3 11.3-7.7 21.5-18.8 17.9l-107.8-34.2c-4.4-1.4-7.9-4.7-9.4-9l-82.8-223.9c-4.3-11.5 6.4-22.8 18.1-19.4z"/>
				</g>
				<path id="&lt;Path&gt;" class="s61" d="m819.1 1713.2c0 0-16.4-12.2-25.7-14.6-13.3-3.5-29.3-9.2-35-18.2-9.3-14.8-20.3-31.8-7.4-42.1 12.9-10.3 24.8-8.1 37 2.5 12.1 10.7 28.2 32.8 28.2 32.8l11.4 10.6z"/>
				<path id="&lt;Path&gt;" class="s62" d="m551.3 1574.2c0 0 12.4-16.2 14.9-25.6 3.6-13.2 9.4-29.2 18.5-34.8 14.9-9.2 31.9-20 42.1-7 10.2 13 7.9 24.8-2.8 36.9-10.8 12-33 28-33 28l-10.7 11.2z"/>
				<path id="&lt;Path&gt;" class="s63" d="m549.6 1560.2q20.7 10.3 41.4 20.7c4.3 5.3 54.6 71.5 27.7 134.9-3.5 8.2-16.7 39.4-42.8 44.9-40.2 8.5-98.8-46.6-96.9-105.8 1.2-39.7 29.5-76.2 70.6-94.7z"/>
			</g>
		</g>
	</g>
</svg>