<svg width="24" height="24" viewBox="0 0 24 24" fill="none" xmlns="http://www.w3.org/2000/svg">
<g clip-path="url(#clip0_37_10222)">
<path d="M7.59 5.41C6.81 4.63 6.81 3.36 7.59 2.58C8.37 1.8 9.64 1.8 10.42 2.58C11.2 3.36 11.2 4.63 10.42 5.41C9.63 6.2 8.37 6.2 7.59 5.41ZM6 16V7H4V16C4 18.76 6.24 21 9 21H15V19H9C7.34 19 6 17.66 6 16ZM20 20.07L14.93 15H11.5V11.32C12.9 12.47 15.1 13.48 17 13.48V11.32C15.34 11.34 13.39 10.45 12.33 9.27999L10.93 7.73C10.74 7.52 10.5 7.35 10.24 7.23C9.95 7.09 9.62 7 9.28 7H9.25C8.01 7 7 8.01 7 9.25V15C7 16.66 8.34 18 10 18H15.07L18.57 21.5L20 20.07Z" fill="#323232"/>
</g>
<defs>
<clipPath id="clip0_37_10222">
<rect width="24" height="24" fill="white"/>
</clipPath>
</defs>
</svg>
