<svg width="24" height="24" viewBox="0 0 24 24" fill="none" xmlns="http://www.w3.org/2000/svg">
<g clip-path="url(#clip0_37_10231)">
<path d="M21.71 11.29L12.71 2.29C12.32 1.9 11.69 1.9 11.3 2.29L8.20996 5.38L9.61996 6.79L12 4.42L19.58 12L17.2 14.38L18.61 15.79L21.7 12.7C22.1 12.33 22.1 11.7 21.71 11.29Z" fill="#323232"/>
<path d="M13 7.5V10.17L15.17 12.34L16.5 11L13 7.5Z" fill="#323232"/>
<path d="M1.39001 4.22L5.38001 8.21L2.29001 11.3C1.90001 11.69 1.90001 12.32 2.29001 12.71L11.29 21.71C11.68 22.1 12.31 22.1 12.7 21.71L15.79 18.62L19.78 22.61L21.19 21.2L2.81001 2.81L1.39001 4.22ZM8.03001 10.85C8.02001 10.9 7.99001 10.95 7.99001 11V15H9.99001V12.82L14.37 17.2L12 19.58L4.42001 12L6.80001 9.62L8.03001 10.85Z" fill="#323232"/>
</g>
<defs>
<clipPath id="clip0_37_10231">
<rect width="24" height="24" fill="white"/>
</clipPath>
</defs>
</svg>
