<svg width="24" height="24" viewBox="0 0 24 24" fill="none" xmlns="http://www.w3.org/2000/svg">
<g clip-path="url(#clip0_37_10307)">
<path d="M20 15.51C18.76 15.51 17.55 15.31 16.43 14.94C16.33 14.9 16.22 14.89 16.12 14.89C15.86 14.89 15.61 14.99 15.41 15.18L13.21 17.38C10.38 15.93 8.06 13.62 6.62 10.79L8.82 8.59001C9.1 8.31001 9.18 7.92001 9.07 7.57001C8.7 6.45001 8.5 5.25001 8.5 4.00001C8.5 3.45001 8.05 3.00001 7.5 3.00001H4C3.45 3.00001 3 3.45001 3 4.00001C3 13.39 10.61 21 20 21C20.55 21 21 20.55 21 20V16.51C21 15.96 20.55 15.51 20 15.51ZM5.03 5.00001H6.53C6.6 5.89001 6.75 6.76001 6.99 7.59001L5.79 8.79001C5.38 7.59001 5.12 6.32001 5.03 5.00001ZM19 18.97C17.68 18.88 16.41 18.62 15.2 18.22L16.39 17.03C17.24 17.27 18.11 17.42 18.99 17.48V18.97H19ZM18 9.00001H15.41L20.43 3.98001L19.02 2.57001L14 7.59001V5.00001H12V11H18V9.00001Z" fill="#323232"/>
</g>
<defs>
<clipPath id="clip0_37_10307">
<rect width="24" height="24" fill="white"/>
</clipPath>
</defs>
</svg>
