<svg width="24" height="24" viewBox="0 0 24 24" fill="none" xmlns="http://www.w3.org/2000/svg">
<g clip-path="url(#clip0_37_10394)">
<path d="M21 11L23 9.00001C19.27 5.27001 14.13 3.85001 9.3 4.69001L11.88 7.27001C15.18 7.25001 18.49 8.49001 21 11ZM19 13C17.92 11.92 16.64 11.15 15.28 10.67L18.3 13.69L19 13ZM9 17L12 20L15 17C13.35 15.34 10.66 15.34 9 17ZM3.41 1.64001L2 3.05001L5.05 6.10001C3.59 6.83001 2.22 7.79001 1 9.00001L3 11C4.23 9.77001 5.65 8.84001 7.17 8.22002L9.41 10.46C7.79 10.89 6.27 11.74 5 13L7 15C8.35 13.65 10.11 12.96 11.89 12.94L18.97 20.02L20.38 18.61L3.41 1.64001Z" fill="#323232"/>
</g>
<defs>
<clipPath id="clip0_37_10394">
<rect width="24" height="24" fill="white"/>
</clipPath>
</defs>
</svg>
