<svg width="26" height="24" viewBox="0 0 26 24" fill="none" xmlns="http://www.w3.org/2000/svg">
<path d="M17.5479 7.26651C18.2474 6.41162 18.1214 5.15157 17.2665 4.45212C16.4116 3.75266 15.1515 3.87866 14.4521 4.73355L6.66618 14.2497L4.2 12.4C3.31634 11.7373 2.06274 11.9164 1.4 12.8C0.737259 13.6837 0.916345 14.9373 1.8 15.6L5.03309 18.0248C6.31916 18.9894 8.13697 18.7688 9.15496 17.5246L17.5479 7.26651Z" stroke="#222222" stroke-width="2" stroke-linecap="round"/>
<mask id="path-2-outside-1_1358_3230" maskUnits="userSpaceOnUse" x="8.86932" y="3" width="18" height="17" fill="black">
<rect fill="white" x="8.86932" y="3" width="18" height="17"/>
<path fill-rule="evenodd" clip-rule="evenodd" d="M11.8693 16.5761L12.603 17.163C13.4588 17.8477 14.7062 17.716 15.4003 16.8678L23.774 6.63327C24.1237 6.20582 24.0607 5.5758 23.6332 5.22607C23.2058 4.87635 22.5758 4.93935 22.226 5.36679L13.8524 15.6013L13.1359 15.0281L11.8693 16.5761Z"/>
</mask>
<path d="M12.603 17.163L11.3536 18.7248L11.3536 18.7248L12.603 17.163ZM11.8693 16.5761L10.3214 15.3096L9.04094 16.8747L10.6199 18.1379L11.8693 16.5761ZM15.4003 16.8678L13.8524 15.6013H13.8524L15.4003 16.8678ZM23.774 6.63327L22.226 5.36679V5.36679L23.774 6.63327ZM23.6332 5.22607L22.3668 6.77399H22.3668L23.6332 5.22607ZM22.226 5.36679L20.6781 4.10032L22.226 5.36679ZM13.8524 15.6013L12.603 17.163L14.1476 18.3988L15.4003 16.8678L13.8524 15.6013ZM13.1359 15.0281L14.3853 13.4664L12.8406 12.2306L11.588 13.7616L13.1359 15.0281ZM13.8524 15.6013L13.1187 15.0144L10.6199 18.1379L11.3536 18.7248L13.8524 15.6013ZM13.8524 15.6013L13.8524 15.6013L11.3536 18.7248C13.0652 20.0941 15.5601 19.8308 16.9482 18.1342L13.8524 15.6013ZM22.226 5.36679L13.8524 15.6013L16.9482 18.1342L25.3219 7.89974L22.226 5.36679ZM22.3668 6.77399C21.9393 6.42426 21.8763 5.79424 22.226 5.36679L25.3219 7.89974C26.3711 6.61741 26.182 4.72734 24.8997 3.67816L22.3668 6.77399ZM23.774 6.63327C23.4242 7.06071 22.7942 7.12372 22.3668 6.77399L24.8997 3.67816C23.6174 2.62898 21.7273 2.81798 20.6781 4.10032L23.774 6.63327ZM15.4003 16.8678L23.774 6.63327L20.6781 4.10032L12.3044 14.3348L15.4003 16.8678ZM11.8865 16.5898L12.603 17.163L15.1017 14.0396L14.3853 13.4664L11.8865 16.5898ZM11.588 13.7616L10.3214 15.3096L13.4172 17.8426L14.6838 16.2946L11.588 13.7616Z" fill="#222222" mask="url(#path-2-outside-1_1358_3230)"/>
</svg>
