<svg width="24" height="24" viewBox="0 0 24 24" fill="none" xmlns="http://www.w3.org/2000/svg">
<path d="M11.9707 5.00049C8.32711 5.00049 8.32711 10.1226 8.32711 11.8579C8.32711 13.811 8.32711 19.0005 11.9873 19.0005C15.6416 19.0005 15.6416 13.8384 15.6416 11.895C15.6416 7.31982 14.4062 5.00049 11.9707 5.00049ZM11.9873 17.0005C10.8857 17.0005 10.3271 15.27 10.3271 11.8052C10.3271 9.61377 10.6123 7.00049 11.9707 7.00049C13.4248 7.00049 13.6416 10.0669 13.6416 11.895C13.6416 15.2827 13.085 17.0005 11.9873 17.0005ZM11.9883 1.00049C5.93648 1.00049 1.70996 5.48193 1.70996 11.8989C1.70996 17.3559 5.55664 23.0005 11.9951 23.0005C18.4287 23.0005 22.2734 17.356 22.2734 11.8989C22.2734 5.48193 18.044 1.00049 11.9882 1.00049H11.9883ZM11.9951 21.0005C6.80857 21.0005 3.70994 16.3726 3.70994 11.8989C3.70994 6.57666 7.03709 3.00049 11.9883 3.00049C16.9443 3.00049 20.2734 6.57666 20.2734 11.8989C20.2734 16.3726 17.1767 21.0005 11.9951 21.0005H11.9951Z" fill="black"/>
</svg>
