<svg width="24" height="24" viewBox="0 0 24 24" fill="none" xmlns="http://www.w3.org/2000/svg">
<path d="M20.4371 7.10449C20.2644 6.91091 20.0725 6.7354 19.8643 6.58069C19.9498 5.91079 19.8907 5.23035 19.691 4.58522C19.4913 3.9401 19.1556 3.34527 18.7066 2.84082C17.6227 1.61914 15.775 1 13.2145 1H7.00059C6.55167 1.0012 6.1178 1.16195 5.77647 1.45354C5.43515 1.74514 5.20861 2.14858 5.13731 2.5918L2.54746 18.9981C2.51082 19.218 2.52258 19.4432 2.58191 19.6581C2.64125 19.873 2.74674 20.0724 2.89102 20.2423C3.03531 20.4123 3.21492 20.5487 3.41735 20.6421C3.61977 20.7355 3.84012 20.7837 4.06306 20.7832H6.72715L6.64515 21.3037C6.61199 21.5131 6.62461 21.7272 6.68213 21.9312C6.73965 22.1352 6.84072 22.3244 6.97836 22.4856C7.116 22.6468 7.28695 22.7763 7.47944 22.8651C7.67193 22.9539 7.88138 22.9999 8.09336 23H11.3277C11.7467 23.0033 12.1532 22.8572 12.4741 22.5878C12.795 22.3185 13.0094 21.9435 13.0787 21.5303L13.7194 17.499L13.7301 17.4443H14.0289C18.0612 17.4443 20.5797 15.4512 21.3141 11.6816C21.5381 10.9035 21.5755 10.0835 21.4231 9.28817C21.2707 8.49287 20.9329 7.74472 20.4371 7.10449ZM7.84239 13.7041L7.12791 18.2394L7.0416 18.7832H4.60606L7.09727 3H13.2145C15.15 3 16.5318 3.4043 17.2066 4.16406C17.5252 4.53441 17.7473 4.97767 17.8534 5.4545C17.9594 5.93133 17.9461 6.42696 17.8145 6.8974L17.7959 7.00964C17.7838 7.08612 17.7727 7.16083 17.7525 7.25586C17.5597 8.68478 16.8456 9.99202 15.7474 10.9264C14.5146 11.7837 13.0288 12.2005 11.5299 12.1094H9.70664C9.25642 12.1079 8.82062 12.268 8.47849 12.5607C8.13636 12.8533 7.91065 13.2591 7.84239 13.7041ZM19.3512 11.2988C18.8004 14.127 17.109 15.4443 14.0289 15.4443H13.5455C13.1261 15.4411 12.7193 15.5876 12.3983 15.8576C12.0773 16.1276 11.8632 16.5032 11.7945 16.917L11.1451 20.9912L8.71739 21L9.19554 17.9661L9.80668 14.1133H11.526C11.6828 14.1133 11.8214 14.0897 11.9741 14.0843C12.3329 14.072 12.6907 14.0582 13.0268 14.0165C13.232 13.9909 13.4204 13.9443 13.6171 13.9078C13.8896 13.8574 14.1623 13.8076 14.4182 13.7365C14.6086 13.6835 14.7862 13.6153 14.9673 13.5509C15.2065 13.466 15.4421 13.3769 15.6648 13.2722C15.8328 13.1931 15.9929 13.1052 16.1514 13.0149C16.3624 12.8954 16.5668 12.7647 16.7638 12.6232C16.906 12.5206 17.0457 12.4153 17.1788 12.3022C17.3674 12.1396 17.5467 11.9663 17.7157 11.7833C17.8287 11.6628 17.9444 11.5458 18.049 11.4161C18.2226 11.1949 18.3829 10.9636 18.529 10.7234C18.6055 10.6012 18.6903 10.4882 18.7606 10.3596C18.9632 9.98894 19.1373 9.6034 19.2814 9.20634C19.2901 9.18248 19.3025 9.16234 19.3109 9.13834C19.3149 9.12711 19.3208 9.11777 19.3248 9.10648C19.5229 9.8227 19.532 10.5781 19.3512 11.2988Z" fill="black"/>
</svg>
