<svg width="24" height="24" viewBox="0 0 24 24" fill="none" xmlns="http://www.w3.org/2000/svg">
<path d="M21.9512 15.6142C21.3339 15.4706 20.7518 15.2041 20.2396 14.8309C19.7274 14.4576 19.2956 13.985 18.9698 13.4414C18.8211 13.2218 18.5913 13.0702 18.3309 13.02C18.0704 12.9698 17.8007 13.0251 17.5811 13.1738C17.3615 13.3225 17.2099 13.5523 17.1597 13.8127C17.1095 14.0731 17.1649 14.3428 17.3135 14.5625C17.933 15.5076 18.7533 16.3045 19.7159 16.8965C19.5811 16.9219 19.4346 16.9463 19.2745 16.9717C18.99 17.0322 18.7322 17.1819 18.5387 17.3989C18.3452 17.616 18.2259 17.8892 18.1983 18.1787C17.5316 18.065 16.8507 18.0637 16.1836 18.1748C15.4643 18.3335 14.7932 18.6613 14.2256 19.1308C13.6418 19.6485 12.901 19.9553 12.1221 20.0019H11.8614C11.0815 19.9551 10.34 19.6477 9.7559 19.1289C9.19642 18.6655 8.53569 18.3403 7.82719 18.1797C7.15137 18.0717 6.46259 18.0731 5.78719 18.1836C5.76082 17.8955 5.64376 17.6231 5.45285 17.4057C5.26194 17.1883 5.007 17.037 4.72469 16.9736C4.56746 16.9492 4.42293 16.9248 4.29012 16.8994C4.96985 16.5062 5.57698 15.9991 6.08504 15.4004C6.3195 15.1284 6.53177 14.8381 6.71981 14.5322C6.86014 14.3074 6.90547 14.0361 6.84586 13.7779C6.78625 13.5197 6.62657 13.2957 6.4019 13.1551C6.17723 13.0146 5.90596 12.969 5.64768 13.0283C5.38941 13.0877 5.16526 13.2471 5.02449 13.4717C4.89127 13.6884 4.74141 13.8944 4.57625 14.0879C3.93716 14.8881 3.03072 15.4308 2.02352 15.6162C1.73119 15.6625 1.46554 15.8132 1.27575 16.0403C1.08596 16.2674 0.98489 16.5556 0.99125 16.8515C0.990914 17.0355 1.03022 17.2174 1.10649 17.3847C1.42192 18.1006 2.26176 18.5527 3.89066 18.8594L3.92192 18.9892C3.95024 19.1074 3.97953 19.2275 4.01371 19.3369C4.09037 19.6147 4.25797 19.8588 4.4897 20.0302C4.72143 20.2016 5.00393 20.2903 5.29203 20.2822C5.49559 20.277 5.69784 20.2478 5.89457 20.1953C6.41768 20.0893 6.95509 20.0738 7.48344 20.1494C7.89778 20.2721 8.28082 20.4826 8.60649 20.7666C9.52581 21.5256 10.67 21.9598 11.8614 22.002H12.1221C13.3209 21.958 14.4717 21.5192 15.3955 20.754C15.7228 20.4692 16.1095 20.261 16.5274 20.1446C16.7334 20.1083 16.9422 20.0907 17.1514 20.0919C17.4727 20.0913 17.7931 20.127 18.1065 20.1983C18.3095 20.2362 18.5152 20.2574 18.7217 20.2618C19.0025 20.2694 19.2778 20.1826 19.5035 20.0153C19.7292 19.848 19.8924 19.6098 19.9668 19.3389C20.0049 19.2169 20.0342 19.0997 20.0615 18.9844L20.0928 18.8604C21.7168 18.5548 22.5596 18.1056 22.8604 17.42C22.9365 17.2711 22.9798 17.1076 22.9874 16.9405C23.0121 16.6299 22.9194 16.3212 22.7275 16.0756C22.5357 15.8301 22.2586 15.6654 21.9512 15.6142ZM3.8018 11.1484C4.00641 11.1872 4.218 11.1614 4.4073 11.0746C4.5966 10.9878 4.75425 10.8443 4.85844 10.664C5.25453 10.8656 5.68891 10.9808 6.13285 11.0019C6.60387 11.0082 7.05845 10.8289 7.39848 10.5029C7.50605 10.4026 7.59017 10.2798 7.64486 10.1432C7.69955 10.0067 7.72346 9.85977 7.71488 9.71293L7.67875 9.11137C7.51495 7.92449 7.5679 6.71774 7.83504 5.54978C8.17251 4.78263 8.72878 4.13209 9.43421 3.67958C10.1396 3.22707 10.9629 2.99271 11.8009 3.00584L12.1886 3.00193C13.0258 2.99075 13.8478 3.22631 14.552 3.67923C15.2562 4.13214 15.8115 4.78237 16.1486 5.54881C16.4157 6.71774 16.4686 7.92543 16.3048 9.11326L16.295 9.27635L16.2677 9.71971C16.2622 9.86412 16.2871 10.0081 16.341 10.1422C16.3948 10.2763 16.4763 10.3975 16.5802 10.498C16.9167 10.8225 17.3666 11.003 17.8341 11.001C18.268 10.9631 18.69 10.8389 19.0753 10.6357C19.1534 10.8136 19.2816 10.965 19.4443 11.0713C19.6069 11.1776 19.797 11.2343 19.9913 11.2344H20.0089C20.2741 11.2297 20.5266 11.1198 20.7108 10.929C20.8951 10.7382 20.996 10.482 20.9913 10.2168C20.9654 9.88282 20.8379 9.5648 20.626 9.3054C20.414 9.04601 20.1278 8.85764 19.8058 8.7656C19.5712 8.66954 19.3199 8.62103 19.0664 8.62288C18.8129 8.62472 18.5624 8.67689 18.3292 8.77635C18.5044 7.41922 18.3835 6.04025 17.9747 4.73435C17.4826 3.61128 16.6703 2.65822 15.6395 1.99436C14.6086 1.33049 13.4049 0.98529 12.1788 1.00192L11.7862 1.00583C10.5633 0.990881 9.36307 1.33667 8.33553 1.99997C7.308 2.66328 6.49872 3.61469 6.00883 4.73533C5.597 6.05877 5.47706 7.45578 5.65727 8.83006C5.62309 8.81443 5.58598 8.79686 5.54594 8.7783C5.30158 8.67942 5.03939 8.63222 4.77589 8.6397C4.51239 8.64717 4.2533 8.70915 4.01494 8.82172C3.77658 8.9343 3.56412 9.09503 3.39096 9.29378C3.2178 9.49253 3.08769 9.725 3.00883 9.97654C2.95886 10.2371 3.01429 10.5068 3.16295 10.7265C3.31162 10.9462 3.54137 11.0979 3.8018 11.1484Z" fill="black"/>
</svg>
