<svg width="24" height="24" viewBox="0 0 24 24" fill="none" xmlns="http://www.w3.org/2000/svg">
<path d="M17.4799 6.55L14.6399 3.71C14.547 3.61627 14.4364 3.54188 14.3145 3.49111C14.1927 3.44034 14.062 3.4142 13.9299 3.4142C13.7979 3.4142 13.6672 3.44034 13.5454 3.49111C13.4235 3.54188 13.3129 3.61627 13.2199 3.71C13.0337 3.89736 12.9291 4.15082 12.9291 4.415C12.9291 4.67919 13.0337 4.93264 13.2199 5.12L15.3399 7.24L7.23994 15.34L5.11994 13.22C4.93258 13.0338 4.67913 12.9292 4.41494 12.9292C4.15076 12.9292 3.8973 13.0338 3.70994 13.22C3.61621 13.313 3.54182 13.4236 3.49105 13.5454C3.44028 13.6673 3.41414 13.798 3.41414 13.93C3.41414 14.062 3.44028 14.1927 3.49105 14.3146C3.54182 14.4364 3.61621 14.547 3.70994 14.64L6.51994 17.45L9.32994 20.26C9.42256 20.3545 9.533 20.4297 9.65488 20.4812C9.77675 20.5327 9.90763 20.5595 10.0399 20.56C10.2386 20.5612 10.433 20.5031 10.5986 20.3933C10.7641 20.2835 10.8931 20.1269 10.9693 19.9435C11.0455 19.76 11.0653 19.5581 11.0262 19.3633C10.9872 19.1686 10.891 18.9899 10.7499 18.85L8.65994 16.76L16.7599 8.66L18.8799 10.78C18.9732 10.8726 19.0837 10.9459 19.2053 10.9957C19.3269 11.0456 19.4571 11.071 19.5885 11.0706C19.7199 11.0701 19.8499 11.0438 19.9711 10.993C20.0923 10.9423 20.2024 10.8682 20.2949 10.775C20.3875 10.6818 20.4608 10.5712 20.5107 10.4496C20.5605 10.3281 20.586 10.1979 20.5855 10.0665C20.585 9.93507 20.5587 9.80505 20.508 9.68384C20.4573 9.56262 20.3832 9.45258 20.2899 9.36L17.4799 6.55ZM3.70994 17.46C3.52164 17.2717 3.26624 17.1659 2.99994 17.1659C2.73364 17.1659 2.47824 17.2717 2.28994 17.46C2.10164 17.6483 1.99585 17.9037 1.99585 18.17C1.99585 18.4363 2.10164 18.6917 2.28994 18.88L5.11994 21.71C5.21338 21.8027 5.3242 21.876 5.44603 21.9258C5.56787 21.9755 5.69833 22.0008 5.82994 22C5.96155 22.0008 6.09201 21.9755 6.21385 21.9258C6.33569 21.876 6.4465 21.8027 6.53994 21.71C6.63367 21.617 6.70806 21.5064 6.75883 21.3846C6.8096 21.2627 6.83574 21.132 6.83574 21C6.83574 20.868 6.8096 20.7373 6.75883 20.6154C6.70806 20.4936 6.63367 20.383 6.53994 20.29L3.70994 17.46ZM21.7099 5.12L18.8799 2.29C18.7867 2.19676 18.676 2.1228 18.5542 2.07234C18.4324 2.02188 18.3018 1.99591 18.1699 1.99591C18.0381 1.99591 17.9075 2.02188 17.7857 2.07234C17.6639 2.1228 17.5532 2.19676 17.4599 2.29C17.3667 2.38324 17.2927 2.49393 17.2423 2.61575C17.1918 2.73758 17.1658 2.86814 17.1658 3C17.1658 3.13186 17.1918 3.26243 17.2423 3.38425C17.2927 3.50607 17.3667 3.61676 17.4599 3.71L20.2899 6.54C20.3829 6.63373 20.4935 6.70813 20.6154 6.75889C20.7372 6.80966 20.8679 6.8358 20.9999 6.8358C21.132 6.8358 21.2627 6.80966 21.3845 6.75889C21.5064 6.70813 21.617 6.63373 21.7099 6.54C21.8037 6.44704 21.8781 6.33644 21.9288 6.21458C21.9796 6.09272 22.0057 5.96201 22.0057 5.83C22.0057 5.69799 21.9796 5.56729 21.9288 5.44543C21.8781 5.32357 21.8037 5.21297 21.7099 5.12Z" fill="black"/>
</svg>
