<svg width="24" height="24" viewBox="0 0 24 24" fill="none" xmlns="http://www.w3.org/2000/svg">
<g clip-path="url(#clip0_37_11060)">
<path d="M14.27 5.99999C13.72 6.94999 14.05 8.17998 15 8.72998C15.95 9.27998 17.18 8.94999 17.73 7.99998C18.28 7.04998 17.95 5.81999 17 5.26999C16.05 4.71999 14.82 5.04999 14.27 5.99999Z" fill="#323232"/>
<path d="M15.84 10.41C15.84 10.41 14.21 9.47 13.24 8.91C10.86 7.53 10.04 4.47 11.42 2.09L9.69001 1.09C8.10001 3.83 8.60001 7.21 10.66 9.4L5.51001 18.32L7.24001 19.32L8.74001 16.72L10.47 17.72L7.47001 22.92L9.20001 23.92L15.49 13.03C16.63 14.58 16.82 16.72 15.8 18.49L17.53 19.49C19.13 16.74 18.81 12.91 15.84 10.41Z" fill="#323232"/>
<path d="M12.7499 3.79999C13.4699 4.20999 14.3799 3.96999 14.7999 3.24999C15.2099 2.52999 14.9699 1.61999 14.2499 1.19999C13.5299 0.78999 12.6199 1.02999 12.1999 1.74999C11.7899 2.46999 12.0299 3.38999 12.7499 3.79999Z" fill="#323232"/>
</g>
<defs>
<clipPath id="clip0_37_11060">
<rect width="24" height="24" fill="white"/>
</clipPath>
</defs>
</svg>
