<svg width="24" height="24" viewBox="0 0 24 24" fill="none" xmlns="http://www.w3.org/2000/svg">
<g clip-path="url(#clip0_37_11078)">
<path d="M16.5 4.38C17.6046 4.38 18.5 3.48457 18.5 2.38C18.5 1.27544 17.6046 0.380005 16.5 0.380005C15.3954 0.380005 14.5 1.27544 14.5 2.38C14.5 3.48457 15.3954 4.38 16.5 4.38Z" fill="#323232"/>
<path d="M24.0001 11.88V7.18001L18.9501 5.04001C17.9801 4.63001 16.8601 4.98001 16.3001 5.88001L15.3001 7.48001C14.6301 8.66001 13.3901 9.54001 11.8901 9.80001L11.9501 9.86001C12.6401 10.55 13.4701 10.93 14.4101 11.03C15.2101 10.61 15.9301 10.05 16.5001 9.39001L17.1001 12.39L15.9401 13.49L15.0001 14.38V15.14V21.88H17.0001V15.88L19.1001 13.88L20.9001 21.88H23.0001L20.8201 10.88L20.2001 7.78001L22.0001 8.48001V11.88H24.0001Z" fill="#323232"/>
<path d="M10.29 8.09C10.51 8.24 10.76 8.33 11.01 8.38C11.14 8.4 11.26 8.42 11.39 8.42C11.52 8.42 11.65 8.41 11.77 8.38C11.9 8.36 12.02 8.32 12.14 8.27C12.38 8.17 12.61 8.03 12.8 7.83C13.29 7.34 13.47 6.66 13.35 6.03C13.28 5.66 13.1 5.29 12.8 5C12.61 4.81 12.38 4.66 12.14 4.56C12.02 4.51 11.9 4.47 11.77 4.45C11.64 4.43 11.52 4.41 11.39 4.41C11.27 4.41 11.16 4.42 11.04 4.44C10.9 4.46 10.76 4.5 10.63 4.55C10.4 4.66 10.17 4.81 9.97996 5C9.67996 5.29 9.49996 5.66 9.42996 6.03C9.30996 6.66 9.48996 7.34 9.97996 7.83C10.07 7.93 10.18 8.01 10.29 8.09Z" fill="#323232"/>
<path d="M11.24 10.56L9.24005 8.56001C9.14005 8.46001 9.04005 8.38001 8.93005 8.30001C8.71005 8.16001 8.46005 8.06001 8.21005 8.02001C8.08005 7.99001 7.96005 7.98001 7.83005 7.98001C7.32005 7.98001 6.81005 8.18001 6.42005 8.57001L3.08005 11.91C2.67005 12.32 2.46005 12.89 2.50005 13.45C2.50005 13.63 2.54005 13.82 2.61005 14L3.68005 16.95L0.0500488 20.58L1.46005 22L5.70005 17.76V15.54L7.00005 16.75V21.88H9.00005V15.88L6.88005 13.76L9.24005 11.4L9.95005 12.11C11.24 13.37 12.92 14.15 14.98 14.15L14.84 12.08C13.34 12.06 12.14 11.46 11.24 10.56Z" fill="#323232"/>
</g>
<defs>
<clipPath id="clip0_37_11078">
<rect width="24" height="24" fill="white"/>
</clipPath>
</defs>
</svg>
