<svg width="24" height="24" viewBox="0 0 24 24" fill="none" xmlns="http://www.w3.org/2000/svg">
<g clip-path="url(#clip0_37_11100)">
<path d="M20.49 3.51001C19.93 2.95001 18.34 2.54001 16.33 2.54001C13.25 2.54001 9.18001 3.50001 6.35001 6.33001C1.66001 11.03 2.10001 19.07 3.51001 20.49C4.07001 21.05 5.66001 21.46 7.67001 21.46C10.75 21.46 14.82 20.5 17.65 17.67C22.34 12.97 21.9 4.93001 20.49 3.51001ZM5.71001 18.29C6.34001 16.4 7.87001 13.3 10.58 10.59C13.26 7.91001 16.36 6.36001 18.28 5.71001C17.65 7.60001 16.12 10.7 13.4 13.41C10.74 16.09 7.64001 17.64 5.71001 18.29ZM7.76001 7.76001C10.4 5.12001 14.1 4.64001 15.79 4.57001C13.74 5.51001 11.33 7.03001 9.18001 9.18001C7.02001 11.34 5.51001 13.76 4.57001 15.81C4.66001 13.33 5.44001 10.07 7.76001 7.76001ZM16.24 16.24C13.6 18.88 9.90001 19.36 8.21001 19.43C10.26 18.49 12.67 16.97 14.82 14.82C16.98 12.66 18.49 10.24 19.44 8.19001C19.34 10.67 18.56 13.93 16.24 16.24Z" fill="#323232"/>
</g>
<defs>
<clipPath id="clip0_37_11100">
<rect width="24" height="24" fill="white"/>
</clipPath>
</defs>
</svg>
