<svg width="24" height="24" viewBox="0 0 24 24" fill="none" xmlns="http://www.w3.org/2000/svg">
<path d="M12 2C10.0605 2.00369 8.16393 2.57131 6.54128 3.63374C4.91862 4.69617 3.63994 6.20754 2.86099 7.98377C2.08204 9.76 1.83643 11.7244 2.15408 13.6378C2.47173 15.5511 3.33893 17.3308 4.65005 18.76L4.74005 18.86C5.6745 19.8465 6.80021 20.6322 8.04843 21.1692C9.29666 21.7061 10.6412 21.9831 12 21.9831C13.3589 21.9831 14.7034 21.7061 15.9517 21.1692C17.1999 20.6322 18.3256 19.8465 19.26 18.86L19.35 18.76C20.6612 17.3308 21.5284 15.5511 21.846 13.6378C22.1637 11.7244 21.9181 9.76 21.1391 7.98377C20.3602 6.20754 19.0815 4.69617 17.4588 3.63374C15.8362 2.57131 13.9396 2.00369 12 2ZM5.61005 16.79C4.56535 15.4116 3.99992 13.7295 3.99992 12C3.99992 10.2705 4.56535 8.58836 5.61005 7.21C6.35143 7.76925 6.95287 8.49297 7.36703 9.32416C7.78119 10.1554 7.99675 11.0713 7.99675 12C7.99675 12.9287 7.78119 13.8446 7.36703 14.6758C6.95287 15.507 6.35143 16.2307 5.61005 16.79ZM12 20C10.1793 20.003 8.41334 19.3779 7.00005 18.23C7.93081 17.4802 8.68173 16.5314 9.19765 15.4533C9.71357 14.3752 9.98137 13.1952 9.98137 12C9.98137 10.8048 9.71357 9.6248 9.19765 8.5467C8.68173 7.46859 7.93081 6.51978 7.00005 5.77C8.41506 4.62532 10.18 4.00082 12 4.00082C13.8201 4.00082 15.585 4.62532 17 5.77C16.0693 6.51978 15.3184 7.46859 14.8024 8.5467C14.2865 9.6248 14.0187 10.8048 14.0187 12C14.0187 13.1952 14.2865 14.3752 14.8024 15.4533C15.3184 16.5314 16.0693 17.4802 17 18.23C15.5868 19.3779 13.8208 20.003 12 20ZM18.39 16.79C17.6487 16.2307 17.0472 15.507 16.6331 14.6758C16.2189 13.8446 16.0033 12.9287 16.0033 12C16.0033 11.0713 16.2189 10.1554 16.6331 9.32416C17.0472 8.49297 17.6487 7.76925 18.39 7.21C19.4347 8.58836 20.0002 10.2705 20.0002 12C20.0002 13.7295 19.4347 15.4116 18.39 16.79Z" fill="black"/>
</svg>
